<?xml version="1.0" encoding="UTF-8"?>
<svg id="Layer_1" xmlns="http://www.w3.org/2000/svg" version="1.1" viewBox="0 0 20 20">
  <!-- Generator: Adobe Illustrator 30.3.0, SVG Export Plug-In . SVG Version: 2.1.3 Build 182)  -->
  <path d="M10,18.96c-4.94,0-8.96-4.02-8.96-8.96S5.06,1.04,10,1.04s8.96,4.02,8.96,8.96-4.02,8.96-8.96,8.96ZM10,2.29c-4.25,0-7.71,3.46-7.71,7.71s3.46,7.71,7.71,7.71,7.71-3.46,7.71-7.71-3.46-7.71-7.71-7.71Z" fill="#6d7886"/>
  <path d="M12.1,14.52c-.29,0-.58-.09-.82-.25l-1.18-.6c-.06-.03-.13-.03-.19,0l-1.18.61c-.64.44-1.52.29-1.99-.34-.27-.37-.36-.85-.22-1.29l.21-1.3c.01-.07-.01-.13-.06-.18l-.93-.93c-.29-.22-.49-.54-.55-.9-.07-.38.01-.77.24-1.09.27-.39.72-.63,1.2-.63h0l1.26-.21c.07-.01.12-.05.15-.11l.61-1.19c.13-.35.38-.63.71-.8.35-.18.74-.21,1.11-.09.44.14.78.48.93.91l.59,1.17c.03.06.09.1.15.11l1.36.21c.3-.02.66.15.94.42.27.28.42.64.42,1.03,0,.46-.22.9-.59,1.17l-.91.91s-.07.11-.06.18l.21,1.29c.11.35.08.72-.08,1.05-.17.35-.46.62-.83.75-.16.06-.32.08-.49.08ZM10,12.38c.23,0,.46.05.67.16l1.22.62s.06.03.09.06c.06.04.13.05.19.03.09-.03.16-.17.13-.27-.01-.04-.02-.07-.03-.11l-.22-1.34c-.07-.46.08-.93.41-1.26l.98-.97c.12-.1.16-.16.16-.23,0-.1-.11-.21-.21-.21l-1.46-.22c-.46-.07-.86-.36-1.08-.78l-.61-1.21s-.03-.07-.04-.1c-.02-.07-.07-.12-.13-.14-.09-.03-.23.04-.26.13-.01.03-.02.06-.04.09l-.62,1.23c-.21.42-.61.71-1.08.78l-1.36.21c-.17,0-.23.04-.27.1-.06.08-.03.23.05.29.03.02.06.04.09.07l.96.96c.33.33.48.8.41,1.26l-.21,1.34s-.02.07-.03.11c-.02.06-.01.14.03.19.07.09.2.11.29.04.03-.02.06-.04.09-.05l1.22-.62c.21-.11.44-.16.66-.16ZM9.21,6.35h0,0Z" fill="#6d7886"/>
</svg>