<?xml version="1.0" encoding="UTF-8"?>
<svg id="Layer_1" xmlns="http://www.w3.org/2000/svg" version="1.1" viewBox="0 0 20 20">
  <!-- Generator: Adobe Illustrator 30.3.0, SVG Export Plug-In . SVG Version: 2.1.3 Build 182)  -->
  <path d="M15.62,6.67c0-3.1-2.52-5.62-5.62-5.62s-5.62,2.52-5.62,5.62c0,1.74.8,3.3,2.05,4.34l-1.2,6.74c-.05.3.03.6.22.83.18.22.43.35.7.38.28.03.55-.05.74-.21l2.99-2.24c.07-.05.17-.06.25,0l2.96,2.22c.19.15.42.24.66.24.06,0,.12,0,.17-.01.57-.1.95-.63.85-1.21l-1.2-6.73c1.25-1.03,2.05-2.59,2.05-4.34ZM5.62,6.67c0-2.41,1.96-4.38,4.38-4.38s4.38,1.96,4.38,4.38-1.96,4.38-4.38,4.38-4.38-1.96-4.38-4.38ZM13.45,17.43l-2.58-1.93c-.51-.38-1.23-.38-1.75,0l-2.58,1.93,1.01-5.7c.74.36,1.56.56,2.44.56s1.7-.21,2.44-.56l1.01,5.7Z" fill="#6d7886"/>
</svg>