<?xml version="1.0" encoding="UTF-8"?>
<svg id="Layer_1" xmlns="http://www.w3.org/2000/svg" version="1.1" viewBox="0 0 20 20">
  <!-- Generator: Adobe Illustrator 30.3.0, SVG Export Plug-In . SVG Version: 2.1.3 Build 182)  -->
  <path d="M18.35,4.01l-.74-.74.75-.75c.24-.24.24-.64,0-.88-.24-.24-.64-.24-.88,0l-.75.75-.74-.74c-.43-.43-1.01-.67-1.62-.67h0c-.61,0-1.19.24-1.62.67-.26.26-.45.57-.56.91l-.03-.03c-.89-.89-2.35-.89-3.24,0s-.89,2.35,0,3.24l2.21,2.21-3.14,3.14-2.21-2.21c-.89-.89-2.35-.89-3.24,0s-.89,2.35,0,3.24l.03.03c-.34.11-.65.3-.91.56-.89.89-.89,2.35,0,3.24l.74.74-.75.75c-.24.24-.24.64,0,.88.12.12.28.18.44.18s.32-.06.44-.18l.75-.75.74.74c.43.43,1.01.67,1.62.67h0c.61,0,1.19-.24,1.62-.67.27-.27.45-.58.56-.91l.03.03c.87.87,2.38.87,3.24,0,.89-.89.89-2.35,0-3.24l-2.21-2.21,3.14-3.14,2.21,2.21c.43.43,1.01.67,1.62.67s1.19-.24,1.62-.67c.89-.89.89-2.35,0-3.24l-.03-.03c.33-.11.65-.29.91-.56.89-.89.89-2.35,0-3.24ZM10.5,15.84c0,.28-.11.54-.31.74-.39.39-1.08.39-1.47,0l-1.47-1.47c-.24-.24-.64-.24-.88,0s-.24.64,0,.88h0c.4.41.4,1.07,0,1.47-.2.2-.46.31-.74.31s-.54-.11-.74-.31l-2.36-2.36c-.41-.41-.41-1.07,0-1.47.2-.2.46-.31.74-.31s.54.11.73.3h0c.24.25.64.25.88,0s.24-.64,0-.88h0s-1.47-1.47-1.47-1.47c-.41-.41-.41-1.07,0-1.47s1.07-.41,1.47,0l5.3,5.3c.2.2.31.46.31.74ZM17.46,6.37c-.41.41-1.06.41-1.47,0h0c-.24-.25-.64-.25-.88,0s-.24.64,0,.88c0,0,0,0,0,0l1.47,1.47c.2.2.31.46.31.74s-.11.54-.31.74c-.39.39-1.08.39-1.47,0l-5.3-5.3c-.41-.41-.41-1.07,0-1.47.2-.2.47-.3.74-.3s.53.1.74.3l1.47,1.47c.24.24.64.24.88,0,.24-.24.24-.64,0-.88-.2-.2-.3-.46-.3-.74s.11-.54.31-.74c.2-.2.46-.3.74-.3h0c.28,0,.54.11.74.3l2.36,2.36c.41.41.41,1.07,0,1.47Z" fill="#6d7886"/>
</svg>