<?xml version="1.0" encoding="UTF-8"?>
<svg id="Layer_1" xmlns="http://www.w3.org/2000/svg" version="1.1" viewBox="0 0 20 20">
  <!-- Generator: Adobe Illustrator 30.3.0, SVG Export Plug-In . SVG Version: 2.1.3 Build 182)  -->
  <path d="M2.27,6.92c-.33-.11-.68.08-.78.41-.56,1.76-.56,3.62,0,5.38.08.27.33.44.6.44.06,0,.13,0,.19-.03.33-.1.51-.46.41-.78-.48-1.51-.48-3.11,0-4.62.1-.33-.08-.68-.41-.78Z" fill="#6d7786"/>
  <path d="M18.51,7.32c-.1-.33-.45-.51-.78-.41-.33.1-.51.46-.41.78.48,1.51.48,3.11,0,4.62-.1.33.08.68.41.78.06.02.13.03.19.03.27,0,.51-.17.6-.44.56-1.76.56-3.62,0-5.38Z" fill="#6d7786"/>
  <path d="M14.02,6.08l-.64-3.18c-.22-1.09-1.19-1.86-2.28-1.85h-2.22c-1.11-.01-2.07.76-2.29,1.85l-.61,3.19c-.99,1.01-1.6,2.39-1.6,3.92s.62,2.92,1.61,3.94l.63,3.15c.21,1.08,1.16,1.85,2.24,1.85.01,0,.03,0,.04,0h2.25c1.11.03,2.08-.75,2.29-1.84l.65-3.25c.95-1.01,1.53-2.36,1.53-3.84s-.62-2.92-1.61-3.93ZM8.87,2.3h2.25c.52-.02.94.34,1.04.84l.37,1.85c-.76-.38-1.62-.6-2.52-.6s-1.78.22-2.55.62l.36-1.86c.1-.5.53-.86,1.05-.84ZM10,5.64c2.41,0,4.38,1.96,4.38,4.38s-1.96,4.38-4.38,4.38-4.38-1.96-4.38-4.38,1.96-4.38,4.38-4.38ZM11.17,17.7h-2.28c-.51.02-.94-.34-1.04-.84l-.36-1.82c.76.38,1.61.6,2.52.6s1.82-.23,2.59-.64l-.37,1.86c-.1.5-.56.85-1.05.84Z" fill="#6d7786"/>
  <path d="M10.39,11.29c.12.12.28.18.44.18s.32-.06.44-.18c.24-.24.24-.64,0-.88l-.65-.65v-1.41c0-.35-.28-.62-.62-.62s-.62.28-.62.62v1.67c0,.17.07.32.18.44l.83.83Z" fill="#6d7786"/>
</svg>