<?xml version="1.0" encoding="UTF-8"?>
<svg id="Layer_1" xmlns="http://www.w3.org/2000/svg" version="1.1" viewBox="0 0 50 50">
  <!-- Generator: Adobe Illustrator 30.3.0, SVG Export Plug-In . SVG Version: 2.1.3 Build 182)  -->
  <g>
    <path d="M46.83,25c0,12.05-9.77,21.83-21.83,21.83S3.17,37.05,3.17,25,12.95,3.17,25,3.17s21.83,9.77,21.83,21.83" fill="#ed0007"/>
    <path d="M20.65,3.61v42.78c-9.97-2.02-17.47-10.83-17.47-21.39S10.68,5.63,20.65,3.61" fill="#2fd298"/>
  </g>
  <path d="M20.83,16.32c4.84,0,8.78,3.94,8.78,8.78s-3.94,8.78-8.78,8.78-8.78-3.94-8.78-8.78,3.94-8.78,8.78-8.78M20.83,14.27c-5.98,0-10.83,4.85-10.83,10.83s4.85,10.83,10.83,10.83,10.83-4.85,10.83-10.83-4.85-10.83-10.83-10.83h0Z" fill="#e5ff78"/>
  <path d="M14.32,26.3c0,1.78.73,3.38,1.91,4.56,1.18,1.18,2.78,1.92,4.56,1.92s3.41-.73,4.59-1.9c1.18-1.17,1.9-2.79,1.9-4.57h0v-8.64l-12.96-.02v8.65Z" fill="#fff"/>
  <path d="M14.57,26.32h0c0,1.7.7,3.25,1.83,4.37,1.13,1.12,2.69,1.82,4.39,1.82s3.26-.69,4.39-1.81c1.12-1.12,1.82-2.67,1.82-4.37v-8.38h-12.42s0,8.37,0,8.37M24.5,20.45v5.34s0,.56,0,.56c0,.15,0,.32-.03.46-.1.84-.49,1.58-1.06,2.15-.67.67-1.6,1.09-2.62,1.09s-1.92-.43-2.6-1.1c-.69-.69-1.09-1.64-1.09-2.61v-5.9s7.41.01,7.41.01h0Z" fill="red"/>
</svg>