<?xml version="1.0" encoding="UTF-8"?>
<svg id="Layer_1" xmlns="http://www.w3.org/2000/svg" version="1.1" viewBox="0 0 80 80">
  <!-- Generator: Adobe Illustrator 30.3.0, SVG Export Plug-In . SVG Version: 2.1.3 Build 182)  -->
  <path d="M40,3.62c20.09,0,36.38,16.29,36.38,36.38s-16.29,36.38-36.38,36.38S3.62,60.09,3.62,40,19.91,3.62,40,3.62M40,2.66c20.62,0,37.34,16.72,37.34,37.34s-16.72,37.34-37.34,37.34S2.66,60.62,2.66,40,19.38,2.66,40,2.66" fill="#2a2c2b" fill-rule="evenodd"/>
  <path d="M58.32,13.56l.43,1-.74.8,1.08-.1.53.95.24-1.07,1.06-.21-.94-.55.13-1.08-.81.72-.99-.46ZM61.5,17.12l.3,1.31-1.07.81,1.33.12.43,1.27.52-1.24,1.34-.02-1.01-.88.4-1.29-1.15.69-1.09-.78ZM64.22,21.68l.02,1.74-1.57.72,1.65.52.2,1.73,1-1.42,1.69.35-1.03-1.39.85-1.51-1.64.55-1.17-1.28ZM66.16,27.51l-.53,2.15-2.17.39,1.87,1.17-.3,2.2,1.68-1.43,1.98.97-.84-2.05,1.53-1.6-2.2.16-1.04-1.96ZM13.83,27.51l.52,2.15,2.17.39-1.88,1.17.31,2.2-1.69-1.43-1.98.97.83-2.05-1.53-1.6,2.2.16,1.04-1.96ZM15.78,21.68l-.02,1.74,1.57.72-1.65.52-.2,1.73-1-1.42-1.69.35,1.03-1.39-.85-1.51,1.64.55,1.17-1.28ZM18.5,17.12l-.3,1.31,1.07.81-1.34.12-.43,1.27-.52-1.24-1.34-.02,1.01-.88-.4-1.29,1.15.69,1.09-.78ZM21.67,13.56l-.43,1,.74.8-1.08-.1-.53.95-.24-1.07-1.07-.21.94-.55-.13-1.08.81.72.99-.46ZM62.67,38.21c.29-.62.54-1.27.79-1.95-.67-.12-1.22-.21-1.74-.31-1.27-.2-2.11.22-2.53.77-.41.56-.67,1.09-.97,1.85-.3.76-.28,2.16,1.87,3.12,1.87.86,3.28,1.73,6.25-.81,1.74-1.4,2.4-.93,3.04-.8.91.31,1.01.68.83,1.63-.24,1.18-1.57.55-2.22.3-.25.94-.5,1.66-.92,2.67.39.16.87.38,1.31.57,1.98.79,4.21.36,4.73-2.03.31-1.61.22-2.39.22-2.67-.03-1.49-1.12-2.81-3.02-3.15-1.85-.37-3.08-.47-5.67,1.47-1.33.98-1.55,1.36-2.75.88-.64-.24-1.25-.46-.9-1.21.27-.58.56-.67,1.69-.34M59.01,45.46l5.81,2.38c-.45.9-.67,1.36-1.29,2.29l-4.52-4.68ZM55.89,41.74c-.49.52-1,1.06-1.59,1.56l12.62,15.84c.76-1.04,1.54-2.28,2.19-3.44l-3.45-3.45c.74-1.21,1.07-1.9,1.67-3.3l3.93,1.71c.44-1.14.78-2.18,1.02-3.28l-16.39-5.65ZM54.64,54.85c1.39-.9,2.23-1.61.52-3.62l-1.91-2.41c-1.17-1.59-1.85-.73-2.72-.33l4.12,6.36ZM57.58,68.02l-10.08-20.61c1.29-.47,2.39-1.01,3.49-1.66,1.39-.89,2.54.01,3.71,1.09l2.95,2.74c2.79,2.6,2.29,4.54,1.67,5.16l7.33,4.81c-.79,1.1-1.57,2.06-2.46,2.97l-7.15-5.78-.83.57,5.34,7.81c-1.16,1.02-2.62,2.08-3.95,2.9M44.83,48.22c.73-.17,1.22-.3,1.91-.53l9.41,21.2c-1.27.7-2.84,1.47-4.42,2.06l-6.9-22.72ZM44.12,48.36c-1.47.26-2.32.37-4.25.39l-.5,24.3c3.79.1,7.64-.52,10.91-1.61l-1.09-4.11c-1.75.56-3.45.98-5.15,1.13l-.96-8.3c1.76-.19,2.72-.4,3.97-.81l-.83-3.09c-1.17.34-2.29.52-3.51.66l-.68-5.86c.92-.03,1.87-.18,2.72-.4l-.62-2.3ZM21.23,67.15l10.85-19.94c.64.26,1.36.5,2.01.69l-1.19,10.27c.32-.74,4.03-9.62,4.03-9.66.57.09,1.64.19,2.11.21l-1.46,24.23c-1.24-.03-3.16-.32-4.51-.64l2.07-12.23-5.21,8.35-.13-10.16c-.43,1.29-4.73,11.14-4.73,11.17-1.54-.79-2.8-1.58-3.83-2.31M14.32,60.7l14-15.45c-.05-.01,1.27.8,1.9,1.12l-10.81,14.34c1.13,1.12,1.56,1.48,2.94,2.52l-1.96,3.33c-2.06-1.48-4.75-4.11-6.07-5.85M21.75,45.74l-6.26,2.61c.47.92.92,1.64,1.55,2.47l4.71-5.08ZM24.48,42.04c.51.53,1.13,1.12,1.75,1.65l-12.35,16.47c-.79-1.03-1.61-2.25-2.28-3.38l3.46-3.73c-.76-1.15-1.44-2.13-2.06-3.59l-4,1.76c-.44-1.16-.82-2.45-1.01-3.34l16.49-5.83ZM18.87,38.01l-4.43,1.2c.05.39.12.68.24,1.07.32,1.06.82,1.05,2.07.59l1.62-.61c.65-.29,1.3-.58.96-1.32-.22-.4-.45-.96-.45-.94M20.27,35.52c.28.74,1.12,2.34,1.46,2.88.84,1.29.29,2.76-1.29,3.56l-3.22,1.64c-1.54.77-4.45.42-5-1.64-.25-.7-.36-1.26-.53-2.01l-4.6,1.28c-.11-1.67-.12-1.96-.02-3.38l13.2-2.34ZM40,7.95c10.68,0,19.33,8.66,19.33,19.33s-8.66,19.33-19.33,19.33-19.33-8.65-19.33-19.33S29.32,7.95,40,7.95M40,4.66c19.52,0,35.34,15.82,35.34,35.34s-15.82,35.34-35.34,35.34S4.66,59.52,4.66,40,20.48,4.66,40,4.66" fill="#2a2c2b" fill-rule="evenodd"/>
  <path d="M40,8.94c-10.13,0-18.34,8.21-18.34,18.34s8.21,18.34,18.34,18.34,18.34-8.21,18.34-18.34-8.21-18.34-18.34-18.34M54.42,16.69c-4.37-1.03-9.61-3.16-14.2-7.28,5.82.07,10.98,2.92,14.2,7.28M39.78,9.41c-4.77,4.11-9.97,6.29-14.2,7.29,3.22-4.37,8.38-7.22,14.2-7.29M22.08,27.33c0-3.84,1.21-7.39,3.26-10.31-.25,10.7,5.26,21.89,14.35,28.22-9.75-.16-17.61-8.12-17.61-17.91M25.72,17.02c8.21-1.91,13.5-6.51,14.28-7.32.8.81,5.92,5.35,14.31,7.32.12,18.29-13.14,27.19-14.31,27.97-1.17-.79-14.44-10.01-14.28-27.97M40.31,45.24c9.3-6.42,14.61-17.44,14.35-28.2,2.05,2.91,3.25,6.46,3.25,10.29,0,9.79-7.85,17.74-17.6,17.91" fill="#2a2c2b"/>
  <path d="M40,10.96c-4.31,3.89-9.35,5.84-13.15,6.73-.31,9.83,4.96,20.3,13.15,26.02,8.39-5.81,13.48-16.12,13.16-26.02-3.93-.92-9.01-2.82-13.16-6.73M50.08,17.17h-3.37c-.26-.38-.56-.73-.89-1.04h1.55c.84.37,1.74.72,2.71,1.04M44,28.73c-5.42,2.17-6.39-4.75-3.21-4.49,1.95.16,1.4,3.93-.96,1.91.22,4.23,7.46,1.41,4.43-4.2,1.74-2.07.1-5.97-2.87-5.97-2.66,0-3.62,2.47-3.62,3.87v14.19c.01,1.71.19,3.67,1.88,4.91-1.29.28-3.24-.53-3.41-2.98-.8.44-1.49.6-2.22-.29.37-.14.63-.36.8-.6h0s.02-.02.02-.04c0,0,0,0,0,0,.26-.4.31-.86.31-1.21v-8.13l-.87-.8.87-.86v-5.03c0-1.01-.99-1.5-1.68-1.48,1.01-1.07,1.93-.85,2.81.03,1.14-1.48,2.89-2.99,4.79-2.94,8.28.22,8.54,11.8,2.92,14.1M40.24,29.04h-2.12v-1.04h1.05c.26.42.62.78,1.08,1.04h0ZM39.07,17.32h4.5c.29.3.52.66.7,1.04h-5.83c.15-.37.36-.73.63-1.04M39.21,17.17c.52-.52,1.23-.88,2.17-.87.8.01,1.5.35,2.05.87h-4.22ZM38.38,18.5h5.95c.14.34.23.69.27,1.04h-6.46c.03-.34.11-.69.24-1.04M38.12,19.88c0-.06,0-.12,0-.19h6.49c.02.35,0,.7-.09,1.04h-6.41v-.85ZM38.12,20.88h6.36c-.12.38-.32.74-.61,1.04h-5.74v-1.04ZM41.88,26.81h1.93c-1.11,1.27-3,1.45-3.47.07.66.39,1.19.28,1.55-.07M43.92,26.67h-1.92c.22-.28.34-.66.35-1.06h2.12c-.12.4-.31.76-.55,1.06M44.51,25.46h-2.18c-.02-.37-.15-.74-.39-1.02h2.67c.01.37-.03.71-.11,1.02M38.12,26.81h.58c.07.36.19.71.38,1.04h-.96v-1.04ZM38.12,25.61h.58c-.07.34-.07.7-.02,1.06h-.56v-1.06ZM38.73,25.46h-.61v-1.02h1.16c-.27.27-.45.63-.55,1.02M39.44,24.29h-1.32v-1.04h6.29c.11.37.17.71.2,1.04h-2.81c-.23-.21-.54-.36-.95-.39-.58-.04-1.05.11-1.4.39M38.12,23.1v-1.04h5.78c.2.36.35.71.46,1.04h-6.24ZM47.04,15.98h-1.38c-.46-.41-.99-.76-1.59-1.04h.89c.64.35,1.33.7,2.08,1.04M40,11.44c.16.17.54.52,1.13.98h-2.28c.6-.46.99-.82,1.16-.98M38.66,12.57h2.66c.4.31.88.66,1.44,1.04h-5.58c.57-.38,1.07-.73,1.48-1.04M36.95,13.76h6.03c.51.34,1.09.69,1.72,1.04h-.97c-.78-.3-1.66-.49-2.65-.5-.7-.02-1.42.18-2.09.5h-3.78c.64-.36,1.22-.71,1.74-1.04M34.94,14.95h3.76c-.54.29-1.05.66-1.48,1.04h-4.36c.74-.34,1.43-.69,2.08-1.04M32.54,16.13h4.52c-.33.31-.61.63-.82.92-1.02-.87-2.07-.72-2.91.13h-3.46c.94-.32,1.83-.67,2.67-1.04M27.19,17.95c.77-.19,1.52-.4,2.23-.63h3.77c-.14.16-.28.34-.4.54.63-.04,1.37.09,1.74.5h-7.35c0-.14,0-.27,0-.41M27.2,18.5h7.46c.09.14.15.31.15.51v.53h-7.57c-.02-.35-.03-.69-.03-1.04M27.24,19.69h7.56v1.04h-7.49c-.03-.34-.05-.69-.07-1.04M27.32,20.88h7.48v1.04h-7.37c-.04-.34-.08-.69-.11-1.04M27.45,22.07h7.35v1.04h-7.2c-.06-.34-.11-.69-.15-1.04M27.63,23.25h7.17v.66l-.39.38h-6.59c-.07-.34-.13-.69-.19-1.04M27.85,24.44h6.41l-.47.46.59.56h-6.3c-.08-.34-.16-.68-.23-1.02M28.12,25.61h6.42l.26.25v.81h-6.39c-.1-.35-.2-.7-.29-1.06M28.45,26.81h6.35v1.04h-6.03c-.11-.34-.22-.69-.33-1.04M28.82,28h5.98v1.04h-5.6c-.13-.34-.26-.69-.38-1.04M29.26,29.19h5.54v1.04h-5.12c-.15-.34-.29-.69-.42-1.04M29.74,30.37h5.06v1.04h-4.58c-.16-.34-.32-.69-.48-1.04M30.29,31.56h4.51v1.04h-3.98c-.18-.34-.36-.68-.53-1.04M30.9,32.74h3.9v.98s0,.02,0,.04h-3.33c-.19-.33-.38-.67-.57-1.01M31.56,33.91h3.23c-.03.45-.16.79-.36,1.04h-2.22c-.22-.33-.43-.68-.65-1.04M32.3,35.09h1.98c-.25.22-.56.35-.89.39.17.27.34.48.52.65h-.9c-.24-.34-.48-.68-.71-1.04M33.12,36.28h.96c.58.47,1.22.53,1.84.27.05.27.12.53.23.77h-2.25c-.26-.33-.52-.68-.78-1.04M34.02,37.46h2.21c.19.4.44.75.75,1.04h-2.09c-.29-.33-.57-.68-.87-1.04M40.01,43.22c-.19-.12-.69-.47-1.38-1.04h2.76c-.7.57-1.2.92-1.37,1.04M41.56,42.04h-3.11c-.35-.29-.75-.64-1.17-1.04h5.47c-.43.4-.83.74-1.18,1.04M42.9,40.85h-5.78c-.33-.31-.67-.65-1.03-1.02h7.84c-.36.37-.7.71-1.03,1.02M44.08,39.69h-8.12c-.31-.32-.63-.67-.95-1.04h2.14c.88.73,2.11.98,3.3.42-.24-.13-.46-.27-.65-.42h5.23c-.32.37-.64.72-.95,1.04M45.16,38.51h-5.53c-.35-.31-.63-.65-.84-1.04h7.24c-.29.36-.58.71-.87,1.04M46.15,37.32h-7.44c-.16-.32-.28-.67-.37-1.04h8.59c-.26.36-.52.71-.78,1.04M47.04,36.13h-8.73c-.07-.33-.12-.68-.15-1.04h9.59c-.24.36-.48.71-.72,1.04M47.85,34.94h-9.7c-.02-.33-.03-.68-.03-1.04h10.38c-.21.36-.43.7-.65,1.04M48.58,33.76h-10.46s0-.06,0-.1v-.92h11.04c-.19.35-.38.68-.57,1.01M49.23,32.6h-11.11v-1.04h11.64c-.17.35-.35.7-.53,1.04M49.83,31.41h-11.71v-1.04h12.19c-.15.36-.31.7-.47,1.04M50.37,30.23h-12.25v-1.04h2.41c.81.36,1.87.43,3.2,0h7.06c-.13.35-.27.7-.42,1.04M50.85,29.04h-6.71c.62-.25,1.18-.61,1.66-1.04h5.42c-.12.35-.24.7-.37,1.04M51.27,27.85h-5.31c.32-.31.6-.66.85-1.04h4.78c-.1.35-.21.7-.32,1.04M51.63,26.67h-4.73c.21-.33.39-.69.55-1.06h4.46c-.09.36-.18.71-.28,1.06M51.95,25.46h-4.44c.13-.33.24-.67.33-1.02h4.33c-.07.35-.15.69-.23,1.02M52.21,24.29h-4.32c.08-.34.15-.69.19-1.04h4.32c-.06.35-.12.7-.19,1.04M52.42,23.1h-4.33c.04-.34.06-.69.06-1.04h4.42c-.04.35-.09.7-.15,1.04M52.59,21.92h-4.44c0-.35-.03-.7-.07-1.04h4.61c-.03.35-.07.7-.11,1.04M52.71,20.73h-4.65c-.05-.35-.12-.7-.2-1.04h4.92c-.02.35-.04.7-.07,1.04M52.78,19.55h-4.97c-.1-.36-.22-.71-.37-1.04h5.37c0,.35-.01.7-.03,1.04M47.38,18.36h0c-.16-.36-.35-.71-.57-1.04h3.72c.73.23,1.49.44,2.28.63,0,.14,0,.27,0,.41h-5.43Z" fill="#2a2c2b"/>
</svg>