<?xml version="1.0" encoding="UTF-8"?>
<svg id="Layer_1" xmlns="http://www.w3.org/2000/svg" version="1.1" viewBox="0 0 80 80">
  <!-- Generator: Adobe Illustrator 30.3.0, SVG Export Plug-In . SVG Version: 2.1.3 Build 182)  -->
  <path d="M39.91,45.28v-6.82h-2.33l-1.51,4.55-1.52-4.66h-2.21v7.11h1.52v-4.43l1.53,4.24c.22.36.96.16,1.37.18l1.53-4.3v3.91s.14.4.19.41c.25-.03,1.44.1,1.44-.18Z" fill="#2a2c2b"/>
  <path d="M50.02,38.26c-3.96.62-3.76,8.05,1.46,7.29,4.08-.6,3.63-8.08-1.46-7.29ZM48.88,41.78c.02-.73.45-1.95,1.26-2.13,1.63-.37,2.47.74,2.49,2.25.04,3.08-3.84,3.24-3.75-.12Z" fill="#2a2c2b"/>
  <path d="M23.05,43.22c-.34.87-1.02,1.12-1.93.93-1.92-.4-1.83-5.15.97-4.47.75.18.93,1.04,1.11,1.1.34.12,1.05-.05,1.44.01-.23-2.86-4.08-3.4-5.69-1.32-1.35,1.74-.93,4.93,1.23,5.84,2.15.91,4.38-.31,4.58-2.65h-1.63s-.01.39-.08.56Z" fill="#2a2c2b"/>
  <path d="M31.75,45.46l-2.51-6.99c-.21-.26-1.16-.05-1.52-.12l-2.73,7.12c.38-.07,1.22.12,1.52-.06.3-.18.34-1.34.65-1.44.38.02,2.38-.12,2.5.05.18.26.3,1.11.45,1.45h1.63ZM27.44,42.66c.25-.28.75-2.41.88-2.45.24-.07.16.13.2.26.28.72.42,1.5.79,2.19h-1.87Z" fill="#2a2c2b"/>
  <path d="M44.97,38.48c-1.2-.16-2.57.06-3.78-.01v6.99h1.52v-2.56h2.39c.13,0,.62-.3.76-.4,1.41-1.08,1.03-3.75-.89-4.01ZM42.71,41.73v-2.1h1.69c.17,0,.67.35.73.55.5,1.69-1.29,1.62-2.42,1.55Z" fill="#2a2c2b"/>
  <path d="M36.89,33.16c.89-1.09-.04-2.13-1.23-2.28-.7-.09-1.7,0-2.45,0-.01,0-.17.16-.17.17v5.25s.16.17.17.17h2.56c.33,0,1.12-.35,1.34-.64.52-.66.31-2.17-.7-2.28.06-.19.3-.2.47-.4ZM36.34,35.77c-.1.05-.73.25-.8.25h-1.75s-.17-.16-.17-.17v-2.04h2.16c.96,0,1.45,1.51.57,1.97ZM35.89,33.34h-2.27v-1.87c.69.08,1.62-.11,2.27,0,.42.07.75.58.75.99,0,.27-.53.87-.75.87Z" fill="#2a2c2b"/>
  <path d="M42.01,31.47c.04-.15-.02-.58-.17-.58h-3.67c-.05.21-.11.41-.12.64-.08,1.11.07,2.49.08,3.64,0,.23-.23,1.32.1,1.32h3.79v-.58h-3.26v-1.98h3.03v-.58h-3.03v-1.87h3.26Z" fill="#2a2c2b"/>
  <path d="M47.32,30.89h-2.16v5.6h2.39c.14,0,.84-.29,1.01-.39,1.52-.89,1.42-4.2-.25-4.91-.15-.06-.89-.29-.99-.29ZM48.72,35.09c-.15.28-.77.81-1.06.81h-1.92v-4.43c.53.05,1.18-.07,1.69,0,1.64.24,1.96,2.37,1.29,3.62Z" fill="#2a2c2b"/>
  <polygon points="54.13 31.47 54.13 30.89 50.4 30.89 50.4 36.48 54.13 36.48 54.13 35.9 50.99 35.9 50.99 33.92 53.9 33.92 53.9 33.34 50.99 33.34 50.99 31.47 54.13 31.47" fill="#2a2c2b"/>
  <path d="M22.43,35.96c.22-.23.75-1.22.69-1.51-.05-.21-.42-.25-.58-.13-.14.1-.29,1.29-1.07,1.61-2.06.84-3.19-1.76-2.41-3.45.47-1.02,1.69-1.47,2.66-.82.34.22.83,1.36,1.17,1.05.5-.44-.73-1.57-1.2-1.72-.43-.14-1.18-.14-1.63-.06-1.95.33-2.33,3.25-1.35,4.67.77,1.12,2.74,1.38,3.71.37Z" fill="#2a2c2b"/>
  <path d="M27.78,31.29c-.09.76-.07,2.6,0,3.38.17,1.67,1.76,2.32,3.23,1.71.38-.16,1.08-.89,1.08-1.25v-4.25h-.58v3.91c0,1.33-2.31,1.74-2.9.57-.06-.12-.25-.82-.25-.92v-3.56c-.43-.03-.54-.03-.59.4Z" fill="#2a2c2b"/>
  <polygon points="23.83 30.89 23.83 36.48 27.44 36.48 27.44 35.9 24.41 35.9 24.41 31.01 23.83 30.89" fill="#2a2c2b"/>
  <path d="M23.48,47.79h-1.87v2.16s.16.17.17.17h1.69c.13-.83-.6-.55-1.17-.58v-.35c.23-.08,1.06.19,1.05-.18,0-.57-.46-.39-.88-.41-.24,0-.21-.07-.17-.29.04-.25,1.52.32,1.17-.53Z" fill="#2a2c2b"/>
  <path d="M27.44,48.26c.46-.19.69.27.89.33.53.15.43-.52-.04-.77-1.02-.54-2.04.65-1.01,1.24.19.11.97.18.86.42-.27.57-.96-.4-1.4-.17.02,1.27,2.51,1.06,1.92-.23-.25-.55-1.14-.24-1.22-.82Z" fill="#2a2c2b"/>
  <path d="M52.83,47.7c-1.42.17-1.25,2.67.29,2.52,1.44-.14,1.37-2.72-.29-2.52ZM53.24,49.64c-.93.27-1.1-1.17-.54-1.36,1.04-.36,1.1,1.19.54,1.36Z" fill="#2a2c2b"/>
  <path d="M34.29,47.7c-1.4.2-1.24,2.64.29,2.52,1.52-.12,1.37-2.76-.29-2.52ZM34.2,49.6c-.79-.39-.06-1.98.67-1.31.55.51.13,1.7-.67,1.31Z" fill="#2a2c2b"/>
  <path d="M18.23,47.79v2.33c1.01.09,2.1.07,2.08-1.23-.02-1.2-1.17-1.18-2.08-1.11ZM19.66,49.28c-.15.34-.8.54-.96.38-.05-.05-.05-1.35,0-1.4.26-.25,1.32.18.96,1.02Z" fill="#2a2c2b"/>
  <path d="M46.79,47.79v1.69c0,.19-.51.27-.71.01-.25-.32-.04-1.27-.11-1.7h-.58v1.69c0,.65,1.45.92,1.87.36.35-.47.12-.86.1-1.29-.02-.53.42-.81-.58-.75Z" fill="#2a2c2b"/>
  <path d="M42.73,47.81c-.1.06-.76,2-.83,2.31.77.23.51-.42.87-.47,1.08-.14.37.65,1.34.47.08-.08-.59-1.98-.71-2.15-.13-.18-.48-.28-.67-.17ZM42.71,49.19l.23-.7.35.7h-.58Z" fill="#2a2c2b"/>
  <path d="M31.21,47.81c-.1-.04-.41-.06-.49,0-.1.07-.73,2.01-.83,2.32.76.19.6-.34.71-.45.06-.06.7-.04.81.03.18.13-.08.6.69.41.11-.1-.65-2.22-.89-2.31ZM31.29,49.19h-.58s.23-.7.23-.7c.21,0,.39.66.35.7Z" fill="#2a2c2b"/>
  <path d="M39.1,47.79v2.33h.58c.03-.16-.04-.78,0-.82.1-.1.99.29,1.23-.46.4-1.27-.98-1.08-1.81-1.05ZM39.68,48.84v-.58c.97-.13.95.72,0,.58Z" fill="#2a2c2b"/>
  <path d="M49.47,49.54v-1.75h-.58v2.33h1.75c.3-.88-1.17-.5-1.17-.58Z" fill="#2a2c2b"/>
  <path d="M30.66,47.1c-.19.05-.26.39-.19.46.03.03.27-.1.39-.08.33.04.74.42.77-.38-.32.21-.73-.06-.97,0Z" fill="#2a2c2b"/>
  <path d="M39.1,23.84c-.06.48-.82,1.39.05,1.46,1.1.1,4.34-1.85,5.58-2.36,2.38-.98,5.19-1.79,7.77-1.5.16-.14-.61-.65-.73-.73-2.92-1.97-7.68-2.35-11.1-2.31-.33,0-1.3-.32-1.52,0-.21.3.06,4.59-.05,5.43Z" fill="#2a2c2b"/>
  <path d="M21.25,18.72l8.83,12.28c.34.22.73-.1.6-.49l-8.61-11.92c.21-.1.59.17.78.27,2.21,1.26,4.42,4.03,5.42,6.35l.91,2.41v-11.54c-2.51.2-4.93,1.13-7.34,1.75.12-1.33-1.76-1.29-1.74-.17.02.81.76.67,1.14,1.06Z" fill="#2a2c2b"/>
  <path d="M30.22,28.25c1.61-2.11,5.03-5.52,8.01-5.18.3.03.37.23.64.24v-5.54c0-.45-.77-1.09-1.13-1.32-2.3-1.43-5.53-.88-8.08-.61v12.82c.17.03.48-.32.56-.42ZM34.01,16.21c1.9,0,3.44,1.54,3.44,3.44s-1.54,3.44-3.44,3.44-3.44-1.54-3.44-3.44,1.54-3.44,3.44-3.44Z" fill="#2a2c2b"/>
  <path d="M34.02,22.8c1.73,0,3.13-1.4,3.13-3.13s-1.4-3.13-3.13-3.13-3.13,1.4-3.13,3.13,1.4,3.13,3.13,3.13ZM31.58,20.87c-.65-.73-.21-2.62.52-3.22.29-.24.3-.15.59-.05-.02-.65,1.15-.73,1.66-.67.23.03,1.34.32,1.02.67-.05.06-.74-.32-.99-.35-.2-.02-1.24,0-1.23.18l.99,1.68c.27-.14,1.9-1.3,2.04-1.16.04.21-.1.29-.24.4-.12.09-.36.27-.51.37.26-.13.99-.09,1.2.24.58.97-1.4,1.36-1.49,1.73-.04.17.73.93.58,1.1-.12.13-.63-.49-.7-.58.03.05.01.62-.02.74-.15.49-1.18.55-1.61.43-.06-.44.66-.13,1.05-.29.15-.06.4-.33.3-.52-.52-1.04-1.65,1.15-2.45.23-.31-.36-.16-.69.05-1.04-.23.09-.59.31-.76.12Z" fill="#2a2c2b"/>
  <path d="M35.43,18.72s-.05.03-.06.04c.02-.01.04-.03.06-.04Z" fill="#2a2c2b"/>
  <path d="M32.77,20.6c.06-.05.01-.19.03-.2-.26.09-.18.06-.35.23.06-.02.22.06.32-.03Z" fill="#2a2c2b"/>
  <path d="M34.94,19.24c.12-.08.07-.23.08-.24-.35.2-.83.33-1.17.47,0,.12-.06.25-.12.35.16-.01.48.16.35.35-.15.22-2.03.76-1.58,1.41.73.37,1.2-.71,1.98-.59.05,0,.52.21.53.23-.11-.16-.84-1.48-.82-1.57.24-.15.51-.25.75-.41Z" fill="#2a2c2b"/>
  <path d="M33.04,18.07c-.17-.25.12-.3-.35-.47.01.56.33.44.35.47Z" fill="#2a2c2b"/>
  <path d="M35.36,18.99s0-.2.01-.22c-.08.05-.32.22-.35.23.05-.03.27.05.34-.01Z" fill="#2a2c2b"/>
  <path d="M33.1,18.88c-.29-.13-.51-1.12-.88-.88-.1.07-.52.81-.55.96-.07.33-.2,1.65.33,1.5.38-.11,1.03-.75,1.43-.91.17-.07.35-.06.43-.09,0-.49-.38-.72-.58-1.05.02.02.1.57-.17.47Z" fill="#2a2c2b"/>
  <path d="M33.05,18.41s.21,0,.22.01c-.1-.16-.14-.22-.23-.35.03.05-.05.27.01.34Z" fill="#2a2c2b"/>
  <path d="M33.65,19.91s-.02.02-.03.02c0,0,.02-.01.03-.02Z" fill="#2a2c2b"/>
  <path d="M33.74,19.81s-.06.06-.09.09c.03-.03.07-.06.09-.09Z" fill="#2a2c2b"/>
  <path d="M32.45,20.63s-.08.05-.12.12c.05-.02.09-.1.12-.12Z" fill="#2a2c2b"/>
  <path d="M33.39,20.05c.06-.04.13-.03.23-.12-.09.04-.15.05-.23.12Z" fill="#2a2c2b"/>
  <path d="M33.15,20.16c-.16.09-.16.02-.35.23.53-.18.25-.16.35-.23Z" fill="#2a2c2b"/>
  <path d="M33.15,20.16s.14-.05.23-.12c-.06.04-.15.07-.23.12Z" fill="#2a2c2b"/>
  <path d="M35.06,20.39c.21-.02,1.44-.85,1.35-1.19-.21-.83-1.4.51-1.85.5-.06.09.3.71.5.69Z" fill="#2a2c2b"/>
</svg>