<?xml version="1.0" encoding="UTF-8"?>
<svg id="Layer_1" xmlns="http://www.w3.org/2000/svg" version="1.1" viewBox="0 0 124.2 25.97">
  <!-- Generator: Adobe Illustrator 30.4.0, SVG Export Plug-In . SVG Version: 2.1.4 Build 226)  -->
  <g>
    <path d="M58.12,22.88c-.91,0-1.58-.71-1.58-1.62s.66-1.63,1.59-1.63c.57,0,.91.2,1.23.5l-.24.26c-.26-.25-.56-.43-.99-.43-.7,0-1.22.56-1.22,1.29s.53,1.3,1.22,1.3c.43,0,.71-.17,1.01-.45l.23.23c-.33.33-.69.55-1.26.55Z" fill="#05185c"/>
    <path d="M60.9,19.68h.35v2.81h1.77v.33h-2.12v-3.14Z" fill="#05185c"/>
    <path d="M67.05,21.48c0,.92-.53,1.39-1.31,1.39s-1.31-.48-1.31-1.36v-1.83h.35v1.8c0,.68.36,1.06.96,1.06s.95-.35.95-1.04v-1.83h.35v1.8Z" fill="#05185c"/>
    <path d="M71.15,20.47c0,.41-.25.62-.5.73.37.11.67.33.67.76,0,.54-.45.86-1.14.86h-1.4v-3.14h1.34c.62,0,1.02.31,1.02.79ZM70.79,20.52c0-.31-.25-.52-.7-.52h-.96v1.08h.93c.43,0,.72-.19.72-.57ZM70.97,21.94c0-.35-.29-.54-.84-.54h-.99v1.11h1.05c.48,0,.77-.21.77-.57Z" fill="#05185c"/>
  </g>
  <g>
    <path d="M40.46,6.56s-.03.02-.04.02c.01,0,.03-.01.04-.02Z" fill="#05185c"/>
    <path d="M40.42,6.58s0,0,0,0c0,0,0,0,0,0Z" fill="#05185c"/>
    <path d="M46.83,8.36c-.05-.05-.32-.24-.37-.26-.13-.05.1.14.12.15.03.02.07.03.11.07,0,0,.01.02.02.02.02.02.03.04.04.04.08.06.14.09.22.13-.05-.05-.09-.11-.14-.15Z" fill="#05185c"/>
    <path d="M41.34,5.7s-.03.01-.04.02c.01,0,.03-.01.04-.02Z" fill="#05185c"/>
    <path d="M41.3,5.72s0,0,0,0c0,0,0,0,0,0Z" fill="#05185c"/>
    <path d="M44.54,6.14c-.18.05-.49.1-.67.11v.02c.49.02.62-.09,1.03-.22,0-.02.02-.04.04-.04,0,0,.01,0,.02,0,0,0,.02,0,.02,0,.2-.21.55-.08.77-.24,0,0-.04-.02-.07-.02-.11,0-.22.09-.34.06l.22-.08.07-.05s-.08.01-.13.02c-.37.09-.61.34-.96.44Z" fill="#05185c"/>
    <path d="M41.89,3.5s.02-.04.02-.04c-.01.01-.02.03-.02.04Z" fill="#05185c"/>
    <path d="M43.65,1.92s.01-.01.02-.02c0,0-.01.01-.02.02Z" fill="#05185c"/>
    <path d="M46.77,2.32s.03,0,.02-.02c-.03.01-.02.02-.02.02Z" fill="#05185c"/>
    <path d="M39.53,6.27s-.04,0-.07.01c-.01,0-.02.03-.02.03.02,0,.04,0,.07-.01.01,0,.02-.03.02-.03Z" fill="#05185c"/>
    <path d="M46.75,2.35s.02-.02.02-.03c-.01,0-.04,0-.04,0,0,0-.01.03-.02.04.01,0,.03,0,.04-.01Z" fill="#05185c"/>
    <path d="M41.91,3.46s.02-.01.02-.02c0,0-.02.01-.02.02Z" fill="#05185c"/>
    <path d="M38.83,6.58s0,0,0,0c0,0,0,0,0,0Z" fill="#05185c"/>
    <path d="M38.83,6.58s-.03.02-.04.02c.02,0,.03-.01.04-.02Z" fill="#05185c"/>
    <path d="M41.93,3.44s.02,0,.02-.01h-.02s0,0,0,.01Z" fill="#05185c"/>
    <path d="M46.99,11.29s0,.02.02.04c0-.01,0-.03-.02-.04Z" fill="#05185c"/>
    <path d="M48.24,8.47s-.05,0-.04.01c0,.02.04,0,.04.01,0,0,0-.02,0-.02Z" fill="#05185c"/>
    <path d="M44.48,3.35s-.07.01-.09.03c.01.02.07,0,.09-.01,0,0,0-.01,0-.02Z" fill="#05185c"/>
    <path d="M46.7,2.36s-.03,0-.04,0c-.02.02-.03.05-.04.07.02,0,.07,0,.08-.03.01-.01,0-.03,0-.04Z" fill="#05185c"/>
    <path d="M46.97,8.52s0,.05.04.08c.03.02.06.03.07.03-.04-.04,0-.06-.11-.11Z" fill="#05185c"/>
    <path d="M46.55,2.4s0,0,.01-.01c0,0,0,0-.01.01Z" fill="#05185c"/>
    <path d="M46.56,2.39s0,0,.01,0c0,0,0,0-.01,0Z" fill="#05185c"/>
    <path d="M46.55,2.4s0,0,0,0c0,0,0,0,0,0Z" fill="#05185c"/>
    <path d="M46.54,2.41s-.03.01-.06.04c0,0,.04-.03.06-.04Z" fill="#05185c"/>
    <path d="M46.62,2.43c-.1.04-.05.05-.09.09.04-.04.04-.03.09-.09Z" fill="#05185c"/>
    <path d="M36.02,7.07s.03-.04.05-.05c.31-.17,1.03-.3,1.41-.44,1.25-.45,2.49-1.17,3.58-1.92.11-.07.21-.12.3-.18.05-.03.33-.37.39-.44.17-.21.32-.44.48-.66,0-.03,0-.04-.03-.03-.05.02-.28.36-.34.43-.03.04-.09.07-.12.14,0-.13.08-.3.14-.42,0,0-.03,0-.04.01-.11.15-.15.42-.27.59-.01.02-.06.06-.08.08.03-.06.03-.12.04-.18-.02.04-.07.08-.07.13l-.02-.04s-.17.28-.19.31c-.11.15-.28.23-.43.33-.04.02-.07.03-.09.04-.05.03-.09.07-.15.11-.06.04-.07.06-.15.09-.05.07-.15.11-.22.15-.2.13-.39.24-.59.35-.21.12-.88.53-1.08.55-.24.18-.54.26-.81.37-.04.02-.07.03-.11.04-.31.12-.56.21-.88.31-.07.02-.15.04-.22.07-.17.05-.42.16-.59.19-.1.02-.2-.02-.29.03.2,0,.33.03.53.11-.04-.06-.04-.1-.15-.09Z" fill="#05185c"/>
    <path d="M44.53,3.35s.02-.05,0-.05c.48-.17.72-.23,1.25-.23.14,0,.5-.2.57-.31.01-.02,0-.05.01-.06-.04.03-.28.22-.31.2,0,0,0-.04,0-.04-.03-.03-.23.1-.28.11-.13.02-.35,0-.5.03-.25.03-.5.11-.74.19-.36.12-.74.25-1.07.44-.03.02-.06-.01-.05.05l.67-.29s-.1.12-.14.14c-.35.23-.87.25-1.18.61l-.15.2c.26-.27.58-.44.93-.57.24-.09.53-.12.73-.29-.03,0-.37.15-.24.03.13-.11.33-.14.48-.19,0,0-.02.04-.02.04.01,0,.03,0,.04,0ZM46.01,2.89s.01.01,0,.02v-.02ZM45.97,2.91s-.03.06-.03.03l.03-.03ZM44.12,3.37v-.02s.01.01,0,.02Z" fill="#05185c"/>
    <path d="M46.48,2.46s0,0,0,0c0,0,0,0,0,0Z" fill="#05185c"/>
    <path d="M46.46,2.47s0,0,.01-.01c0,0,0,0-.01.01Z" fill="#05185c"/>
    <path d="M40.92,5.26s-.05-.01-.04.01c0,.02.04,0,.04.01,0,0,0-.02,0-.02Z" fill="#05185c"/>
    <path d="M40.96,5.26s0-.02,0-.02c0,0-.03.01-.04.02,0,0,.03,0,.04,0Z" fill="#05185c"/>
    <path d="M49.46,14.17s-.04.01-.05.03c-.05.17.38.3.5.33.16.04.58.14.55-.12-.13,0-.3.02-.43-.02-.02,0-.01-.02-.01-.02-.12-.01-.18-.02-.3-.07-.07-.03-.22-.13-.27-.13Z" fill="#05185c"/>
    <path d="M36.4,8.58s.12.03.12.11c.1-.05-.04-.08-.08-.1-.05-.02-.05-.03,0-.03.48.27,1.07.4,1.62.3.04,0,.25-.05.26-.06.01,0,0-.04,0-.04-.43.12-.88.12-1.31,0-.21-.06-.42-.15-.6-.24,0,.01-.02.05-.01.07Z" fill="#05185c"/>
    <path d="M47.54,16.9h.15s-.09-.09-.13-.09c0,.03-.03.05-.02.09Z" fill="#05185c"/>
    <path d="M44.84,11.78s0,0,0,.01c0,0,0,0,0-.01Z" fill="#05185c"/>
    <path d="M42.68,4.01s.04-.04.04-.04c0,0-.09,0-.04.04Z" fill="#05185c"/>
    <path d="M47.94,7.95v.02s.06.03.09.04c-.03-.08-.03-.03-.09-.07Z" fill="#05185c"/>
    <path d="M50.03,13.11s-.04-.08-.07-.13c-.08-.16-.1-.24-.15-.4,0-.02-.03-.05-.04-.09-.04-.09-.06-.2-.09-.29-.02-.05-.05-.1-.07-.15-.11-.27-.2-.46-.3-.75-.03-.09-.06-.04-.09.02-.2.47-.4.86-.7,1.28-.06.09-.27.3-.3.38-.01.03,0,.04.03.03.07-.03.26-.28.32-.35.03-.03.05-.08.07-.1.03-.03.09-.03.11-.09,0,.08-.09.14-.12.2-.05.07-.08.15-.12.22-.07.11-.19.23-.18.38.11-.12.22-.25.32-.38.02-.03.1-.22.12-.11-.1.21-.22.4-.33.61-.02.04-.05.08-.07.11-.01.02-.02.06-.03.09-.03.06-.12.18-.14.23-.05.12.14-.09.15-.11.11-.17.22-.3.33-.47.1-.14.18-.31.3-.44-.03.17-.17.3-.25.44-.13.21-.25.43-.39.64-.05.07-.18.24-.21.3-.01.03,0,.04.03.03.05-.02.24-.33.3-.4.03-.04.09-.08.13-.13.03-.03.04-.12.11-.11.03.03-.08.11-.09.13-.07.12-.47.73-.48.8,0,.02,0,.04,0,.05.03.04.22-.31.23-.33.06-.07.12-.11.19-.2,0-.01,0-.05.02-.07l.24-.26-.08.15c-.04.07-.12.14-.16.2-.09.13-.12.21-.23.35-.05.06-.11.19-.16.24-.02.02-.02.03-.05.02-.06-.28-.85-.59-.91-.75-.04-.09.24-.31.3-.37.06-.06.12-.12.18-.18.01-.01.02-.05.04-.08.05-.06.18-.15.18-.22,0-.02-.02-.03-.02-.04l-.2.13-.02-.2v.11s-.04-.07-.04-.07c-.02.1.09.26-.07.29,0-.23.06-.45.04-.68l.04.33c.06-.03,0-.16,0-.19v-1.04l.13.85v.47s.09-.03.11-.04c.34-.17,1.19-1.28,1.21-1.66,0-.03-.02-.07-.02-.1.04,0,.08,0,.11,0l.02-.15.02.18c.03-.08.04-.2.04-.29,0,0-.02-.02-.02-.05,0-.05.06-.1.04-.17.04,0,.05.08.04.11v.44c.07.02.04-.06.04-.11,0-.01,0-.03,0-.04,0-.07,0-.13,0-.2l.04.04s0-.06,0-.09c0-.09-.08-.35-.06-.4,0-.01.03-.03.03-.02,0,.12.01.26.07.37l-.02-.7s.03.04.03.07c.03.11.07.28.03.38h.07s.02.01.02.01c0-.02,0-.04,0-.07,0,0,.03.02.04.02,0-.01,0-.03,0-.04-.05-.16-.08-.27-.11-.44-.02-.1-.06-.2-.04-.31.09.07.11.2.13.31,0,.04.02.09.02.13h.04s-.01-.07-.02-.11c-.02-.07-.03-.17-.06-.24-.03-.07-.1-.12-.12-.2.19.03.26.27.24.44.04,0,.02-.05.02-.08,0-.05,0-.11,0-.17.06.02.04.13.04.18.04,0,.02-.1.02-.12-.02-.15-.14-.25-.17-.38-.01-.04.03-.04.04-.03,0,0,.05.14.09.12l-.15-.36s.16.21.17.23c.07.15.11.32.18.47,0-.07,0-.15-.02-.22,0-.01,0-.03,0-.04,0-.02-.05-.12-.07-.15-.07-.17-.2-.3-.22-.48.02.01.06.02.07.02,0,0,0-.04-.02-.06-.08-.09-.15-.15-.13-.3.14.08.16.25.22.39,0,.02-.03,0-.04-.01.08.09.14.21.24.29-.02-.04-.03-.07-.04-.11-.01-.03-.03-.06-.04-.09-.03-.07-.14-.24-.13-.3,0-.02.04-.01.04-.01-.03-.03-.19-.28-.24-.35-.03-.04-.08-.08-.11-.12.05,0,.1.07.13.1.02.02.04.03.07.04.03-.04.03-.07.07-.02,0,.01.1.19.13.15,0-.01-.09-.22-.11-.24-.08-.13-.23-.24-.24-.41.04-.05.04,0,.05.02.08.1.13.23.19.35.02-.07.02-.08-.02-.15.05,0,.08.05.09.09.01,0,.03,0,.04,0-.04-.02-.07-.11-.09-.13-.06-.07-.1-.04-.15-.18-.02-.04-.02-.1-.05-.16-.02-.05-.08-.09-.09-.13-.02-.1.11.06.13.08h.02s-.02-.09-.02-.09c.01-.03.09.12.07.15.05.06.09.13.14.21.02.03.04.1.04.1.06.06.03-.06.02-.09,0-.02-.02-.05-.02-.07-.03-.07-.07-.14-.11-.22,0-.02-.03-.04-.04-.07-.01-.02-.01-.05-.02-.07-.03-.07-.08-.13-.09-.21-.01-.06.02-.01.04-.01.02,0,.04,0,.07,0-.1-.22-.27-.36-.29-.62.15.18.24.41.35.62.03,0,.03-.05.02-.07-.01-.04-.06-.09-.04-.15-.03,0-.03-.03-.04-.04-.04-.06-.07-.15-.1-.21-.04-.08-.06-.13-.09-.2-.05-.11-.12-.23-.13-.35l.2.33c.09.08.14.19.25.24-.03-.07-.08-.15-.12-.22-.01-.02-.03-.04-.04-.07-.03-.05-.06-.1-.09-.15,0-.01-.01-.03-.02-.04-.03-.06-.06-.12-.09-.18,0,0-.03.01-.04-.02-.01-.03-.02-.1-.02-.14l.09.11s.03,0,.04,0c-.01-.03-.08-.23-.07-.24,0,0,.05,0,.07,0-.03-.06-.2-.37-.18-.4.11.03.17.22.26.26-.02-.03-.02-.08-.04-.11-.01-.02-.05-.06-.07-.09-.04-.06-.11-.11-.13-.19.05-.04.09.06.12.08.06.02.02-.04.01-.07-.02-.03-.05-.06-.07-.09-.03-.04-.06-.09-.09-.13-.03-.05-.14-.1-.13-.2.11-.01.17.09.24.13.02,0,.05,0,.07.02-.02-.02-.03-.05-.04-.07-.05-.06-.2-.1-.2-.18,0-.03.02-.03.02-.04.06-.15.22-.23.33-.33.04-.04.08-.06.11-.09.12-.1.25-.26.35-.37.02-.02.03-.03.04-.04.06-.07.14-.17.2-.24.01-.02.03-.04.04-.07.04-.06.1-.14.13-.2.01-.02.03-.06.04-.09.07-.12.19-.3.24-.42,0-.01,0-.04.02-.07.03-.07.08-.17.11-.24.01-.03.03-.08.04-.11.02-.06.04-.13.07-.2.01-.04.03-.08.04-.11,0-.03,0-.08.02-.13.01-.04.04-.08.04-.11,0-.02.01-.13.02-.18,0-.01,0-.03,0-.04.02-.08.05-.18.07-.26,0-.06.02-.14.02-.2,0-.06.02-.14.02-.2,0-.04,0-.09,0-.13,0-.04-.01-.18-.02-.22,0,0-.06-.17-.07-.18-.03-.04-.14-.09-.18-.13-.23,0-.41-.02-.64.04-.14.04-.3.11-.45.15-.42.11-.84.16-1.24.35-.14.07-.34.25-.51.26-.03.08-.13.08-.18.11-.02.01-.04.03-.07.04-.44.25-.79.33-1.25.47-.05.02-.1.09-.17.08.02.06-.09.15-.15.14.09-.04.08-.1.15-.16.08-.07.18-.09.24-.18-.15-.01-.31.17-.41.2-.07.02,0-.09.01-.11l-.2.11-.11.08s.08-.07.11-.1c0-.01.01-.03.02-.04l-.02-.02s-.05.01-.07.02c0,0-.01.02-.02.02,0,0-.01.02-.02.02-.02.01-.03.02-.04.02-.01.03.01.06-.07.06.02-.07.05-.05.07-.06,0-.02.01-.04.02-.07l-.11.02c0-.07.09-.07.11-.12.01-.03,0-.04-.03-.03-.05.02-.13.11-.18.15-.02.02-.05.02-.05.02,0,0,0,.09-.04.04-.05-.05.04-.04.04-.04.06-.07.15-.17.2-.24-.1.03-.18.08-.26.13-.02.01-.07.08-.1.08-.03,0-.05-.04-.07-.03-.02,0-.13.11-.17.14-.16.11-.37.27-.54.36-.02.01-.09.05-.11.02,0-.04.04-.05.06-.07.12-.09.61-.44.71-.48.1-.04.08,0,.22-.1.07-.05.18-.1.2-.2-.01-.01-.26.19-.32.21-.02,0-.03,0-.05,0,0,0,.04-.06.04-.07-.02-.05-.06,0-.08.02-.2.18-.46.34-.71.44l.07.02c-.2.15-.49.2-.72.3-.25.11-.47.32-.73.4,0,.04.09.02.11.01.12-.04.81-.47.86-.43-.17.13-.39.22-.58.33-.16.1-.29.25-.48.29.06-.04.12-.1.14-.16-.11.05-.2.1-.3.17-.41.28-.6.6-.95.92-.39.36-.85.68-1.25,1,.01,0,.03,0,.04,0-.01,0-.03.02-.04.02,0,0-.01.03-.04.02,0,0-.02.05.03.05.01,0,.16-.06.17-.07.04-.04-.04-.05-.07-.04-.01,0-.03.01-.04.02.01,0,.02-.02.04-.02.02,0,.06-.06.1-.07.02,0-.05.09.02.07.02,0,.31-.16.32-.18.01-.01,0-.05-.03-.04-.05.01-.18.16-.17.04l.91-.73s0,.05-.02.07c-.17.2-.4.38-.6.54,0,.04,0,.04.04.02.38-.21.59-.58.87-.89.09-.1.58-.6.65-.63.2-.07.42-.18.62-.3.02-.01.03-.05.07-.06.04-.01.04.03.03.04-.02.02-.2.08-.25.11-.09.06-.2.21-.29.28-.17.14-.36.26-.51.42l.02-.09c-.07.03-.09.1-.12.13.03-.03.12-.02.16-.05.25-.14.56-.48.8-.65.17-.12.82-.54.99-.55.07,0,.12.02.21,0,.12-.02.27-.13.4-.13.03.02-.04.05-.05.06-.05.02-.25.07-.26.08-.05.04.06.04.04.07l-.13.07c.25-.07.53-.17.8-.15.02,0,.12.01.12.04-.38.09-.8.07-1.16.26.03-.1-.1,0-.13.03-.02.01-.07.04-.05.06.04-.03.09,0,.14,0,.21-.04.49-.19.7-.21.09,0,.22.03.33.02.18-.01.33-.09.48-.18,0,0,0,.06-.01.07.13-.07.17-.15.26-.24,0,0-.04,0-.06.01-.06.04-.43.26-.46.23.09-.11.26-.15.38-.22.09-.06.18-.16.27-.22.06-.04.17-.06.22-.13.07,0,.02.02,0,.04-.05.04-.09.08-.14.11.02-.01.06-.01.09-.02.04-.04.04-.03.07-.04,0,0,.05-.08.07-.02.31-.15.81-.39,1.14-.48.02-.02.04-.02.04-.02,0,0,0-.03,0-.04.01-.01.05,0,.06,0,.01,0,.03-.01.04-.02-.01,0-.02.01-.04.02-.02.01-.06.04-.07.04-.02.03-.02.02-.04.02-.02.01-.03.05-.04.07.15-.03.29-.16.42-.22v-.02s-.08,0-.11.02c-.01,0-.02.01-.03.02,0,0,.02-.01.03-.02.2-.11.42-.25.64-.33.09-.03.19-.07.29-.07l-.02-.04c.65-.06,1.25-.49,1.91-.4l-.18.04c.09,0,.24-.01.28.08.01.02,0,.06,0,.07,0,.02.05.04.06.08.02.08-.04.14-.04.17,0,.02.04,0,.04.01.04.04-.04.04-.04.06-.03.12.07.13-.15.12l.13.02c0,.17-.2.1-.32.11-.17.02-.39.07-.56.11-.06.03-.11.05-.15.07,0,0,.02-.04.05-.05.04-.02.07,0,.1-.02.12-.06.18-.06.3-.1.03-.01.41-.14.38-.16l-.37.02c-.08-.06.32-.12.35-.11,0-.04-.05-.02-.08-.02-.08,0-.15.03-.23.02l.26-.13-.22-.07c.13-.06.28-.06.42-.11-.09,0-.17-.03-.26-.02-.01,0-.24.08-.24.03.07-.04.16-.04.24-.05.03,0,.06-.02.09-.02-.08-.09-.24-.06-.35-.03-.25.05-.45.23-.7.28v.02l.31-.06c-.19.29-.2.38-.57.36v.04c.11,0,.26,0,.37-.02-.03.12-.25.13-.35.13l.08.02h.21c-.15.04-.29.05-.44.04v.02c.15.03.29.02.44.02-.08.08-.31.08-.42.07v.02c.15.02.27.04.42,0,0,0,.03-.01.04-.02,0,0-.02.01-.04.02-.19.1-.24.11-.46.15-.02,0-.05.02-.09.02-.13.02-.26.03-.4.02.06.07.29.05.38.04.13-.01.23-.09.36-.07-.05.08-.13.09-.22.09l.2.02c.08-.05.1,0,0,.02-.06.02-.14.02-.2.04,0,0,0,.02.03.02.14,0,.21-.04.34-.08-.1.12-.29.15-.44.17,0,.04.05.02.08.02.06,0,.13,0,.19,0-.22.17-.56.12-.82.13-.03,0-.08-.02-.08.02.29,0,.55.05.84-.02l-.18.09h.25c-.25.15-.56.1-.85.09,0,.02.11.04.12.04h.46s.06-.04.1-.02c-.18.17-.47.13-.69.15-.22.03-.43.07-.65.09l.21.02c.34-.08.68-.02,1.01-.13.07-.03.15-.07.22-.11-.07.21-.36.22-.54.29-.02,0-.02.04-.04.05-.19.06-.39.12-.59.13l.03-.07.11-.11c-.18.08-.26.22-.49.2l.18.02c-.04.06-.15.07-.22.07,0,.04.12.02.14.02.18-.03.46-.09.64-.13.08-.02.33-.14.37-.13.02,0-.01.07.12,0,.01.05-.07.08-.11.1-.63.33-1.04.19-1.68.12-.14-.01-.31.01-.45,0l.43.05c.43.11.89.09,1.32.06.08,0,.15-.03.23-.04-.12.13-.34.13-.51.15l.19.02.27-.04s-.04.03-.06.04c-.05.02-.12.04-.17.05-.42.05-.99-.13-1.43-.17-.07,0-.14,0-.21,0l.5.11.6.07s-.05.02-.08.02c-.12,0-.25.03-.37.02-.58-.03-1.23-.24-1.82-.27l-.08-.04.22-.02-.2-.07c.11,0,.22-.04.33-.04.17-.08.35-.11.52-.19.09-.04.18-.09.25-.16.03-.03.14-.13.12-.18-.07.09-.19.11-.27.17-.05.03-.08.08-.13.12-.27.18-.64.23-.96.25-.03,0-.14.02-.14-.02.14-.03.3-.02.44-.06.1-.03.3-.14.38-.2,0,0,.01-.01.02-.02,0,0,.01-.01.02-.02,0-.01,0-.03,0-.04-.09.07-.33.23-.44.26-.18.05-.37.01-.56.03-.31.03-.63.19-.94.26-.02.02-.03.01-.04.02,0,0,0,.03,0,.04-.01.02-.32.17-.37.2-.25.12-.5.18-.75.28-.59.25-.9.77-1.41,1.13,0,0,.04,0,.06-.01.16-.1.41-.27.53-.41.07-.08.13-.24.22-.32.13-.12.43-.25.59-.32.18-.08.36-.14.54-.21.5-.19,1.01-.41,1.55-.47.01.08-.14.05-.18.07l.07.04c-.09-.01-.59.06-.62.12l.04.03-.92.26.09.04c-.16.04-.36.04-.51.13.01,0,.03,0,.04,0,.05,0,.1.01.14-.02.02.03-.05.05-.08.07.1,0,.21-.04.31-.04.03,0,.06,0,.09,0,.02,0,.04,0,.07,0,.66-.18,1.36-.19,2.03-.06l.21.06c-.33-.02-.65-.06-.98-.04-.19,0-.37.06-.56.04l.22-.04-.19-.02c-.17.04-.35,0-.52.07.07,0,.15,0,.22,0,.03,0,.13,0,.13.01-.04.01-.09.03-.13.03-.16.02-.28.06-.44.09v.04c.23,0,.46,0,.68,0,.43,0,.89-.05,1.31-.02.18,0,.38.05.56.07h-1.47s.09.04.12.04c.19.02.39.01.57.02.22.01.43.01.65.02,0,.04-.05.02-.08.02-.12,0-.25,0-.38,0-.06,0-.12-.02-.17-.02-.17,0-.35,0-.52,0l.16.07c-.2-.03-.38-.08-.58-.11.08.06.19.1.29.11.06,0,.13-.03.11.04.07,0,.17.02.22.02,0,0,.02-.02.03-.02.05,0,.52-.05.52-.01l-.51.05v.04s-.04-.04-.04-.04c-.43.08-.79-.22-1.22-.24-.4-.02-1.02.25-1.31.53-.04.04-.09.1-.14.13-.03-.05.06-.1.08-.13.03-.04.06-.11.11-.15-.12.12-.16.12-.26.29-.03.04-.07.06-.07.11l.13-.08-.18.17s0-.07-.04-.07v-.02c.06,0,.1-.08.13-.13.15-.25.17-.32.42-.51-.2.1-.32.19-.45.37v-.11s-.03,0-.03,0c-.02.02-.04.02-.04.02-.24.24-.31.29-.6.49-.01,0-.08.02-.04.06.03.03.61-.35.65-.44l.02.07c-.21.19-.39.36-.65.49-.13.07-.27.1-.4.17-.28.14-.77.48-1.06.55-.05.01-.02-.02-.01-.04-.05-.03-.97.42-1.12.42,0-.02.05-.05.07-.07-.33.09-.66.22-.99.31-.42.13-.87.27-1.31.28l.21.02c.25-.02.49-.07.74-.11l-.09-.04c.06-.01.14-.01.2-.02-.03.01-.09.02-.09.04.17.02.32-.08.48-.11h-.18s-.04.02-.07.02c.02,0,.04-.01.07-.02.1-.03.21-.06.31-.09,0,0,0-.03.04-.04.03,0,.05,0,.07,0,0,0,0,.02,0,.02.02,0,.04-.01.07-.02-.02,0-.05,0-.06,0,.01,0,.05-.05.06,0,.83-.28,1.59-.44,2.4-.84-.02,0-.07.01-.07-.02.21-.09.39-.25.62-.29.02.02-.47.27-.51.29.04,0,.07,0,.11,0,.07-.04.11-.03.17-.06.02-.01.28-.17.29-.18.04-.05-.05-.03-.04-.07.03,0,.06.02.09.02.05,0,.27-.19.35-.22.05-.02.19-.05.2-.06,0,0,0-.03,0-.04h-.04s.03-.02.04-.02c0,0,.02-.04.03-.04.02.01-.01.04-.01.04,0,0,.05,0,.07,0,.02.08-.07.06-.09.07-.47.33-.98.7-1.52.98-.91.2-1.9.74-2.81.89-.12.02-.27.02-.39.02-.03,0-.08-.02-.08.02h.49l2.06-.55h-.19s-.08.02-.08-.02c.07,0,.14,0,.2-.03.58-.16,1.22-.4,1.75-.69.15-.08.71-.49.81-.51.01,0,.02,0,.03,0-.33.29-.73.55-1.12.76-.34.18-.59.22-.94.34-.07.02-.42.16-.43.2.11-.03.22-.04.33-.09-.04.04-.12.08-.18.11.18-.04.33-.12.5-.17.14-.04.31-.06.45-.1.16-.05.41-.21.56-.24.01,0,.04,0,.03.01-.31.16-.63.31-.96.43-.61.22-1.26.45-1.88.63-.54.15-1.09.27-1.65.3,0,.04.05.02.08.02.05,0,.1,0,.15,0,.25-.02.58-.07.83-.11.17-.03.33-.06.5-.1.11-.03.26-.09.36-.1.05,0,.06,0,0,.03-.14.06-.29.09-.44.13-.34.1-1.04.2-1.41.22-.15,0-.3,0-.45-.02l.23.09c.47.13.96.06,1.42-.07.22-.06.42-.16.63-.24-.11.1-.29.16-.43.21-.47.17-1.03.27-1.52.23,0,.03.07.04.1.05.37.09.91.09,1.29,0,.16-.04.31-.1.47-.14,0,.04-.04.04-.07.05-.12.05-.27.1-.39.13-.08.02-.31.08-.38.08-.08,0-.18-.04-.27-.02l.22.04c-.41.02-.79,0-1.17-.16-.13-.05-.27-.15-.4-.19-.05-.02,0,.03-.02.04l-.28-.11.23.16.52.26s0,.03,0,.04c.11,0,.21.05.32.06.08.01.18-.01.25,0v-.02c-.06,0-.14.02-.13-.07.4.04.75.03,1.14-.05.29-.06.44-.16.68-.25-.1,0-.15.1-.22-.02.18.07.34-.2.53-.13l-.31.15s.05,0,.09-.01c.12-.05.26-.1.37-.17v-.02s-.1.03-.11.02c-.03-.02.06-.07.09-.09-.16-.02,0-.02.04-.04.07-.03.14-.07.22-.11.01,0,.03-.01.04-.02.18-.08.33-.2.48-.26l.04-.11c-.44.12-.89.24-1.3.42h-.06c.42-.18.85-.34,1.3-.46.18-.05.31-.09.49-.14.06-.02.17-.03.25-.05.05-.02.12-.03.15-.08-.01,0-.06,0-.07-.01,0-.02.05,0,.07-.01,0,0,.01-.03.04-.04.04-.01.08-.02.12-.03.04-.01.09-.01.13-.02.07-.02.15-.04.22-.07,0,0-.03-.02-.07-.02-.1,0-.22.08-.33.09-.02,0-.08.02-.08-.02.15.01.27-.07.42-.1.25-.05.52-.05.77.01,0,.04-.05.02-.07.02-.06,0-.11-.02-.18-.02-.03,0-.05.02-.05.02.17.03.34.01.52.02.53.03.91.13,1.45,0,.11-.03.38-.15.47-.15h.68c.06,0,.22.01.3.02v-.02c-.35-.04-.71-.08-1.06-.02-.21.04-.41.13-.63.16-.46.07-1.18.01-1.61-.15-.09-.03-.18-.06-.26-.1.06-.02.14.01.19.03.05.01.07.05.07.05.04.01.13,0,.18,0l-.18-.09c.08-.02.14.02.2.04.47.02.97.15,1.43.06.44-.08.79-.45,1.2-.5.04,0,.08,0,.12,0v.02c.07,0,.12-.02.18-.02l.45.04c.18-.03.37-.08.55-.09,1.08-.07,2.13.46,2.57,1.46l-.06-.05c-.16-.34-.46-.64-.77-.86-.51-.37-1.11-.56-1.74-.51-.1,0-.16.05-.22.07v.04c.12-.01.23-.02.35-.02.04,0,.09,0,.13,0,0,.03-.04.02-.06.04-.02.02.01.02.01.02h.09s.03,0,.04,0c.01,0,.03,0,.04,0,.02,0,.06-.02.12-.02.04,0,.38.04.38.06-.17.02-.34,0-.51.01-.01,0-.03,0-.04,0,0,0-.02.02-.04.02-.03,0-.06,0-.09,0-.01,0-.03,0-.04,0,0,0-.01,0-.02,0v.04c.15,0,.29,0,.44,0,.24.01.54.03.7.2,0,0,.09-.02.01.04-.02,0,0-.04-.01-.04-.01-.01-.25-.08-.29-.09-.11-.03-.31-.08-.41-.09-.18-.02-.4,0-.59,0v.04c.05,0,.11,0,.18,0,.08,0,.16,0,.23,0,.16.02.25.12.41.13l-.15.04c.06,0,.12.02.18.04.12.04.29.12.37.22l-.66-.11h-.37c.08.01.18.05.26.07.03,0,.06,0,.09,0,.07.01.41.06.44.09,0,.01,0,.03,0,.04.02,0,.06,0,.09,0,.06.01.45.16.46.18.02.05-.02.03-.05.02-.17-.04-.34-.11-.5-.14-.02,0-.05,0-.07,0-.02,0-.06,0-.07-.02-.02,0-.05,0-.07,0-.04,0-.04-.02-.04-.02-.12-.02-.23-.03-.35-.04l-.02.02c.15.04.31.09.46.13.02,0,.04.02.04.02.02,0,.05,0,.07,0,.13.04.26.06.39.11.03.01.07,0,.07.05-.11,0-.23-.06-.34-.08-.03,0-.08.02-.13.01-.05,0-.12-.04-.15-.04,0,0-.06.04-.06.04,0,.01.05.06.04.09.38.09.77.13,1.12.33.04.02.08.04.11.08-.04.02-.1-.05-.11-.06-.17-.06-.41-.03-.58-.04-.39-.04-.8-.12-1.15-.29-.02-.01-.08.03-.07-.04-.13-.03-.26-.08-.4-.09l.02.03c.22.05.42.16.63.23.1.03.27.05.35.09.03.01.01.04.01.04.01,0,.03,0,.04,0,.08-.03.47.06.59.09.12.02.23.03.35.06.05.01.39.13.4.15.02.05-.02.03-.05.02-.17-.06-.27-.13-.48-.16-.07-.01-.16,0-.21,0-.02,0-.01-.04-.01-.04,0,0-.08,0-.11,0-.03.1.1.08.15.09l-.11.04c.16.01.33.07.47.16.08.05.14.14.23.18-.01.1-.06-.02-.07-.03-.09-.07-.2-.14-.31-.18-.1-.04-.25-.05-.32-.11-.12,0-.24-.01-.36-.05-.1-.03-.22-.13-.29-.15-.04-.01-.04.03-.03.04,0,0,.05.01.07.03.33.22.68.34,1,.57.01.01.04.01.06.03.01,0,0,.03,0,.04,0,0,.03,0,.04,0,0,.05-.03,0-.04,0-.05-.02-.05-.03-.09-.04-.07-.03-.5-.26-.53-.24.23.16.51.25.75.4.13.08.27.19.39.28-.18-.03-.36-.05-.53-.09-.16-.04-.33-.12-.48-.19.02.06.02.04.07.09-.1.03-.55-.31-.55-.35h-.02s.11.12.14.18l-.8-.45-.02-.03c.05-.04.48.21.57.24,0,0,0-.03-.02-.05-.05-.05-.21-.07-.22-.17-.28-.11-.6-.17-.9-.22.52.28.94.46,1.45.79.02.01.17.03.06.07-.24-.14-.5-.27-.75-.39-.27-.13-.55-.26-.82-.35l.04.04,1.24.61c-.11,0-.25-.06-.36-.1-.25-.1-.48-.22-.72-.32.01.04.04.05.07.07.51.3,1.22.5,1.8.68.13-.04.28.08.42.07,0,.04-.05.02-.08.02-.08,0-.22-.04-.3-.07.04.06.02.05-.03.04-.14,0-.24-.08-.38-.08l-1.08-.34c.35.23.92.33,1.34.45.04.01.07.05.09.06.13.04.27.05.4.08,0,.06-.35-.04-.4-.05,0,0-.02.01.05.05.06.03.12.06.18.09.03.01.07.04,0,.04-.15-.07-.32-.1-.47-.17-.1-.04-.19-.11-.28-.16-.02,0-.05-.05-.06,0,.13.07.25.17.38.25.16.09.35.18.52.26,0,.11-.18-.04-.24-.02l.04-.04s-.07-.02-.11-.02c0,0-.01,0-.03,0,0,0,.02,0,.03,0l-.1-.07h-.01s.06.06.07.07c-.04,0-.07-.02-.11-.02.2.19.53.24.73.45-.19-.06-.36-.19-.55-.23-.03.03.62.32.64.38-.12-.02-.23-.13-.34-.16-.04-.01-.04.03-.03.04,0,0,.05.01.07.03.01,0,.1.04.07.06-.41-.15-.8-.36-1.16-.62-.31-.22-.59-.48-.89-.7.14.17.32.3.5.44.56.45.92.62,1.57.92.06.03.13.04.18.1-.08,0-.13,0-.18-.08-.34-.07-.67-.17-.98-.33-.21-.11-.42-.25-.61-.39.44.45.99.85,1.29,1.43.22.43.33,1.13.32,1.61,0,.02,0,.09-.01.09-.02-.01,0-.06-.01-.09-.02-.38-.11-.98-.25-1.33-.09-.23-.41-.73-.59-.91-.2-.2-.56-.38-.75-.58-.04-.05-.08-.17-.17-.2.02.03.06.06.06.08,0,.02-.02.05-.02.05.01.08.44.4.53.49.1.1.19.23.29.34.29.18.51.49.62.81l-.4-.58c-.09-.07-.15-.15-.22-.23-.26-.16-.37-.32-.59-.52-.19-.16-.39-.3-.59-.44l-.54-.51s-.04.01-.02.04c.13.21.51.45.67.65.03.04.11.11.07.16.14.02.2.23.33.3l-.15-.06s.05.05.03.07l-.21-.16.18.1c-.03-.05-.03-.06-.09-.1l.04-.02c-.05-.04-.11-.08-.15-.12-.37-.33-.6-.52-1.01-.79-.03-.02-.03-.02-.07-.04-.11-.04-.22-.1-.33-.14-.11-.04-.23-.05-.35-.08.6.26,1.13.48,1.57.99.05.05.12.05.1.15-.26-.15-.48-.37-.74-.53-.03-.02-.07-.02-.08-.02.4.37,1.03.71,1.29,1.18.04.06.06.14.09.21,0,0,.05.02.05-.03,0-.08-.06-.1-.07-.17l.12.14c.08.26.13.54.17.81l-.29-.7c-.26-.41-.57-.69-.95-.98-.06-.05-.42-.28-.44-.3-.02-.04.04-.04-.09-.14-.31-.23-.79-.38-1.16-.45.03.01.06.04.1.04.04.03-.02.02-.04.02-.51-.08-1.04-.25-1.55-.33l.88.24s-.05.02-.08.02c-.05,0-.09-.02-.14-.02l.08.06c.09.04.22.03.3.05.02,0,.09.03.15.05.3.08.62.14.89.3.02.01.06.02.02.05-.28-.12-.54-.2-.85-.24.46.13,1.46.54,1.84.81.02.01.06.01.02.05-.6-.32-1.22-.6-1.87-.81-.03-.01-.07.02-.05-.05-.25-.03-.51-.17-.76-.2-.02,0-.08,0-.04.02.27.09.55.14.81.25.03.01.07.04,0,.04-.14-.05-.29-.07-.43-.11-.02,0-.02-.04-.03-.04-.73-.21-1.35-.21-2.1-.16-.07,0-.22.01-.25.07.35-.06.72.02,1.07-.04l.45.04c-.59-.02-1.18.05-1.77.07l-.19.04c.15,0,.3,0,.45,0,.06,0,.11-.02.17-.02.31,0,.66-.01.97,0,.03,0,.08-.02.08.02l-.98.02c-.48.06-.97.1-1.44.21-.49.11-.97.29-1.47.3l.54-.15c.56-.31,1.21-.31,1.79-.54.26-.1.84-.43,1.09-.43h.54s-.04-.03-.06-.04c-.53-.13-.89.15-1.35.31-.39.14-.8.06-1.19.19-.03,0-.07.04,0,.04.17-.02.34-.08.51-.09.02,0,.08-.02.08.02-.45.1-.9.18-1.31.39-.07,0-.04,0,0-.02.05-.03.11-.05.17-.08.04-.02.07-.02,0-.02l-1.23.42c-.33.09-.68.11-1.02.08-.02,0-.08-.08-.15-.07-.05.04.03.08-.08.07l.02-.04c-.14-.02-.32-.1-.45-.11-.05,0-.06,0,0,.03.11.05.25.07.37.08,0,.04-.1.02-.12.02-.13-.01-.56-.15-.64-.24-.01-.02-.02-.04,0-.04l.1.04-.17-.19c-.02-.09,0-.09.08-.05-.02,0-.05,0-.04.04l.1.08s-.05-.11-.06-.11c.04.02.06.04.11.07-.01-.09-.15-.14-.15-.2.05-.15.14-.34.17-.5,0-.01,0-.03,0-.04,0-.03.02-.16.02-.18,0-.01-.03-.04-.04-.06-.02-.09-.02-.07-.05-.13-.03-.06-.07-.2-.13-.24-.03-.01-.05,0-.07-.01.05.06.11.11.13.19.03.07.09.28-.02.23.09-.33-.36-.52-.64-.48l.09.04-.4.09s.02-.04.02-.04c-.02,0-.09,0-.09-.01.01-.03.07,0,.09-.01,0,0,0,.02,0,.02.13,0,.04-.04,0-.02.03-.01.08-.05.11-.06-.12-.03-.26.08-.35.09-.01.02-.03.04-.04.07-.02.04-.11.18-.11.2,0,.02,0,.06,0,.09,0,.05,0,.15.02.2,0,0,.03.04.04.07.03.07.07.16.11.22.01.02.05.06.07.09.05.07.14.18.2.24.02.03.06.05.09.09.05.06.1.1.15.15.04.04.06.07.09.11.05.06.12.11.13.2.06.03.1.1.15.13.08.04.38.1.39.11,0,0,0,.1.02.15,0,.02.01.05.02.07.01.03.05.1.07.13,0,0,.05.06.07.07.05.05.13.11.2.13.02,0,.05,0,.07.02.09,0,.21.01.3,0,.47-.06.9-.2,1.37-.28.55-.1.99-.11,1.54-.12.07,0,.15,0,.22,0,.1,0,.19,0,.29,0,.09,0,.19,0,.29,0,.22,0,.44.02.66.04.05,0,.09.02.11.02.31.03.62.06.92.13.07.02.11.04.18.07.08.03.08.04.13.07.03.02.04,0,.09.04.14.1.17.13.26.29.02.04.03.05.04.09.04.08.06.13.09.22,0,.02.02.04.02.07.01.05.03.1.04.15,0,.03,0,.06,0,.09,0,.06.02.11.02.18,0,.01.02.04.02.09,0,.07,0,.15,0,.22,0,.01,0,.03,0,.04,0,.08-.01.14-.02.22,0,.02,0,.05,0,.07-.01.07-.06.15-.07.2,0,.02,0,.05,0,.07-.01.05,0,.13-.02.18,0,.04-.03.07-.04.11-.02.05-.05.09-.07.13.37-.27.36-.64.33-1.07-.02-.28-.12-.77-.24-1.02-.02-.05-.16-.24-.2-.29-.48-.57-1.24-.68-1.95-.7-.24,0-.48,0-.73,0l.04.02.38.04c-.4,0-.81,0-1.21.02.01-.03.11-.03.15-.04.2-.03.46-.08.66-.09.85-.06,1.57.02,2.36.31,0,0-.01-.03-.03-.04-.87-.44-1.82-.38-2.77-.26-.38.05-.87.18-1.24.19-.05,0-.06.01-.05-.04,1.25-.14,2.58-.6,3.8-.07.06.03.32.15.34.19.01.03-.02.04-.04.03,0,0,0,.02.03.03.03.01.06-.01.09.01.06.04.07.13.08.13.02.01.07-.03.09-.01.03.02.01.07.03.09,0,.01.09.08.13.14.08.12.11.2.15.33.14.39.3,1.28.16,1.67-.06.18-.21.37-.3.55-.02.05-.04.1-.04.15,0,0,.03,0,.04,0,.03-.09.09-.11.11-.2.09-.3.39-.6.4-.95.04,0,.02.07.02.1-.01.11-.08.35-.13.45-.06.13-.18.25-.23.38-.02.04.02.14-.08.17-.04.1-.11.21-.15.31-.01.03-.03.06-.04.09-.03.08-.06.16-.09.23.02.02.04-.03.07-.03l.28-.53c0,.14-.1.29-.15.43-.02.06.02.02.02.01,0,0,0-.02,0-.02.14-.21.16-.45.31-.64-.03.27-.16.53-.29.77,0-.02,0-.04,0-.07-.04-.02-.05.02-.07.02-.02.1-.11.12-.09.22.03,0,.07-.04.09-.07-.01.02,0,.07-.03.11-.03.03-.05,0-.05,0-.04.01-.09.13-.11.18.03-.02.05-.04.08-.07,0,.09-.06.21-.1.31,0,.02-.02.03-.02.04,0,0,0,.03,0,.04,0,0,.04-.02.04-.02.1-.18.22-.36.31-.55.09-.2.2-.47.26-.68,0-.02,0-.11.03-.11.04.03,0,.09-.01.11-.02.13-.05.26-.07.4.11-.19.07-.19.12-.38.07-.28.17-.54.19-.83.04,0,.02.05.02.08,0,.08,0,.18,0,.26-.02.23-.16.62-.11.83,0-.06.03-.12.04-.18,0-.03.02-.07.02-.09.01-.06.01-.15.02-.22.05-.33.09-.66.09-.99.05.01.04.06.04.1.02.3-.05.6-.05.89,0,.08.02.14.02.22.01,0,.03,0,.04,0-.02-.08.04-.18.04-.24,0-.01,0-.03,0-.04,0-.07,0-.15,0-.22,0,0-.02-.03-.02-.07,0-.23,0-.47.01-.7.05.25.07.51.1.77,0,.03.02.06.02.11h.02s0-.07,0-.11c0-.02,0-.04,0-.07,0-.06,0-.12,0-.18,0-.15.02-.3.02-.45,0-.03-.02-.09.03-.08.03,0,.06.46.08.53,0,.02.05.13.07.11,0-.04,0-.07,0-.11,0-.02,0-.04,0-.07,0-.06,0-.12,0-.18,0-.02,0-.04,0-.07,0-.07,0-.15,0-.22,0-.2,0-.4,0-.59l.1.21c.05.11.08.24.12.36.02.07.05.13.07.2.01.03.01.06.02.09.01.05.03.1.04.15,0,.03.01.06.02.09,0,.01.02.03.02.06.04-.21-.04-.64-.07-.87-.03-.18-.07-.35-.11-.53,0-.02-.04-.07,0-.06.22.4.37.83.53,1.25.04,0,.02-.07.01-.09-.03-.13-.09-.23-.13-.36-.04-.14-.07-.29-.1-.44,0,0,.03.01.03.02.17.25.26.88.3,1.19,0,.05.02.1.02.15,0,.02,0,.04,0,.07,0,.07.01.15.02.22,0,.01,0,.03,0,.04,0,.03.02.06.02.09,0,.04,0,.09,0,.13l.08.24c0-.16,0-.33,0-.5,0-.25-.02-.53-.04-.78,0-.04-.02-.1-.02-.15-.02-.18-.06-.35-.07-.53l.22.51s.01.11.02.15c.08.37.13.74.15,1.12l.02-.23c-.1-.56-.09-1.25-.29-1.78-.02-.04-.12-.24-.11-.25.03-.04.05.03.05.04.23.34.34,1.13.39,1.55l.07.93c0-.05.02-.1.02-.15,0-.67-.16-1.29-.2-1.95,0-.03-.02-.12.02-.12l.07.2s.02-.03.02-.05c-.02-.1-.1-.23-.13-.33-.05-.15-.07-.3-.13-.44.02-.02.05.03.06.05.19.25.44.78.55,1.08.02.06.03.13.04.18.06.19.12.38.18.57.02.07.05.15.07.22.02.1.05.2.07.31.02.15.03.33.04.48,0,.09.01.18.02.26,0,0,0,.01,0,.02h.04s0-.03,0-.04c-.01-.18-.03-.37-.04-.55-.01-.16-.02-.33-.04-.48-.08-.57-.35-1.27-.64-1.77-.13-.21-.3-.4-.41-.62.13.03.11.19.26.12-.09-.09-.18-.23-.29-.33-.13-.12-.32-.23-.45-.35l-.53-.33c.34.12.65.35.93.57.03.03.06.07.08.09.14.11.37.25.48.35,0-.07.01-.05.06-.02.33.18.72.91.85,1.27.13.35.17.72.29,1.07,0-.03,0-.08,0-.11-.05-.29-.17-.56-.18-.86,0,0,.04.02.04.02-.01-.02-.02-.05-.03-.08-.09-.2-.15-.43-.27-.64-.15-.25-.52-.63-.73-.86-.03-.03-.1-.03-.11-.09.07.02.14.09.2.13.1.08.05.04.12.08.02.01.27.25.3.28.17.18.24.47.43.65.03-.04-.02-.11-.04-.15-.24-.46-.64-.84-.96-1.24,0-.03,0-.04.03-.03.02,0,.27.18.28.2.02.02.02.06.05.09.04.05.09.09.13.13l.02-.07c.08,0,.34.36.39.44.18.28.3.54.28.89l-.04-.05c.01.11.02.21.02.32,0,.04-.02.07-.02.07,0,.09.13.55.18.64,0-.05,0-.11,0-.15-.08-.47-.05-.8-.07-1.27,0-.09-.04-.19-.02-.3.05.02.06.1.07.14l.04,1.13s.03-.04.04-.06c.05-.29.06-.57.05-.86.04.02.07.11.08.15.14.38.24,1.1.22,1.51,0,.08-.05.16,0,.25-.06,0-.04-.01-.04-.05-.02-.36-.05-.74-.12-1.09,0-.02-.06-.18-.05-.08,0,.17.05.31.04.49,0,.08-.02.15-.02.2,0,.01,0,.03,0,.04,0,.15-.04.29-.02.44,0,.02.01.13.04.13,0-.09,0-.18,0-.28,0-.03-.02-.08.02-.08,0,.09.03.16.02.25-.02.2-.12.47-.13.67,0,.09.04.22.04.25-.01.07-.24.25-.27.34l-.52.15s-.05.03-.07.04c-.31.22-.37.21-.72.32-.19.06-.37.17-.58.16.01.03-.03.14.03.13.17-.02.41-.14.58-.19.1-.03.19-.04.29-.05.01,0,.03-.04.07-.02,0,.04-.05.03-.07.04-.15.08-.31.17-.45.27-.1.07-.2.19-.32.26-.06.04-.17.06-.2.08-.02.01-.05.1-.09.1l.09-.59c-.09-.01-.17.02-.25.02-.12,0-.52-.04-.63-.07-.12-.04-.32-.18-.48-.24-.02,0-.04-.02-.07-.02-.16-.05-.33-.08-.48-.12-.04-.03,0-.02,0-.04.02-.04.05-.08.07-.12,0-.02,0-.04.02-.07.02-.05.05-.18.11-.2,0-.01,0-.03,0-.04,0-.05.06-.14.09-.18,0,0,.01-.05-.01-.04-.13.19-.26.43-.32.66-.08.02-.17-.03-.24-.04-.23-.05-.27-.1-.44.1-.03.03-.14.18-.15.21,0,0-.01.04-.02.07-.12.26-.17.51-.13.79,0,.07.03.21.04.26.02.05.1.23.13.29.01.03.04.08.04.09.02.04.11.1.14.13.02.02.02.02.01.05-.2,0-.46.03-.62.15.04,0,.1,0,.13.01-.05.06-.12.11-.18.17-.37.38-.72.91-1.1,1.26-.46.43-1.16.86-1.56,1.34-.02.03-.1.02,0,.08.01,0,.03,0,.04,0,.23-.17.48-.34.73-.47.15-.07.31-.11.46-.18.14-.06.36-.25.47-.28.03,0,.04,0,.03.03-.12.16-.13.39-.29.53,0,.05.02.04.06.03.23-.03.32-.6.58-.62,0-.09-.1,0-.07-.11.11.07.29.05.42.04l-.07-.07c.11-.02.2.05.3.06.19.03.4-.03.58-.06,0,.04-.02.06-.03.09-.05.08-.27.34-.33.4-.25.22-.75.21-1.07.24-.27.03-.27.04-.55.02-.13,0-.43-.03-.41.15.1,0,.18-.05.28-.06.25-.03.45.07.68.09.29.02.71-.07.98-.19.27-.12.44-.44.67-.63,0,.21-.16.41-.07.62.05-.15.33-.79.45-.85.13-.07-.02.23.1.18.09-.03.06-.2.1-.23.02-.02.09.03.15,0,.04-.02.27-.31.31-.27-.02.14-.26.36-.26.47,0,.03,0,.04.03.03.11-.03.4-.46.47-.57.02-.03.02-.12.09-.13.02.06-.05.12-.07.15-.15.42-.25.92-.29,1.36,0,0,.02-.01.03-.02.05-.07.23-.92.3-1.11.13-.35.33-.66.46-1,.15,0,.02.06,0,.11-.09.25-.1.65-.17.93-.11.42-.37.77-.49,1.16-.12.4-.29,1.11-.32,1.52,0,.05,0,.1,0,.15,0,.06,0,.12,0,.18,0,.08-.02.18.03.24.05.01.03-.04.03-.08,0-.04,0-.08,0-.12,0-.07.01-.15.02-.22,0-.04.02-.09.02-.13,0-.04.02-.06.02-.09,0-.04.02-.07.02-.11.07-.35.13-.77.24-1.11.09-.27.24-.51.36-.77.22-.51.35-1.04.35-1.6.24.1.52-.01.78-.02.02,0,.11.37.19.29.01-.01-.02-.19-.02-.23,0-.02-.01-.1.02-.1.1.15.15.37.31.45-.1.69-.32,1.35-.31,2.05.08,0,.07-.12.09-.18.06-.25.12-.51.18-.77.02-.11.04-.24.07-.35,0-.03.02-.07.02-.09.02-.09.03-.19.04-.29.02-.13.07-.25.04-.38-.02-.11-.11-.06-.14-.1,0,0-.06-.23-.05-.24.03,0,.09,0,.1.03.01.02.08.22.12.29.04.07.15.26.24.22,0-.06-.19-.41-.24-.48-.02-.02-.05-.02-.07-.05.03,0,.08.03.11.05.18.13.24.42.33.6,0,.02.06.08.09.07,0-.06.03-.06.02,0,.13.05.17.19.31.2.01,0,.03,0,.04,0-.06-.08-.21-.19-.29-.28-.09-.11-.18-.22-.22-.35.14,0,.38.42.45.43.05,0,.03-.02.04-.05.03-.08.04-.18.07-.26.02-.03,0-.05.05-.04,0,.07-.12.42.03.37.04-.01.23-.32.26-.38.04-.07.11-.26.14-.3.01-.02.03-.02.05-.02.09-.32.4-.42.56-.68.02.52-.45.87-.66,1.3-.08.17-.1.38-.25.52.06.08.12-.01.18-.03l.04-.04c0-.1.28-.44.3-.57.67.09,1.39.2,2.07.16.09,0,.3-.03.35-.11.01-.02,0-.05.01-.06-.53.2-1.12.08-1.67.02-.21-.02-.43-.05-.64-.07-.01-.14.16-.2.22-.31.07-.12.11-.35.15-.48.02-.05.03-.1.04-.15.04-.11.07-.22.11-.33.16-.48.39-.73.65-1.15.14-.23.31-.62.47-.81.01-.02.03-.04.05-.04l.06-.11s-.01.06-.01.11c0,.11.07.21.15.28.07.05.21.11.29.14.07,0,.49.05.44-.1-.01-.05-.48-.1-.59-.14-.06-.03-.11-.03-.15-.1.05,0,.11.04.15.06.1.03.47.09.56.06.05-.02.04-.16.04-.22-.02-.03-.02-.02-.02-.07-.08-.23-.29-.5-.42-.75ZM48.71,13.52l.03-.03s-.03.06-.03.03ZM49.64,9.46s.01.01,0,.02v-.02ZM49.54,8.21c0,.05.17.26.15.29-.03.03-.19-.23-.2-.25-.01-.04.01-.03.04-.03ZM49.49,8.19v-.02s.01.01,0,.02ZM49.5,7.68h-.04s0-.07,0-.07c.03,0,.05.04.04.07ZM49.62,7.68s.01.01,0,.02v-.02ZM49.61,7.66s-.07-.07-.07-.11c.01-.02.08.09.07.11ZM49.45,7.15s.19.22.15.26c-.04.04-.18-.22-.15-.26ZM41.18,5.15s.08-.08.09-.07c.04.04-.08.08-.09.07ZM43.89,3.06c-.01-.06.02-.03.05-.05.03-.02.07-.05.11-.05l-.15.1ZM44.4,2.69s.01-.04.04-.02c.01,0-.01.04-.04.02ZM46.03,2.25h.01s-.05.07-.05.07h-.01s.05-.07.05-.07ZM45.93,2.14s-.05.08-.09.08c.03-.02.05-.11.09-.08ZM45.85,2.35c-.05.06-.14.1-.22.1.04-.06.15-.08.22-.1ZM45.7,2.21s-.01.05-.02.06c-.02.02-.07.05-.1.05l.12-.11ZM45.59,2.47v-.02s.01.01,0,.02ZM45.56,2.33s-.03.04-.07.03c-.02-.01.04-.04.07-.03ZM45.55,2.49v-.02s.01.01,0,.02ZM45.52,2.49s-.04.04-.07.03c.02-.02.03-.04.07-.03ZM45.42,2.54s.01.01,0,.02v-.02ZM45.37,2.56s.01.01,0,.02v-.02ZM45.33,2.6v-.02s.01.01,0,.02ZM45.78,2.82s.01-.04.04-.02c.01,0-.01.04-.04.02ZM46.14,2.51c-.26.04-.52.08-.78.14.26-.12.57-.18.86-.19,0,.04-.04.04-.08.04ZM46.24,2.23s.02-.07.04-.04c.02.02-.02.07-.04.04ZM48.09,1.72s.03-.01.04-.02c-.02,0-.03.01-.04.02ZM48.14,1.7s.01-.02.02-.02c0,0-.01.01-.02.02ZM50.52,1.5c.05,0,.11,0,.16,0,0,.03-.1.04-.12.04-.05,0-.09,0-.14,0,0-.03.08-.04.1-.04ZM49.75,2.16v-.02s.01.01,0,.02ZM49.79,2.14v-.02s.01.01,0,.02ZM49.62,2.51v-.02s.01.01,0,.02ZM50.38,3.58s-.24.08-.25.08c-.01,0-.02-.06-.06-.05.11-.12.26-.19.42-.22.03.03-.08.17-.11.19ZM50.84,2.52s.04,0,.05.02c0,.04-.13.36-.16.41-.05.08-.03.01-.07.13-.02.07-.09.09-.1.11,0,0,.02.05.02.07,0,.02-.07,0-.02.08l-.44.07c.04-.1.17-.15.26-.18l-.07-.02.04-.04-.11.02c.07-.11.24-.11.35-.15,0-.04-.09-.02-.12-.02-.15.03-.32.11-.48.13l.42-.21-.33.05.34-.18v-.04s-.08-.02-.08-.02c.11-.04.23-.09.35-.09,0-.04-.05-.02-.08-.02-.05,0-.09,0-.14.01-.03,0-.07.04-.07-.02l.29-.16h-.31c.16-.11.38-.18.57-.13.03.14-.12.14-.13.19ZM49.98,3.02v-.02h.09v.02h-.09ZM50.51,2.31s.05-.05.09-.04c-.01.04-.05.05-.09.04ZM50.64,2.27s.04-.03.06-.04c.05-.02.27-.09.29-.02.04.12-.29.08-.35.05ZM51.14,1.57s-.02-.06.05-.05l-.07.22c0-.06,0-.11.02-.17ZM50.58,1.72s-.08.02-.07-.02c.2-.02.39-.1.59-.09,0,.03,0,.15,0,.15,0,0-.18.02-.21.02-.04,0-.08-.02-.13-.02-.1,0-.2.05-.3.05l.17-.06h.12c-.03-.08-.12-.03-.17-.03ZM50.47,1.91s.34-.09.39-.1c.07,0,.16,0,.23,0l-.09.34c-.16,0-.31.05-.46.09l.2-.13h-.2c.07,0,.16-.04.2-.1-.07-.01-.14.01-.21.02-.02,0-.08.02-.07-.02.09-.03.19-.03.29-.06.02,0,.07,0,.07-.03l-.35.02s.01-.03.02-.03ZM50.49,2.32s-.1.06-.13.04c-.03-.01.1-.06.13-.04ZM50.38,2.6c-.08.09-.24.12-.35.11l.35-.11ZM50.09,1.77s-.01.01-.02.02c0,0,.01-.01.02-.02ZM50.05,1.8s-.02,0-.03.01c0,0,.02,0,.03-.01ZM50.02,1.81s-.02.01-.03.02c.01,0,.02-.01.03-.02ZM49.97,3.17v-.02s.01.01,0,.02ZM49.97,1.84s0,.01-.01.01c0,0,0,0,.01-.01ZM49.9,1.79s.01.01,0,.02v-.02ZM49.95,1.86s-.02,0-.03.02c.01,0,.02-.01.03-.02ZM50.35,3.64s-.01.05-.02.06c-.05.06-.34.13-.43.16.12-.11.31-.14.45-.22ZM49.87,3.85s-.01.04-.04.02c-.01,0,.01-.04.04-.02ZM50,3.89l.22-.07c-.11.15-.28.19-.46.19l.24-.12ZM49.73,4.15l.29-.09c-.11.11-.31.16-.46.18l.17-.08ZM48.27,3.24s.01-.04.04-.02c.01,0-.01.04-.04.02ZM45.97,4.07c-.1,0-.19,0-.29,0-.3.01-.62.07-.92.04-.02,0-.14-.02-.14-.03.48-.02.96-.1,1.43-.03,0,.04-.05.02-.08.02ZM38.26,6.74s-.04.01-.05.02c.01,0,.03-.01.05-.02.03,0,.05-.01.06-.02-.02,0-.04.01-.06.02ZM40.66,6.45s.06-.05.09-.04c.02.01-.06.05-.09.04ZM38.63,7.75h-.13v-.02h.13v.02ZM37.15,7.79l-.28-.17s.29.11.31.13c0,.01,0,.06-.03.04ZM37.69,7.97s-.2-.03-.23-.04c-.02,0-.1-.06-.12-.07-.04-.02-.12-.02-.14-.07l.48.11s0,.06,0,.06ZM39.03,7.55l.42-.16c-.11.09-.28.15-.42.16ZM39.86,7.37s.01-.04.04-.02c.01,0-.01.04-.04.02ZM39.79,7.16c.07-.03.15-.06.23-.07.01.06-.02.04-.05.05-.05.02-.38.18-.39.17-.04-.04.19-.14.21-.15ZM39.56,7.31s-.08.08-.09.07c-.04-.04.08-.08.09-.07ZM41.54,6.36s-.1.06-.14.07c-.04.01-.07.02-.11.01l.24-.09ZM39.6,7.12h-.11s.07-.03.09-.03c.07-.02.16-.05.24-.06l-.22.09ZM39.84,7.02s.11-.05.15-.07c-.02.04-.11.05-.15.07ZM40.03,6.96v-.02s.01.01,0,.02ZM41.51,6.52s.01-.04.04-.02c.01,0-.01.04-.04.02ZM41.14,6.61l-1.08.31c.1-.1.25-.14.38-.19l1.16-.32-.46.21ZM41.56,6.36l.21-.13.25-.09c-.13.11-.3.17-.46.22ZM42.05,6.14v-.02s.01.01,0,.02ZM42.02,6.05s.01-.04.04-.02c.01,0-.01.04-.04.02ZM42.1,6.12v-.02s.01.01,0,.02ZM49.17,5.59s-.28-.19-.32-.22c-.11-.06-.22-.12-.33-.18l-.58-.22c.37.04.78.22,1.08.45.03.02.18.13.16.16ZM47.08,3.84s.24-.01.28-.01c.32.01.65.06.97.07.14,0,.27-.02.41-.04-.18.15-.45.07-.65.06-.34,0-.68.03-1-.08ZM47.32,4.76s.01-.04.04-.02c.01,0-.01.04-.04.02ZM47.27,4.73l-.53-.13c-.29-.03-.65.04-.92,0,0,0-.06-.02-.05-.04.47-.03,1.06-.04,1.5.14.03.01.07.04,0,.04ZM48.5,4.16v-.02s.01.01,0,.02ZM47.39,3.94c.12,0,.93.03.97.07.04.04,0,.04-.03.04-.31.05-.57.01-.88-.06-.04,0-.06.02-.05-.04ZM47.96,4.18c.16,0,.32,0,.47-.02.06,0,.02.03,0,.04-.04.01-.23.07-.26.07h-.32l.33-.04-.22-.04ZM48.12,4.43s-.18-.04-.18-.09l.5.09c-.1,0-.22.01-.32,0ZM48.42,4.49c-.04.07-.16.04-.22.04l.22-.04ZM49.07,3.33s.01.01,0,.02v-.02ZM49.05,3.59s-.03.06-.03.03l.03-.03ZM47.66,3.66c.37.02.66-.04,1.04.05.04.01.09.05.12.05.08,0,.12-.1.19-.1l-.12.11c-.14.09-.15.03-.29.04-.32.02-.48-.01-.79-.04-.39-.04-.78-.05-1.15-.14.32-.14.67.01,1,.03ZM46.47,3.53s.02-.05.06-.05c.05,0,.15.02.2.02.04,0,.04,0,.03.04-.13-.02-.36.03-.47,0,0,0-.03-.03-.03-.04.07-.02.15.03.21.02ZM45.39,3.37l.4.02s-.12.04-.14.04c-.05,0-.16-.01-.22-.02-.03,0-.07-.02-.03-.04ZM45.11,3.5h.67s-.25.05-.25.05h-.67s.25-.05.25-.05ZM44.32,3.86l-.21-.02c.09,0,.18-.01.26-.03.14-.04.45-.19.56-.19h.89s-.05.02-.08.02c-.21,0-.41,0-.62.02l-.41.07c.54,0,1.08-.05,1.62.02.04,0,.07-.02.06.04-.69-.08-1.39-.05-2.08.07ZM46.06,3.85c-.12,0-.26.01-.37,0-.03,0-.07-.02-.03-.04.35,0,.71.03,1.06.11,0,.04-.05.02-.07.02-.19-.02-.38-.07-.57-.09ZM46.06,4.43c.36-.02.75-.01,1.09.11,0,.04-.05.02-.07.02-.11-.02-.22-.06-.34-.08-.4-.06-.8.05-1.2.03,0-.03.47-.07.52-.08ZM45.51,4.6c.33.05.68.03,1.01.07.37.04.73.12,1.09.22,0,.04-.05.02-.07.02-.11-.02-.23-.07-.35-.09-.51-.11-1.02-.11-1.54-.14,0,.03.06.03.08.04.44.08.91.06,1.35.18,0,.04-.05.02-.07.02-.11-.01-.24-.05-.35-.06-.18-.01-.37.01-.55,0-.38-.02-.76-.15-1.1-.31-.03-.01-.11-.04-.12-.07.21.03.41.1.63.13ZM42.81,4.94c.27-.32.63-.52,1.03-.63l-.69.42.06-.08s-.13.05-.16.08c-.08.06-.13.17-.23.21ZM43.68,4.49v-.02s.01.01,0,.02ZM43.64,4.51v-.02s.01.01,0,.02ZM43.06,4.98v-.02s.01.01,0,.02ZM43.09,4.93v-.02s.01.01,0,.02ZM43.16,4.81c.04-.05.4-.33.44-.3.04.03-.03.05-.04.06-.12.09-.24.2-.35.29-.09.07-.12.04-.05-.05ZM43.87,5.3s-.11-.16-.13-.11c-.08.15.11.1.18.21-.1,0-.18-.06-.26-.08-.05-.02-.14.02-.16-.05.13.02.07-.03.11-.1.05-.08.24-.22.32-.3.01.04.04.32.06.33,0,0,.05,0,.07,0,.01-.07,0-.12-.03-.18.12.01.19.23.29.24.04,0,.15-.07.16-.12.01-.08-.06,0-.08,0-.13.03-.15-.07-.06-.11.04-.02.02.04.06.05.04,0,.08,0,.12-.02l-.02.11s.15-.09.18-.07c.02.03-.02.08-.04.1-.07.05-.28.16-.37.18-.17.04-.25.02-.38-.09ZM43.9,4.62s-.06.04-.1.02c0-.02.02-.03.04-.04.31-.09.7.05.97.21.02.01.06.02.02.05-.1-.04-.2-.1-.3-.14-.05-.02-.25-.1-.3-.1-.11,0-.22,0-.33,0ZM44.2,4.69l-.26.04s.08-.04.1-.04c.05,0,.11,0,.16,0ZM44.24,5.81l.33-.07c-.08.09-.23.06-.33.07ZM45.35,5.46s-.21.06-.26.07c-.15.05-.28.14-.42.2-.02,0-.07.04-.08,0,.1-.06.22-.13.33-.18.09-.04.37-.14.45-.14.11,0,.25-.01.35,0,.02,0,.05.03.08.02v.02s-.45,0-.45,0ZM44.87,4.89v-.02s.01.01,0,.02ZM45.79,5.57c-.05,0-.11,0-.16,0,.05-.08.18-.03.26-.04,0,.03-.08.04-.1.04ZM45.97,5.48s-.1,0-.14,0c0-.04.05-.02.08-.02.05,0,.1,0,.14,0,0,.04-.05.02-.08.02ZM46.5,5.39c-.29.01-.59-.06-.88-.04-.04,0-.38.07-.38.03.43-.14.9-.05,1.34-.01,0,.04-.05.02-.08.02ZM46.6,5.24c.51.02,1.04-.02,1.53.18,0,.04-.05.02-.07.02-.77-.12-1.44-.16-2.23-.19-.03,0-.08.02-.08-.02.28-.07.57.01.85.02ZM45.78,5.06c.45,0,.89.07,1.34.07,0,.04-.05.02-.08.02-.2,0-.4,0-.59,0-.21-.04-.43-.02-.64-.04-.03,0-.07-.02-.03-.04ZM49,6.25c-.4-.38-.92-.62-1.46-.71l-.77-.1c.82-.09,1.69.14,2.25.77.02.02.16.18.14.2-.04.04-.14-.13-.16-.15ZM49.17,6.43s.04,0,.04,0c0,0,.02.07.02.09-.03-.01-.09-.07-.07-.09ZM49.25,6.01s-.23-.24-.3-.3c-.4-.34-.9-.48-1.39-.59-.59-.12-1.18-.06-1.76-.16-.3-.05-.6-.22-.92-.31-.3-.08-.69-.24-.97-.08.04-.12-.06-.04-.12-.02,0-.03-.01-.05.01-.07.07-.04.22-.07.29-.07l-.04.04c.13-.02.28-.02.42,0,.03-.04.05,0,.07,0,.63.1,1.14.6,1.84.44l.3.04h-.35s.05.02.08.02c.36.02.65-.02,1.02.06.06.01.3.1.32.1.01,0,.01-.05.02-.05.04,0,.44.13.5.15.23.09.49.22.68.37.06.05.31.3.34.36.01.03,0,.04-.03.03ZM49.31,6.08s-.04-.03-.02-.04c.01.01.04.03.02.04ZM49.3,5.39s.09.04.07.09c-.04.03-.08-.08-.07-.09ZM49.37,10.74h-.02c-.01-.09.03-.09.02,0ZM47.56,6.78s.01-.04.04-.02c.01,0-.01.04-.04.02ZM48.2,6.85s.01-.04.04-.02c.01,0-.01.04-.04.02ZM48.27,6.87s.01-.04.04-.02c.01,0-.01.04-.04.02ZM48.34,6.74l.08.05s-.1-.03-.08-.05ZM48.46,6.56l-.39-.25c-.02-.05-.08-.04-.12-.07l-.13-.12c.13.03.28.12.39.19.03.02.29.21.25.25ZM46.81,7.44s-.09-.01-.09-.04c0,0,.08.02.09.02,0,0,0,.01,0,.02ZM47.5,8.03s.01-.04.04-.02c.01,0-.01.04-.04.02ZM47.83,8.11h.07c0,.05-.04.03-.07,0ZM48.12,8.12v-.02s.01.01,0,.02ZM48.18,8.14l.15.04s-.18.01-.15-.04ZM48.61,8.91v-.02s.01.01,0,.02ZM48.65,8.94v-.02s.01.01,0,.02ZM48.53,8.72s-.01-.05.03-.04c.06,0,.16.07.21.12-.03-.01-.23-.07-.24-.08ZM48.81,8.83v-.02s.01.01,0,.02ZM49.08,9.57s-.04-.01-.02-.04c0-.01.04.01.02.04ZM49.05,9.51v-.02s.01.01,0,.02ZM49.1,8.14l.04-.04.06.09-.1-.04ZM49.22,7.22s.01.01,0,.02v-.02ZM49.21,7.15s-.02.07-.04.04.02-.07.04-.04ZM49.17,7.09s-.02.07-.04.04.02-.07.04-.04ZM49.12,7.02s-.02.07-.04.04.02-.07.04-.04ZM49.08,7s-.19-.21-.19-.24c.05,0,.21.22.19.24ZM48.81,6.65l.08.08h-.01s-.08-.07-.08-.07h.01ZM48.57,6.67s.11.08.13.1c.14.15.28.34.39.52l-.14-.12-.37-.49ZM48.82,7.75l.06.09-.1-.04.04-.04ZM48.61,7.87s-.21-.12-.21-.13c0,0,0-.04.01-.04.07,0,.39.22.47.28-.09-.02-.19-.06-.27-.11ZM48.89,7.48v-.02s.01.01,0,.02ZM48.92,8.01v-.02s.01.01,0,.02ZM48.92,7.86v-.02s.01.01,0,.02ZM48.95,8.06c-.07-.07.12-.03.13.03-.02,0-.13-.03-.13-.03ZM49.04,9.42s-.02.07-.04.04.02-.07.04-.04ZM48.96,9.35s.04.03.02.04c-.01-.01-.04-.03-.02-.04ZM48.01,9.44l-.05-.05h.01s.05.04.05.04h-.01ZM48.23,9.58s-.03,0-.04-.01c-.04-.03-.09-.08-.14-.11.06.02.13.06.19.1.02.02.06.06,0,.03ZM48.4,9.66c-.05,0-.08-.02-.11-.05.03-.01.13.04.11.05ZM46.77,9.16s-.09-.04-.07-.07c.02-.02.09.04.07.07ZM46.98,9.11l-.05-.05h.01s.05.04.05.04h-.01ZM47.17,9.62h.04s.01.11.01.11c-.02-.02-.07-.09-.06-.11ZM47.01,9.12l.21.14.06.07c-.1,0-.18-.15-.26-.21ZM45.24,8.63v-.02s.01.01,0,.02ZM45.29,8.65v-.02s.01.01,0,.02ZM45.33,8.67v-.02s.01.01,0,.02ZM45.47,8.74s-.09-.03-.11-.06c.02,0,.11.03.11.03,0,0,0,.01,0,.02ZM41.69,9.16s-.05.02-.08.02c-.6.02-1.2,0-1.79-.05.62-.03,1.25,0,1.87.03ZM36.25,8.65s-.06-.05-.05-.09c0-.02.06.06.05.09ZM35.82,7.2v.04s-.07,0-.07,0c0-.03.04-.05.07-.04ZM35.29,7.77s.08-.19.11-.15c.02.02-.07.19-.11.15ZM35.37,7.55v-.02s.01.01,0,.02ZM35.42,7.73s.06-.14.09-.11c.02.02-.06.1-.09.11ZM35.52,7.59v-.02s.01.01,0,.02ZM35.76,7.63s-.04-.12-.05-.12c-.02-.01-.08.1-.13.09,0-.29-.12-.08-.19-.09l-.02-.07-.11.07v-.11s-.13.09-.13.09c-.14-.09.02-.21.11-.24.07-.02.03.04.08.04.07,0,.23-.08.33-.09.02,0,.08-.02.08.02l-.13.07c.06.03.14,0,.18,0,.01,0,.01.04.03.04.09.03.15.01.2-.06-.03,0-.07-.02-.1-.02-.03,0-.1.07-.1.02.06.01.04-.05.06-.07.02-.02.12-.03.14-.02.01,0,0,.06.03.08.02.02.08,0,.08.05-.04-.04-.2.11-.18.13l.2-.07-.04.07c.11-.02.02.1.15.07l-.07.2-.09-.18-.07.13s-.01-.08-.02-.09c-.02-.02-.22,0-.26.06ZM36.53,9.29v-.02s.01.01,0,.02ZM38.65,9.18c-.17.05-.37.08-.55.14-.34.1-.91.34-1.24.26-.07-.02-.26-.13-.29-.19-.04-.09.17.08.19.1.35.2.76-.05,1.1-.14.28-.08.56-.15.84-.2.01.06-.02.04-.05.05ZM36.55,9.33v-.02s.01.01,0,.02ZM36.72,9.35v-.02h.09v.02h-.09ZM37.42,9.44l-.32.07c-.09,0-.19-.01-.28-.06.2.01.4.01.59-.01ZM36.83,9.37c.01-.06.13,0,.14,0h.47l-.19.04c-.14.02-.29,0-.43-.04ZM43.03,9.29l-.33-.23-.37-.14c.2.02.45.1.61.24.02.02.12.11.1.13ZM43.08,9.31s0,.07.01.09c-.08-.03-.06-.14-.01-.09ZM42.75,8.63c-.29-.04-.6-.04-.9-.05l-.21.04c.33,0,.66.02.99.09,0,.04.01.05-.03.04-.23-.04-.38-.07-.62-.06-.03,0-.08-.02-.08.02.18.01.36.04.53.08.1.02.24.04.31.12-.34-.08-.69-.16-1.04-.2-1.12-.12-2.2.11-3.29.36-.23.05-.7.23-.89.23h-.37s-.05-.03-.08-.02v-.02s.36,0,.36,0c.06,0,.31-.06.38-.08.03,0,.07,0,.07-.03-.35,0-.69.01-1.03-.05-.12-.02-.63-.18-.7-.24-.05-.05-.01-.11-.11-.14,0,.02.04.12-.02.07,0,0,0,.02,0,.04.02.03.1.04.09.09-.05-.01-.31-.14-.18-.2.02,0,.06.04.08.07,0,0-.03-.08-.02-.09.02,0,.03.02.04.02,0-.04,0-.07,0-.11l.04.04.03-.07c.37.45,1.19.51,1.74.48.03,0,.08.02.08-.02h-.4v-.02c.65.04,1.22-.24,1.81-.44h.03c-.44.22-.94.39-1.43.44.01.04.13.03.16.02.17-.02.36-.08.53-.11.22-.03.45-.04.67-.08.57-.09,1.08-.29,1.66-.36.51-.06,1.07-.09,1.58-.07.03,0,.08-.02.08.02-.64-.02-1.27.03-1.89.14l-.18.06,1-.11c.51-.01,1.01,0,1.51.12.16.04.35.07.48.18-.27-.06-.53-.16-.81-.2ZM43.28,13.03s.01-.02.02-.03c0,0-.01.02-.02.03ZM43.3,13s.01,0,.02-.01c0,0-.01,0-.02.01ZM43.33,12.96s0,.02-.01.03c0,0,0-.02.01-.03ZM43.65,12.15s-.04-.01-.02-.04c0-.01.04.01.02.04ZM43.99,10.1v-.02s.01.01,0,.02ZM44,10.12s.03.04.04.06c.08.22.14.5.16.73l-.2-.79ZM45.46,9.97s.07.07.06.09c-.04.04-.06-.05-.06-.09ZM45.44,9.93s.01.01,0,.02v-.02ZM45.29,10.3s.07.07.06.09c-.04.04-.06-.05-.06-.09ZM44.95,10.63s.04.01.02.04c0,.01-.04-.01-.02-.04ZM46.42,9.27s.01.01.02.02c0,0-.01-.01-.02-.02-.04-.01-.05,0-.04.04.05.02.03.02.07.04.01,0,.03,0,.04,0,0,0-.04-.06-.04-.07.02.01.06.02.1.07.03.03.03.1.07.13-.08.01-.12-.08-.18-.13-.03,0-.06,0-.07-.04,0,0-.03,0-.05,0l-.08-.09.11.04v-.09s.06.08.07.09ZM45.94,8.88c-.05-.06.08.02.08.02.04.04.1.11.15.15.05.04.11.04.14.12-.13-.07-.24-.2-.37-.29ZM45.14,8.83s.08,0,.09.04c-.04,0-.08,0-.09-.04ZM45.25,8.87c.06.02.35.11.37.13.03.03,0,.05-.05.04-.09-.02-.25-.1-.32-.17ZM45.62,9.18v-.02s.01.01,0,.02ZM45.4,9.22v-.02s.01.01,0,.02ZM45.59,9.57s-.04-.03-.02-.04c.01.01.04.03.02.04ZM45.87,9.75s0,.04-.01.04c-.07,0-.19-.15-.23-.21.08.01.13.09.19.14.02.02.05.02.05.02ZM45.83,9.57s0-.03-.02-.04c-.13-.09-.29-.17-.38-.3.1.04.21.12.3.19.03.03.04.06.06.08.02.02.08.02.08.03.02.02-.01.07-.04.04ZM45.65,9.19s.08,0,.09.01c.05.04-.05.06-.09-.01ZM45.76,9.24s.13.04.11.09c-.02.02-.13-.04-.11-.09ZM47.01,10.41c-.07-.18-.17-.36-.29-.51-.22-.28-.63-.55-.94-.72l-.14-.14c.36.15.74.39,1.03.65.05.05.13.12.15.19.11.02.11.13.13.2,0,0-.03,0-.04,0-.02-.03,0-.07-.05-.08,0,.02.04.15.04.15.03.03.05-.02.05-.05.03.07.05.14.06.22,0,.02.02.1-.02.1ZM47.98,12.77s-.03.03-.04.03v-.46h.02s.02.08.02.1v.33ZM48.2,12.49s0,.07-.05.08l-.07-.64s.03.04.04.06c.02.1.08.41.07.5ZM48.31,12.45l-.1-.44c-.19-.37-.22-.8-.27-1.21.03,0,.03.04.03.07.07.29.12.58.19.86.06.24.18.46.15.72ZM47.89,10.33l-.02-.1c.06.06.1.18.13.26.03.09.07.18.07.27l-.18-.43ZM47.94,10.69v.09h-.02v-.09h.02ZM48.39,12.34c.02-.31-.12-.58-.19-.87-.05-.21-.06-.43-.13-.64l.02-.04c.06.23.13.46.15.69.04,0,.02-.11.02-.14,0-.07-.02-.13-.02-.2,0-.02-.01-.08.02-.08.01.19.06.37.09.56,0,.05,0,.11,0,.17.02.17.12.38.03.54ZM48.45,11.92c.06-.2-.06-.4-.03-.6l.07.32v.45s-.04-.16-.04-.16ZM48.41,10.69c.12.38.19.82.23,1.21-.03,0-.03-.04-.04-.06-.11-.4-.12-.86-.25-1.26.03,0,.05.08.06.11ZM48.35,10.56s-.05-.06-.04-.09c.01-.02.05.06.04.09ZM48.24,10.26s.06.17.07.2c-.06.01-.04-.01-.05-.04,0-.02-.1-.23-.01-.15ZM47.9,9.85s.05.03.07.05c.04.04.22.27.23.3.02.04-.05.02-.04.06,0,.1.1.31.12.43.02.09.04.19.03.29l-.13-.47c-.12-.3-.24-.61-.48-.84.09.03.14.12.21.18ZM47.65,9.99l.14.25c.08.25.12.52.13.78l-.1-.44c-.05-.2-.17-.39-.16-.59ZM47.66,10.33c.13.32.24.85.28,1.2.01.09,0,.19,0,.28,0,.02,0,.07.04.06l.02-.2c.09.32,0,.66.09.99-.04,0-.04-.04-.05-.07-.08-.25-.1-.56-.13-.83-.1.06-.01.22,0,.32.01.15,0,.66-.04.79,0,.03,0,.07-.04.08,0-.26,0-.51-.02-.77-.06,0-.04-.01-.05-.05-.06-.22-.07-.49-.08-.72l.13.59c0,.06,0,.12,0,.18.04,0,.02-.04.02-.08.01-.34-.07-.89-.11-1.25-.02-.2-.07-.39-.11-.58.04,0,.04.04.05.07ZM47.61,11.52c0-.06-.06-.16.02-.15l-.02.15ZM47.63,11.68v-.11h.02v.11h-.02ZM47.54,12.85c-.02.12.03.39,0,.49,0,.01-.08.06-.09.05v-.08s.09-.47.09-.47ZM47.82,17.23v-.02s.01.01,0,.02ZM45.06,14.65c-.04.09-.05.5-.1.53-.06.04-.11.04-.09-.04h-.02c-.03.13-.08.08-.2.13-.03-.23-.09-.45-.09-.68.17,0,.33.07.51.07ZM43.73,14.27c.26.09.45.27.73.3l.06.57c-.28-.38-.6-.69-1.06-.85l-.14-.09c.13,0,.29.04.41.08ZM42.36,16.81c.07.16.06.34.06.52,0,.03-.02.05-.02.05,0,.04,0,.12,0,.15,0,0,.02,0,.02.01,0,.01-.03.03-.04-.01,0-.03,0-.11,0-.15,0-.09.02-.18.02-.25,0-.09-.04-.22-.03-.32ZM42.3,16.24h.01s-.08.09-.08.09h-.01s.08-.09.08-.09ZM41.53,17.16h.01s-.05.07-.05.07h-.01s.05-.07.05-.07ZM41.25,17.66c-.06.16-.23.16-.34.23-.05.03-.08.08-.13.12-.15.1-.29.18-.48.19-.03-.03.12-.13.14-.14.17-.1.39-.16.56-.26.23-.13.24-.33.39-.51.01-.02.05-.07.08-.05.02.02-.23.34-.22.41ZM42.58,17.91v-.02s.01.01,0,.02ZM43.82,17.45l-.02-.02.09-.09-.07.11ZM44.14,17.25v-.02s.01.01,0,.02ZM44.15,16.84s-.17.1-.2.12c-.13.1-.35.27-.46.39-.03.03-.07.12-.09.13-.05.03-.19.02-.26.05-.03.01-.04.05-.06.07-.09.06-.37.08-.49.09-.4.05-.81.04-1.21.13.14-.46.45-.84.68-1.25.04-.07.06-.17.14-.22,0,.07-.1.16-.12.22-.04.13.01.11.04.18.07,0,.18-.03.22.04-.07,0-.15,0-.22,0-.21.02-.42.42-.17.4.08,0,.22-.18.32-.02-.04,0-.04.04-.07.05-.17.07-.42.11-.58.21-.1.06-.03.09.05.11.11.03.35-.02.31.14.07,0,.06-.13.07-.13.02-.02.39.16.53.13.5-.08,1.01-.58,1.46-.82.01,0,.13-.08.1,0ZM42.27,17.23v-.02s.01.01,0,.02ZM44.18,16.81s.02-.07.04-.04c.02.02-.02.07-.04.04ZM44.25,16.77v-.02s.01.01,0,.02ZM45.43,16.58c-.55.23-.92-.12-1.1-.63-.09.02-.18.16-.24.19-.03.02-.24.03-.29.03-.04,0-.1,0-.14,0-.06.02,0,.08-.01.08-.05.04-.72.04-.66.35.01,0,.03-.01.04-.02.02-.01.05-.05.09-.07.08-.04.41-.11.49-.1.02,0,0,.06.07.05.01,0,0-.05.04-.05.02,0,.1.02.1.03,0,0-.04.07.01.09.04,0,.08-.1.11-.04.06.11-.07.09-.06.14,0,.02.07.06.1.05.04,0,.06-.08.1-.11.02-.01.22-.1.23-.09,0,.06-.07.11-.11.14-.17.13-.46.24-.66.39-.01,0-.03.05-.07.08-.32.22-.6.46-1.02.47-.07,0,.13-.53.14-.57.02-.07.05-.15.07-.22,0-.03.01-.07.02-.11.03-.12.05-.25.09-.37.02-.06.06-.16.07-.2,0-.05,0-.25-.06-.26-.05-.01-.08.13-.14.12.06-.18-.13-.39-.2-.56-.03-.07-.05-.15-.07-.22-.05-.24-.03-.34.07-.55.03-.06.05-.08.07-.11.08-.15.17-.42.38-.39.2.03.87.46,1.03.6.23.21.38.51.61.73l.62-.21c.09-.09.14-.19.29-.16,0,.04-.02.05-.05.07-.04.04-.12.11-.17.14-.1.06-.26.07-.34.12-.07.05.1.04.07.1-.04,0-.09.05-.12.04-.02,0-.08-.13-.12-.09-.04.04.09.24-.04.2.07.14-.05.05-.07.15.07.01.15.04.08.11-.03.02-.07,0-.05.07.12.01.18.13.02.11l.07.13-.11.04c.23.01.12.04.14.12.02.07.26.14.34.15.12,0,.42-.03.48-.13.03-.04-.02-.12.04-.11.1.13-.06.23-.16.27ZM45.9,16.74v-.02s.01.01,0,.02ZM48.09,15.31c-.16.65-.44.92-.78,1.45-.05.08-.12.25-.17.31-.04.04-.1.06-.08,0,.03-.09.17-.31.23-.41.24-.38.71-.92.78-1.37.02-.14,0-.43-.12-.53-.17-.13-.05.25-.05.3,0,.04-.08.06-.07.12.15,0,.06.18.02.28-.22.62-.5.88-.9,1.35-.04.04-.07.09-.11.13-.02.02-.01.09-.08.09-.05,0-.09-.07-.12-.09-.03-.02-.16-.06-.17-.07-.02-.02,0-.05,0-.06-.13-.19-.69-.39-.85-.59-.09-.12.08-.17.06,0,.04.02.06-.05.09-.03.05.02.12.25.14.03l.15.13v-.07s.13.09.13.09c.01,0,0-.06.04-.04l.13.11v-.09s.44.11.52.09l-.4-.21.18-.08c-.17-.01-.34-.04-.5-.06-.2-.02-.35-.07-.54-.14,0-.04.09-.02.12-.02.36.04.62.21,1,.12.01,0,.07-.01.03-.03-.06.02-.11-.04-.15-.04-.17-.02-.42,0-.58-.08-.03-.01-.04-.04.01-.03.15.02.29.06.44.07.16,0,.32,0,.47,0l-.73-.13.16-.04h.52s0-.02,0-.02c-.02-.02-.24-.06-.29-.07-.35-.03-.69.06-1.02.04-.11,0-.23-.04-.34-.04.07.09.24.14.35.18.05.01.11,0,.15.03,0,.02-.13.01-.15.01-.05,0-.25-.07-.26-.07-.04.03.03.05.04.06.04.04.09.07.13.1.02.01.07.02.07.03-.02.04-.06,0-.07-.01-.13-.03-.37-.11-.38-.28,0-.02,0-.2.01-.21.03-.11.26-.3.31-.4.07-.15.14-.25.28-.36.16-.13.35-.17.51-.3.11-.09.24-.3.31-.35.03-.02.4-.15.44-.15.08-.01.13.01.18.07-.18.13-.04.41.09.53.11.1.33.13.36.3,0,.04.03.19.03.23.02.26-.04.28-.13.47-.11.25-.19.37-.33.59-.01.02-.13.21-.06.18.04-.02.19-.25.23-.3.08-.13.15-.26.22-.37.16-.27.24-.68.07-.97-.06-.11-.21-.12-.27-.2.03,0,.19,0,.2-.02.06-.09-.25-.21-.22,0,.02,0,.02.02.02.02,0,0-.02-.02-.02-.02-.08-.03-.17-.15-.15-.24.14,0,.3.07.42.14.19.12.36.29.45.5.07.17.01.27-.03.43ZM46.4,16.17s-.02.07-.04.04c-.02-.02.02-.07.04-.04ZM49.15,12.12s-.02.07-.04.04.02-.07.04-.04ZM48.84,12.67s-.07.03-.07.03c-.02-.02.21-.35.22-.4l.11-.1-.26.48ZM49.01,13.36s.02-.07.04-.04-.02.07-.04.04ZM48.97,13.42s.02-.07.04-.04-.02.07-.04.04ZM49.06,13.29s.02-.07.04-.04-.02.07-.04.04ZM49,12.76v-.02s.01.01,0,.02ZM49.08,12.96l-.03.12-.19.23.22-.35ZM48.85,13.33s.01.01,0,.02v-.02ZM48.86,13.57l.11-.13-.07.13-.08.08.05-.09ZM48.6,14.68s-.01-.08.03-.09c0,.01-.03.08-.03.09ZM48.7,14.52s0,.05-.06.04c.01-.03,0-.08.01-.11.02-.04.17-.22.22-.27,0,0,.02-.08.06-.04.02.02-.2.33-.23.38ZM48.93,14.13s.02-.07.04-.04-.02.07-.04.04ZM49.03,14.02s-.02.08-.06.04c-.02-.02.1-.19.12-.22,0-.01.02-.08.06-.04.02.02-.1.19-.12.22ZM49.16,13.77s.04-.13.05-.11c0,.05-.02.08-.05.11ZM49.17,13.15s0,.09-.06.07c-.02-.06.03-.04.04-.06.02-.03,0-.09.06-.07.02.06-.03.04-.04.06ZM49.31,12.97s-.08.09-.1.09l.19-.27c-.02.06-.05.14-.09.19ZM49.42,12.76v-.02s.01.01,0,.02ZM49.43,12.72l.11-.29c0,.09-.04.23-.11.29ZM49.87,13.82c-.12-.03-.21-.07-.26-.02l.31-.62c.05-.02.05.12.07.15.01.03.05.04.05.07h-.15c.01.06.04.06-.02.08.02.07.39.08.4.23-.18.03-.33-.1-.51-.11-.02.12.04.15.11.22ZM50.18,13.92c-.08-.02-.23-.04-.28-.1.16.03.32.09.48.09.02.08-.16.02-.2.02Z" fill="#05185c"/>
    <path d="M37.31,6.98c.1,0,.2,0,.3,0,.83-.04,2.62-.61,3.39-.96.04-.02.54-.29.51-.31-.02,0-.04,0-.07,0-1.12.58-2.36.91-3.58,1.2l-.55.07Z" fill="#05185c"/>
    <path d="M47.12,8.65s-.04-.02-.04-.02c.02.01.04.02.04.02Z" fill="#05185c"/>
    <path d="M46.44,2.49s0,0,.01-.01c0,0,0,0-.01.01Z" fill="#05185c"/>
    <path d="M46.45,2.48s0,0,.01-.01c0,0,0,0-.01.01Z" fill="#05185c"/>
    <path d="M47.01,11.33s0,.03.02.02c0-.02-.02-.02-.02-.02Z" fill="#05185c"/>
    <path d="M49.74,9.09s.01.01.02.02c0,0-.01-.02-.02-.02Z" fill="#05185c"/>
    <path d="M46.43,2.5s0,0,.01-.01c0,0,0,0-.01.01Z" fill="#05185c"/>
    <path d="M46.42,2.51s0,0,.01-.01c0,0,0,0-.01.01Z" fill="#05185c"/>
    <path d="M41.93,3.41s.08-.11.12,0c.07-.07.14-.14.21-.22,0,0-.03,0-.05,0-.07.04-.12.12-.21.11.11-.14.28-.22.43-.33l-.14.16s-.02.05-.02.05c.18-.1.4-.36.58-.5.12-.09.32-.2.42-.29.11-.11.27-.35.39-.48,0,0-.08.04-.09.01.13-.15.26-.31.33-.49.04,0,.02.05.02.07-.02.09-.17.32-.24.39,0,0,.05,0,.07-.03.15-.17.18-.31.26-.51l-.03-.03s-.14.09-.17.11c-.05.05-.17.23-.24.31-.07.08-.16.15-.22.22-.04.05-.06.13-.09.18-.02.02-.04.04-.04.04-.02.03-.03.05-.07.09-.03.04-.06.06-.09.09,0,0-.01.01-.02.02-.04.05-.09.09-.13.13-.08.08-.15.17-.24.24-.04.03-.03.06-.11.07-.02.04-.06.06-.09.08-.09.05-.25.13-.33.19-.01,0-.02.03-.04.04-.08.07-.1.13-.22.2-.05.03-.09.07-.15.07-.06.06-.15.08-.22.11-.03.01-.06.02-.07.02-.03.03-.19.26-.22.31,0,.02-.04.08-.04.09-.03.08-.04.18-.07.26,0,.02-.02.05-.02.07-.03.11-.02.13-.09.24-.01.03-.02.06-.02.09.09-.08.17-.14.22-.25l-.07.03c.04-.3.13-.64.42-.79,0,0-.04.1-.01.09.05-.03.09-.04.08-.11,0,0-.02,0-.02,0,.02-.01.02,0,.02,0,.05-.03.1-.05.14-.09.04.03-.03.07-.05.1-.08.13-.12.3-.16.45.13-.23.14-.47.4-.59ZM43.53,1.96h.01s-.05.07-.05.07h-.01s.05-.07.05-.07ZM43.16,2.33s.18-.22.22-.24c.03-.02.05-.04.09-.03-.09.11-.17.22-.27.31-.02.02-.04.05-.08.04,0-.04.02-.05.04-.08Z" fill="#05185c"/>
    <path d="M46.41,2.52s0,0,.01-.01c0,0,0,0-.01.01Z" fill="#05185c"/>
    <path d="M46.4,2.54s0,0,.01-.01c0,0,0,0-.01.01Z" fill="#05185c"/>
    <path d="M46.53,2.51s-.02.01-.02.02c0,0,.01-.01.02-.02Z" fill="#05185c"/>
    <path d="M38.72,6.6l-.1.07c.06,0,.12-.05.16-.07-.01,0-.05,0-.07,0Z" fill="#05185c"/>
    <path d="M46.37,2.56s0,0,.01-.01c0,0,0,0-.01.01Z" fill="#05185c"/>
    <path d="M46.39,2.55s0,0,.01-.01c0,0,0,0-.01.01Z" fill="#05185c"/>
    <path d="M46.51,2.54s0,0-.01.01c0,0,0,0,.01-.01Z" fill="#05185c"/>
    <path d="M46.5,2.55s0,0-.01.01c0,0,0,0,.01-.01Z" fill="#05185c"/>
    <path d="M42.53,5.06s-.02,0-.02,0c0,0,0,.01,0,.02.01,0,.03-.01.02-.02Z" fill="#05185c"/>
    <path d="M44.53,4.47s-.04,0-.07,0l.21.09-.14-.09Z" fill="#05185c"/>
    <path d="M46.48,2.56s-.02.01-.02.02c0,0,.01-.02.02-.02Z" fill="#05185c"/>
    <path d="M49.65,6.21s-.03-.1-.07-.13c0,0-.04-.02-.04-.02.02.05.02.12.11.15Z" fill="#05185c"/>
    <path d="M46.46,2.58s-.01.01-.02.02c0,0,.02-.01.02-.02Z" fill="#05185c"/>
    <path d="M46.44,2.6s-.01.01-.02.02c0,0,.01-.01.02-.02Z" fill="#05185c"/>
    <path d="M41.6,5.31s.06.02.09.02c.01-.03-.09-.02-.04-.07,0,0,.17-.1.21-.13.03-.02.03-.06.03-.07-.23.16-.59.39-.83.52-.42.22-1.17.42-1.52.69.46-.14,1.26-.49,1.69-.72.06-.03.35-.24.37-.24Z" fill="#05185c"/>
    <path d="M46.42,2.62s-.01-.02-.04.04c.03-.03.03-.03.04-.04Z" fill="#05185c"/>
    <path d="M41.65,6.49h.09s-.07-.03-.09-.02c0,0,0,.02,0,.02Z" fill="#05185c"/>
    <path d="M41.95,5.06s0-.04,0-.04c-.02.01-.04.03-.07.04,0,0,.05,0,.06,0Z" fill="#05185c"/>
    <path d="M44.07,7.79s.04.03.07.04c.64.24,1.14.37,1.74.73-.42-.39-1.12-.59-1.68-.75-.04-.01-.08-.03-.12-.02Z" fill="#05185c"/>
    <path d="M46.37,2.67s0,0,0,.01c0,0,0,0,0-.01Z" fill="#05185c"/>
    <path d="M46.36,2.68s0,0-.01.01c0,0,0,0,.01-.01Z" fill="#05185c"/>
    <path d="M40.3,6.54c-.55.14-1.11.28-1.64.48l-.36.07c.24,0,.47-.04.71-.09.21-.05.4-.13.6-.19.27-.08.54-.11.8-.22-.06,0-.13.02-.11-.04ZM40.17,6.63s.01-.04.04-.02c.01,0-.01.04-.04.02ZM40.24,6.6s.01-.04.04-.02c.01,0-.01.04-.04.02Z" fill="#05185c"/>
    <path d="M46.22,3.06c.25,0,.44-.16.59-.33.01-.01.08-.04.04-.07-.05-.04-.21.15-.28.15,0-.06.06-.1.1-.14-.01-.02-.03,0-.04.01-.03.05-.08.09-.12.13-.02.02-.05.02-.06.02,0,.01-.02.02-.02.02,0,0-.01.02-.02.02,0,0-.01.05-.04.08-.05.05-.12.05-.16.1Z" fill="#05185c"/>
    <path d="M51.41,15.41c.02.3.3.37.44.55.05.07.14.31.18.33.03.02.06,0,.09.01l-.02-.04c.1-.04.63.22.66.2,0-.05-.02-.05-.05-.07-.12-.09-.32-.16-.45-.25-.19-.12-.43-.32-.58-.49-.04-.04-.16-.23-.19-.24,0,0-.07,0-.07.01Z" fill="#05185c"/>
    <path d="M50.78,16.69s.05-.17.06-.18c.02-.04.38.02.45.04.02,0,.07,0,.06.04-.17.02-.53,0-.53.24.02,0,.04.03.08.04.09.02.3.04.39.02.01,0-.03-.06.09-.08.41-.07.84.17,1.26.13-.43-.16-.89-.17-1.35-.22-.02,0-.1,0-.1-.04h1.29c.25-.11.58.08.87.11-.32-.12-.71-.27-1.05-.31-.36-.03-.74.04-1.1.02-.11,0-.21-.04-.32-.02,0,0,.02-.13.04-.13.1-.03.37.03.5.02.08,0,.4-.04.44-.11,0,0-.04-.18-.06-.18l-.75-.06s-.13-.06-.12-.1c0-.02.05-.02.06-.04.01-.02,0-.06,0-.06.01-.01.19.08.22.09.04.01.07,0,.11.02v-.02c-.07-.03-.13-.05-.2-.09-.07-.04-.12-.04-.15-.12.06,0,.13.08.18.1.06.02.17.03.25.05.02,0,.23.13.19.05-.03-.08-.34-.2-.43-.25-.09-.05-.15-.14-.27-.11,0-.04.06-.03.07-.06,0-.01-.07-.2-.08-.25-.02-.11-.05-.22-.05-.33-.03,0-.04.06-.04.08,0,.21.02.37,0,.58,0,.04,0,.08,0,.12,0,.03,0,.12-.04.12,0-.1,0-.19,0-.29,0-.44,0-.88-.07-1.32.2.1.1.29.13.45.02.1.3.25.38.32.1.08.18.19.28.27-.17.04-.34-.12-.49-.1-.12.01.03.05.05.06.16.08.32.14.47.2.17.08.3.22.41.26.06.02.16.02.16.02,0,0,0,.11.02.17.06.16.32.28.49.25l-.05-.13c.06.04.13.04.19.07v-.02c-.09-.06-.19-.14-.28-.19-.28-.17-.62-.27-.75-.6-.09-.01-.1-.09-.15-.13-.08-.07-.22-.14-.26-.24-.11-.04-.2-.13-.26-.22-.11-.14-.06-.18-.11-.31-.02-.04-.09-.11-.09-.18-.06-.04-.26-.41-.33-.35,0,.02,0,.04,0,.07,0,.02.02.02.02.07.02.03.08.06.08.12,0,.09-.03.23-.04.31,0,.2,0,.39-.02.58,0,.08-.02.17-.02.24-.02.21-.02.41-.04.62-.01.11-.03.22-.04.33-.02.17-.03.34-.04.51,0,.09-.03.2-.04.29,0,.09,0,.16,0,.23-.05.42-.09.85-.18,1.27-.44-.08-.9-.03-1.35-.04-.05,0-.22-.07-.21.02.05,0,.09.01.13.02.21.04.5.08.72.09.34.02.69-.06,1,.09.03-.26.12-.51.18-.77.07-.33.13-.66.2-.99,0-.04,0-.09,0-.14ZM52.47,16.08c-.13-.09-.27-.18-.35-.32.16.03.34.14.35.32Z" fill="#05185c"/>
    <path d="M44.35,8.36s-.05-.06-.07,0c.02,0,.05,0,.07,0Z" fill="#05185c"/>
    <path d="M47.47,7.73s.04,0-.07-.04c.04.04.03.02.07.04Z" fill="#05185c"/>
    <path d="M47.47,7.73s0,0,0,0c0,0,0,0,0,0Z" fill="#05185c"/>
    <path d="M47.48,7.73s.02.02.04.02c-.01-.01-.03-.02-.04-.02Z" fill="#05185c"/>
    <path d="M47.36,2.16s-.07,0-.1,0c-.22.1-.54.34-.72.49-.07.06-.06.07-.09.14.05-.04.1-.09.15-.13.28-.22.41-.33.75-.51Z" fill="#05185c"/>
    <path d="M40.92,4.58v.04s.03-.03.04-.04c-.01,0-.03,0-.04,0Z" fill="#05185c"/>
    <path d="M46.07,2.82s.03,0,.04-.02c-.01,0-.04,0-.04.02Z" fill="#05185c"/>
    <path d="M49.67,6.21c0,.06.03.06.02,0,0,0-.01,0-.02,0Z" fill="#05185c"/>
    <path d="M49.55,5.66s.01-.01,0-.02v.02Z" fill="#05185c"/>
    <path d="M43.12,13.69s-.03.09-.04.13c-.01.03-.03.06-.04.09-.01.02-.01.05-.02.07l.11.02c-.01-.05.04-.08.05-.11,0-.03,0-.03.02-.07.05-.15.09-.33.13-.48-.08.09-.15.24-.2.35Z" fill="#05185c"/>
    <path d="M43.19,14.02s.05-.21.04-.22c-.01,0-.04.02-.04.02,0,.02-.01.04-.02.07,0,.02-.04.19.02.13Z" fill="#05185c"/>
    <path d="M42.99,18.41c-.07-.08-.02.17-.02.19.03.98.11,1.94.15,2.92,0,.03,0,.24-.01.24-.03-.08-.02-.16-.03-.24-.06-.54-.14-1.13-.27-1.65-.02-.09-.09-.21-.1-.29-.03-.23.02-.56-.06-.78-.02-.05-.11-.2-.14-.1,0,.02.05.25.06.31.02.12.02.24.02.36-.13-.08-.22-.41-.3-.48-.15-.14-.02.2,0,.26.12.27.22.42.3.73.15.62.26,1.39.3,2.02,0,.03,0,.18-.01.18-.03-.05-.02-.12-.03-.18-.16-.73-.44-1.7-.79-2.35-.03-.05-.17-.32-.19-.34-.08-.08-.1.02-.08.11.02.1.1.18.13.24.33.73.67,1.86.8,2.64.01.06.04.14.01.2-.02,0-.05-.17-.05-.2-.22-.76-.56-1.54-.99-2.2-.07-.03-.07-.1-.09-.11,0,0-.04,0-.07-.03-.06-.06-.1-.17-.2-.13.44.53.72,1.19.94,1.84.01.03,0,.07.01.09,0,.02.1.1.07.18-.06-.03-.07-.12-.09-.18-.17-.42-.39-.91-.7-1.24-.07-.08-.34-.27-.36-.33-.02-.05.01-.09,0-.13-.01-.09-.03-.3-.15-.26-.04.04.08.36.11.43.07.13.28.31.38.46.28.4.58,1.13.78,1.6.02.04.02.06.02.1,0,0,.03,0,.02.04-.03,0-.03-.03-.04-.04-.16-.18-.27-.45-.37-.67-.07-.14-.11-.29-.18-.42-.01-.03-.04-.07-.04,0,.09.6.46,1.06.68,1.59.11.27.25.56.29.86-.09-.11-.11-.3-.16-.44-.04-.12-.09-.27-.15-.39-.1-.21-.27-.36-.37-.56-.16-.31-.26-.69-.41-1.02-.21-.44-.4-.89-.61-1.33-.02-.04-.1-.14-.1-.16-.01-.09.36-.23.44-.28.13-.07.68-.44.72-.55.03-.06.02-.15-.06-.12-.02,0-.26.2-.33.24-.21.12-.56.22-.73.39-.1.1-.1.24-.3.2-.01.15.15.22.23.33.05.06.09.14.12.21.29.62.55,1.25.8,1.88.19.48.51.84.7,1.35.03.09.04.22.08.29.02.04.06.04.07.07.05.11.06.36.11.03.03-.04.07.2.07.23,0,.05-.05.01-.05.05.07,0,.08.14.09.2.1.41.1.73.1,1.14,0,.05-.01.1.03.13.05.02.11-.07.12-.11.12-.3.16-.93.18-1.26.06-1.62-.02-3.4-.22-5.01-.01-.09-.08-.69-.11-.72ZM42.36,21.87v-.02s.01.01,0,.02Z" fill="#05185c"/>
    <path d="M42.61,20.55c-.07-.51-.28-.99-.44-1.47-.06-.02-.06.05-.06.09.01.22.21.74.29.96.05.14.12.31.21.42Z" fill="#05185c"/>
    <path d="M42.17,18.2c-.03-.06-.31.02-.38.02-.16,0-.33-.03-.46-.02-.25.01.08.12.18.13.22.03.45-.03.67-.02,0-.03.01-.08,0-.11Z" fill="#05185c"/>
    <path d="M42.86,19.8l.02-.77s-.04.04-.04.08c-.02.13-.06.49-.03.61,0,.03.02.08.06.09Z" fill="#05185c"/>
    <path d="M46.55,20.04s-.07,0-.11.01c-.13.05-.64.59-.75.73-.12.15-.37.56-.4.75,0,.04,0,.03.04.03.12-.29.49-.7.71-.95.05-.05.55-.52.5-.57Z" fill="#05185c"/>
    <path d="M49.48,19.45c-.1-.12-.19-.25-.29-.37-.04-.04-.07-.09-.11-.13-.02-.02-.05-.04-.08-.07-.18-.21-.28-.46-.6-.46-.14,0-.13.04-.23.09-.14.06-.3.1-.43.18,0,0,0,.05,0,.07.22-.01.6-.25.8-.19.11.03.15.23.21.31.06.08.16.1.22.19-.09-.02-.07.09-.13.17-.08.11-.44.2-.59.27-.2.09-.49.23-.65.37-.31.25-.4.59-.65.86-.44.47-.89.92-1.31,1.42-.03.03-.07.04-.09.07-.22.27-.35.67-.59.93.02-.12.09-.24.15-.34.28-.51.67-1.06,1-1.53.25-.23.53-.46.76-.71.05-.05.32-.36.33-.4.03-.09-.13.02-.14.03-.32.25-.66.61-.96.89-.43.41-.53.65-.85,1.13-.02.03-.02.11-.07.06.19-.36.4-.74.67-1.04.41-.48.89-.89,1.31-1.39.23-.27.29-.38.59-.57.07-.05.11-.12.22-.13.1-.11.63-.24.62-.41-.02-.17-.32-.06-.4.02.07-.01.13-.03.21-.03.03,0,.11-.02.1.03-.09.09-.23.11-.33.17-.79.4-.98.76-1.57,1.34-.09.09-.23.18-.32.27-.32.32-.65.63-.9,1.01-.01.02-.03.01-.04.02-.03.08-.02.04-.11.07-.01-.02.04-.32.05-.37.07-.3.19-.48.32-.75.17-.36.2-.5.46-.81.05-.07.07-.07.11-.11.22-.23.48-.4.69-.64.14-.17.32-.41.45-.59.03-.04.08-.09.09-.11.02-.03.14-.22.05-.22-.06,0-.03.04-.05.07-.06.07-.14.14-.2.21-.19.25-.34.53-.57.75-.13.13-.25.18-.39.29-.22.17-.52.56-.65.81-.02.03-.02.09-.04.13-.12.25-.3.59-.37.85-.07.22-.07.47-.12.69-.09.42-.2.75-.23,1.2-.05.66-.08,1.32-.13,1.98,0,.07-.07.3-.02.34.16-.03.26-.04.37-.16.21-.24.53-.98.7-1.31.01-.02.01-.07.02-.09.04-.08.09-.15.13-.22.08-.16.18-.31.26-.46.01-.02.02-.05.04-.09.03-.04.04-.07.07-.11.25-.38.77-.78,1.09-1.12.06-.06.17-.24.21-.28.08-.06.02.09,0,.12.06-.06.18-.23.21-.31.01-.03-.02-.06,0-.1.1-.16.42-.28.57-.4.11-.08.18-.2.3-.27.1-.06.19-.08.3-.17.14-.11.17-.23.26-.35.08-.1.21-.2.26-.32.02-.05.05-.12.04-.18-.04-.01-.05-.06-.07-.09ZM45.22,21.65s.01.01,0,.02v-.02ZM45.18,22.31s.01.01,0,.02v-.02ZM45.17,22.35s-.06.13-.07.11c0-.04.02-.15.07-.11ZM46.91,21.05l.08-.04s-.13.17-.18.15l.1-.11ZM46.28,22.04s.01.01,0,.02v-.02ZM44.92,24.4l.06-.21.25-.47c0,.25-.16.49-.31.68ZM45.17,23.36s.28-.45.32-.53c.07-.14.11-.29.19-.43.13-.22.36-.4.51-.61,0,.37-.35.55-.51.83-.11.2-.16.37-.32.56-.02.02-.17.19-.2.17ZM45.59,23.54v-.02s.01.01,0,.02ZM47.64,21.47v-.02s.01.01,0,.02ZM47.55,21.14c-.19.22-.37.51-.63.65-.1.05-.21.08-.3.14-.2.12-.24.27-.36.45-.1.14-.22.26-.3.4-.13.23-.19.51-.36.71.15-.61.4-1.08.86-1.51.07-.06.17-.12.23-.19.34-.33.61-.7,1.07-.88l-.21.22ZM47.79,20.92v-.02s.01.01,0,.02ZM48.05,20.64c-.07-.07.21-.18.26-.15-.02.05-.23.19-.26.15ZM49.04,19.76c-.02.07,0,.08-.05.16-.09.18-.44.42-.63.5-.1.04-.3.06-.36.1-.09.06.03.16-.05.25-.05.06-.44.19-.55.24-.32.17-.57.54-.84.79-.08.08-.18.15-.26.22-.03-.04.02-.12.04-.16.2-.42.88-.79,1.23-1.1.16-.15.22-.32.43-.43.23-.11.36-.21.57-.33.17-.09.29-.11.45-.25.01-.01.02-.05.04-.04.01.04-.02.04-.02.04ZM49.07,19.69v-.02s.01.01,0,.02ZM49.34,19.58s-.12,0-.15.07v-.14c-.08-.05-.09.07-.13.11-.18.2-.31.17-.51.27-.08.04-.17.16-.27.21-.14.07-.29.08-.44.19-.2.14-.38.36-.56.53l-.27.18s.21-.3.25-.36c.07-.12.11-.25.17-.37.13-.23.27-.33.48-.46.14-.09.21-.11.35-.18.16-.07.31-.11.46-.18.06-.02.16-.08.19-.12l.08-.25c.07.04.39.46.34.51Z" fill="#05185c"/>
    <path d="M49.44,18.57c-.26-.01-.51-.06-.76-.13.17.09.3.32.5.35.16.02.45,0,.61,0,.15,0,.4-.07.54-.07.02-.02.03-.09.02-.11-.05-.07-.77-.04-.91-.05Z" fill="#05185c"/>
    <path d="M53.33,17.87c-.25-.06-.54-.08-.8-.12-.4-.05-.89-.14-1.29-.13-.04,0-.09-.01-.12.02.21.01.48.1.7.13.52.07,1.05.1,1.57.13,0-.03-.04-.03-.06-.04Z" fill="#05185c"/>
    <path d="M50.66,17.65l.02.09s.09.02.09-.07c-.03,0-.07-.04-.11-.02Z" fill="#05185c"/>
    <path d="M53.41,16.41s-.11-.03-.15-.04c-.18-.07-.36-.14-.55-.15,0,.03.05.05.07.07.12.07.85.32,1,.36.02,0,.09.03.09-.01-.16-.04-.31-.16-.46-.22Z" fill="#05185c"/>
    <path d="M52.41,17.36c.09,0,.2.02.3.03.04,0,.07.05.06-.03-.12,0-.23-.05-.33-.07-.44-.05-1.03-.13-1.46-.09-.15.02-.34.13-.1.17.41.07,1.08-.04,1.54-.02Z" fill="#05185c"/>
    <path d="M51.97,17.18s.12.02.1-.04l-.31-.02c.03.05.16.06.21.07Z" fill="#05185c"/>
    <path d="M44.86,2.13c-.06.05.03.03.02.04-.03.06-.64.37-.72.38-.59.06-.95.32-1.4.69-.1.08-.16.18-.28.25-.44.26-.85.84-1.27,1.2-.85.73-1.96,1.09-2.93,1.63l-1.15.46.4-.07-.04-.04c.7-.21,1.34-.59,1.99-.9.19-.09.39-.18.59-.27.4-.19.79-.46,1.14-.75.67-.55,1.22-1.22,1.91-1.74.2-.15.5-.34.75-.37.04,0,.04.03.03.04,0,0-.05,0-.08.02-.98.59-1.42,1.12-2.22,1.88-.04.04-.11.07-.16.12-.03.02-.07.05,0,.03.02-.01.05-.01.06-.02.72-.67,1.47-1.5,2.35-1.97.29-.16.6-.21.9-.38.21-.12.67-.38.73-.62,0-.02,0-.16-.04-.11,0,0-.05.12-.07.16-.02.03-.03.09-.08.08.05-.1.06-.18.09-.29-.09.13-.15.3-.29.41-.07.05-.17.08-.24.13ZM45.26,1.92h.01s-.05.07-.05.07h-.01s.05-.07.05-.07ZM45.18,1.99s-.03.06-.03.03l.03-.03Z" fill="#05185c"/>
    <path d="M37.69,7.07s0-.04-.03-.04c-.34-.04-.72.09-1.07.09.01.03.1.05.13.06.16.05.43.12.59.14.12.01.25,0,.36,0-.03-.08-.12-.02-.17-.03-.06,0-.14-.01-.19-.02-.03,0-.13,0-.14-.04.15-.01.29.04.45.02.03,0,.09-.01.08-.04l-.09-.02c.17-.02.34-.05.51-.05l.17-.04c-.41-.02-.81.03-1.21.07l.23-.06.38-.02ZM37.42,7.2h.13v.02h-.13v-.02ZM36.98,7.19s-.11,0-.11-.03l.18.02s-.04.01-.07.01ZM37.14,7.2v.02c-.09.01-.09-.03,0-.02Z" fill="#05185c"/>
    <path d="M44.04,2.07l.02-.25-.09-.32s-.01.08-.03.12c-.24.56-.77.87-1.2,1.26.16-.06.28-.2.42-.28.25-.14.59-.22.83-.36.06-.03.1-.07.14-.12v.07s.22-.11.22-.11c-.02.07-.05.04-.08.11.21-.09.58-.22.72-.38.02-.03.04-.08.05-.11-.05-.04-.05.05-.09.09-.02.02-.16.14-.17.12,0-.08.1-.11.09-.2l-.17.15-.04-.09s-.1.05-.1.11c-.05-.01.02-.09-.08-.07-.06.01-.03.06-.08.07l-.02-.13-.04.04v-.13c-.08.09-.13-.08-.15-.12-.01-.02-.04-.01-.04-.02-.01.12-.06,0-.09-.07v-.02s-.04-.02-.04.03c0,.21.16.39.02.61ZM44.24,1.79h-.02s-.02-.11-.02-.11c.01-.03.05.08.04.11ZM44.19,1.63s.01.01,0,.02v-.02ZM44.16,1.59s.01.01,0,.02v-.02Z" fill="#05185c"/>
    <path d="M42.34,3.41s-.05.08-.08.12l.31-.29c.44-.47,1-.65,1.53-.96.08-.04.15-.03.18-.11-.78.34-1.39.53-1.95,1.23Z" fill="#05185c"/>
    <path d="M38.18,6.58s-.06.01-.07.05c.44-.11.87-.25,1.29-.41.15-.06,1.07-.45,1.11-.54.02-.05-.05-.03-.07-.03-.26.32-1.79.76-2.26.94Z" fill="#05185c"/>
    <path d="M40.54,5.64c.06-.03.01-.07-.01-.04,0,0,0,.05.01.04Z" fill="#05185c"/>
    <path d="M40.78,5.37c-.1.01-.3.18-.39.25,0,.02.03,0,.04.01.05-.06.07-.03.09-.04,0,0,.02-.04.04-.05.04-.03.23-.11.24-.12.01-.02,0-.05-.03-.04Z" fill="#05185c"/>
    <path d="M40.81,5.22s-.55.33-.62.38c-.2.12-.42.22-.62.32l-.93.38c.78-.2,1.49-.55,2.14-1.02.01,0,.08-.02.04-.06Z" fill="#05185c"/>
    <path d="M38.07,7.24c.69-.07,1.4-.24,2.06-.47.02,0,.07,0,.06-.04-.53.06-1.02.3-1.54.41-.26.05-.44.03-.69.06-.02,0-.34.04-.28.11.01.01.32-.06.39-.07Z" fill="#05185c"/>
    <path d="M44.53,2.14s.04,0,.07,0c0,.06-.09.03-.11.04,0,0-.02.03-.04.04-.17.09-.34.19-.54.25,0,.04.05.02.07.02.39-.07.8-.42,1.16-.59h-.11s.07-.04.09-.08c.01-.03,0-.04-.03-.03-.07.03-.18.17-.26.22-.08.05-.2.09-.3.13Z" fill="#05185c"/>
    <path d="M44.48,2.16s-.07-.01-.07.01c0,.02.06.01.07.01,0,0,0-.02,0-.02Z" fill="#05185c"/>
    <path d="M44.48,2.16s.03-.01.04-.02c-.02,0-.03.02-.04.02Z" fill="#05185c"/>
    <path d="M43.79,3.31c-.06.03-.18.04-.19.13.06.02.13-.08.14-.08.01,0,.04.02.07.01.21-.06.35-.16.54-.26l-.04-.03.13-.12c-.23.07-.44.23-.65.35Z" fill="#05185c"/>
    <path d="M42.55,4.39l-.88.67c.31-.17.65-.4.88-.67Z" fill="#05185c"/>
    <path d="M40.7,5.64c.26-.09.51-.24.73-.41.01,0,.08-.02.04-.06-.03-.02-.56.34-.64.36l-.13.11Z" fill="#05185c"/>
    <path d="M37.3,7.37c.13,0,.26,0,.38,0,0-.04-.05-.02-.08-.02-.25,0-.48-.03-.73-.09l.16.08c.09,0,.19.02.26.03Z" fill="#05185c"/>
    <path d="M36.54,7.26c.09.09.23.18.35.21-.09-.1-.23-.18-.35-.21Z" fill="#05185c"/>
    <path d="M42.18,4.58s.22-.16.19-.2c-.03-.03-.19.15-.19.2Z" fill="#05185c"/>
    <path d="M41.49,5.17s.19-.08.15-.11c-.02-.01-.19.08-.15.11Z" fill="#05185c"/>
    <path d="M42.66,4.01c-.07-.02-.04.04-.06.07-.01.02-.05,0-.05.04.07.01.11-.05.11-.11Z" fill="#05185c"/>
    <rect x="36.96" y="6.93" width=".15" height=".02" fill="#05185c"/>
    <path d="M44.32,3.22s0-.03.02-.04c.03-.02.08-.02.1-.06-.02,0-.15.05-.15.06-.01.01,0,.06.03.04Z" fill="#05185c"/>
    <path d="M41.54,4.59c-.05.02-.11.07-.16.11-.01.01-.08.02-.04.06,0,.01.18-.14.2-.17Z" fill="#05185c"/>
    <path d="M40.96,5.02c-.08.01-.14.07-.2.12.07,0,.15-.07.2-.12Z" fill="#05185c"/>
    <path d="M41.56,4.95s-.07.02-.04.04c.02.02.07-.02.04-.04Z" fill="#05185c"/>
    <path d="M38.08,6.65v-.02c-.09-.01-.09.03,0,.02Z" fill="#05185c"/>
    <path d="M37.12,6.8v-.02c-.09-.01-.09.03,0,.02Z" fill="#05185c"/>
    <path d="M40.99,5.02s.06-.01.04-.02c-.03-.02-.06.01-.04.02Z" fill="#05185c"/>
    <path d="M40.67,5.66s.01-.01,0-.02v.02Z" fill="#05185c"/>
    <path d="M40.84,5.35v.02s.01-.01,0-.02Z" fill="#05185c"/>
    <path d="M40.89,5.33v.02s.01-.01,0-.02Z" fill="#05185c"/>
    <path d="M42.56,4.36s.01-.01,0-.02v.02Z" fill="#05185c"/>
    <rect x="42.37" y="4.32" width=".08" height=".01" transform="translate(9.36 31.25) rotate(-45)" fill="#05185c"/>
    <rect x="42.45" y="4.25" width=".08" height=".01" transform="translate(9.43 31.29) rotate(-45)" fill="#05185c"/>
    <path d="M44.3,3.44v.02s.01-.01,0-.02Z" fill="#05185c"/>
    <path d="M44.34,3.41v.02s.01-.01,0-.02Z" fill="#05185c"/>
    <rect x="42.23" y="3.29" width=".08" height=".01" transform="translate(10.05 30.86) rotate(-45)" fill="#05185c"/>
    <path d="M47.62,12.98s.01-.01,0-.02v.02Z" fill="#05185c"/>
    <path d="M46.42,19.62s-.03.05-.07.09c-.17.18-.63.63-.73.81-.01.03-.04.08-.01.11.24-.24.48-.47.72-.71.36-.37.74-.74,1.1-1.11.04-.04.08-.1.13-.15.1-.11.27-.26.35-.37,0-.01.07-.15.07-.15-.15,0-.18.12-.25.2-.43.44-.88.86-1.31,1.3Z" fill="#05185c"/>
    <path d="M48.05,17.82c.13,0,.23.07.35.1.29.07,1.27.15,1.54.06.07-.02.14-.06.14-.14-.37.08-.8.09-1.18.07-.15,0-1.01-.19-1.07-.11-.04.05.08.06.09.07.04-.03.08-.04.13-.04Z" fill="#05185c"/>
    <path d="M48.32,16.74c.07.03.39.05.49.07.33.05.65.09.99.07.09,0,.4-.03.42-.12.02-.11-.26.02-.32.03-.49.06-1.1-.08-1.58-.15-.04,0-.08,0-.12,0-.02.08.09.02.11.05,0,0-.01.05.02.06Z" fill="#05185c"/>
    <path d="M46.99,17.73s-.03,0-.04,0c0,0-.03.01.01.04.18.11.21-.04.03-.04Z" fill="#05185c"/>
    <path d="M37.88,8.78l.49-.04.26-.11c-.36.07-.78.12-1.14.09l-.02.04c.13.02.27.03.41.02Z" fill="#05185c"/>
    <path d="M46,7.97v.02c.16.15.47.45.66.55.01,0,.05.01.07.02-.16-.15-.33-.3-.5-.44-.04-.03-.22-.14-.23-.15Z" fill="#05185c"/>
    <path d="M45.64,7.75l.03-.04c-.33-.15-.66-.3-1.01-.37l.02.04c.33.09.66.2.96.37Z" fill="#05185c"/>
    <path d="M40.26,8.15c.2-.04.79-.1.93-.18-.34.04-.7.09-1.03.18.02.04.07.01.11,0Z" fill="#05185c"/>
    <path d="M42.2,7.46c.3,0,.71.04,1.01.09-.31-.13-.68-.12-1.01-.09Z" fill="#05185c"/>
    <path d="M46.86,7.02c-.23-.06-.46-.12-.68-.2v.04c.24.06.43.13.68.18v-.02Z" fill="#05185c"/>
    <path d="M47.01,7.26v.02c.22.06.43.14.64.22-.14-.11-.35-.19-.52-.24-.04-.01-.08,0-.12,0Z" fill="#05185c"/>
    <path d="M40.11,7.73c.09-.01.2-.01.29-.03.14-.03.28-.05.41-.08v-.02c-.24.02-.47.07-.7.11v.02Z" fill="#05185c"/>
    <path d="M44.88,7.02l.07.07.46.12c-.19-.1-.32-.15-.53-.2Z" fill="#05185c"/>
    <path d="M43.88,7.61c.17.06.34.09.51.14,0,0,.02,0,.02,0-.16-.09-.36-.14-.54-.18-.07,0-.02.03,0,.04Z" fill="#05185c"/>
    <path d="M44.75,6.78c.21.05.44.08.64.13v-.02c-.21-.06-.43-.08-.64-.13v.02Z" fill="#05185c"/>
    <path d="M44.2,6.49l.68.11c-.22-.08-.44-.13-.68-.11Z" fill="#05185c"/>
    <path d="M44.9,6.41c.22-.02.42-.06.64-.09v-.02c-.21.01-.43.04-.64.07v.04Z" fill="#05185c"/>
    <path d="M44.4,6.93v.02c.15.05.29.1.44.13-.04-.03-.1-.05-.09-.09-.12-.03-.24-.04-.35-.07Z" fill="#05185c"/>
    <path d="M45.61,7.95l.41.22s0-.05-.03-.06c-.1-.08-.23-.12-.36-.16,0,0-.02,0-.02,0Z" fill="#05185c"/>
    <path d="M45.34,6.59c.11.07.24.04.35.05v-.02c-.11-.02-.24-.04-.35-.03Z" fill="#05185c"/>
    <path d="M40.07,8.25s-.15.03-.19.04c-.06.02-.02.05-.15.02v.09c.11-.07.25-.08.35-.12.03-.01.04-.04-.01-.03Z" fill="#05185c"/>
    <path d="M47.83,7.59s-.14-.1-.15-.09c-.05.04.13.1.15.09Z" fill="#05185c"/>
    <path d="M48.16,7.84l.26.18h.06c-.1-.08-.21-.13-.32-.18Z" fill="#05185c"/>
    <path d="M45.69,7.75v.04s.07,0,.07,0c0-.03-.04-.05-.07-.04Z" fill="#05185c"/>
    <path d="M46.4,8.1s-.04-.04-.04-.04c0,0,0,.09.04.04Z" fill="#05185c"/>
    <path d="M48.02,7.35s-.06-.04-.07,0c.02,0,.05,0,.07,0Z" fill="#05185c"/>
    <path d="M43.82,7.56s-.03,0-.04-.01v.02s.04,0,.04-.01Z" fill="#05185c"/>
    <path d="M47.3,7.18s-.03-.01-.04-.02c0,0,.02.03.04.02Z" fill="#05185c"/>
    <path d="M45.28,6.56v.02s.05,0,.04-.01c0-.02-.03,0-.04-.01Z" fill="#05185c"/>
    <path d="M48.53,8.06s0-.02-.01-.02c-.02,0,0,.03.01.02Z" fill="#05185c"/>
    <path d="M47.33,7.18v.02s.01-.01,0-.02Z" fill="#05185c"/>
    <path d="M47.86,7.59v.02s.01-.01,0-.02Z" fill="#05185c"/>
    <path d="M44.9,18.79l.02.15.09-.02c.09.17-.17.23-.18.4.1,0,.15.04.13-.09.04-.01.06.04.1.04.11,0,.14-.26.12-.34-.02-.1-.12-.11-.18-.15-.03-.02-.04-.06-.06-.07-.13-.09-.43.24-.37.3.06.06.22-.27.33-.22Z" fill="#05185c"/>
    <path d="M44.81,19.14s-.19-.04-.18.04c.05-.01.19.04.18-.04Z" fill="#05185c"/>
    <path d="M42.81,7.9c-.36-.31-.8.02-1.18.11l-.36.15c.41,0,.81-.3,1.2-.33.13,0,.22.05.34.06Z" fill="#05185c"/>
    <path d="M42.32,8.08c.17.01.36-.01.53,0,.18.01.36.06.53.08.02,0,.08.03.07-.02-.41-.1-.81-.13-1.23-.11,0,.04.07.04.1.04Z" fill="#05185c"/>
    <path d="M42.15,7.66c.23,0,.45-.01.67.04.06,0,.02-.03,0-.04-.04-.01-.14-.04-.17-.05-.12-.01-.29,0-.42,0,0,0-.09.02-.08.04Z" fill="#05185c"/>
    <path d="M36.49,8.74s-.02-.03-.02-.04c-.01,0-.05-.01-.06,0-.02.02.18.13.22.11,0-.1-.1-.06-.14-.07Z" fill="#05185c"/>
    <rect x="40.92" y="8.34" width=".09" height=".02" fill="#05185c"/>
    <path d="M44.57,8.1s-.1-.01-.13-.02c.03.02.1.08.13.02Z" fill="#05185c"/>
    <path d="M42.88,7.9s-.06.01-.04.02c.03.02.06-.01.04-.02Z" fill="#05185c"/>
    <path d="M42.92,7.7s-.06.01-.04.02c.03.02.06-.01.04-.02Z" fill="#05185c"/>
    <path d="M47.32,2.89s0,0-.01,0c0,0,0,0,.01,0Z" fill="#05185c"/>
    <path d="M46.92,3.06c-.03.08-.07.05-.15.07,0,0,.02.02.05.02.06,0,.36-.12.39-.15,0-.01,0-.03,0-.04-.04.02-.09.03-.13.04-.04.02-.09.08-.15.07Z" fill="#05185c"/>
    <path d="M47.03,2.93c.06-.01.12-.04.18-.04,0,.02,0,.04,0,.07.07-.03.06-.03.1-.06-.04.02-.09-.05-.02-.07.05-.02.04.06.03.07.1-.07.25-.19.33-.29.1-.11.2-.36.31-.44h-.02c-.18.12-.23.32-.42.46-.05.04-.07.04-.11.07-.15.1-.19.14-.37.2v.04ZM47.35,2.8s.01.01,0,.02v-.02Z" fill="#05185c"/>
    <path d="M47.38,3.15s-.1,0-.1.04c.36,0,.77.11,1.06-.15-.15.03-.3.11-.45.13-.17.02-.33-.03-.5-.02Z" fill="#05185c"/>
    <path d="M47.69,2.62s0,.07-.01.11c-.02.03-.07.03-.09.08-.01.03-.02.06.02.05.05-.02.27-.33.32-.4.02-.03.12-.21.13-.22-.18.12-.16.21-.27.32-.03.03-.1.05-.1.05Z" fill="#05185c"/>
    <path d="M47.45,3.04h.43l.12-.07c-.15,0-.3,0-.44.03-.03,0-.11,0-.11.04Z" fill="#05185c"/>
    <path d="M48.08,2.89l.39-.09c-.17-.02-.32.03-.48.05l.1.03Z" fill="#05185c"/>
    <path d="M47.78,2.82c.09,0,.19-.05.26-.1.01,0,.08-.02.04-.05-.01-.01-.29.11-.31.15Z" fill="#05185c"/>
    <path d="M47.34,3.02c.05.02.26-.12.22-.15-.01-.01-.2.12-.22.15Z" fill="#05185c"/>
    <rect x="47.85" y="3.28" width=".15" height=".02" fill="#05185c"/>
    <path d="M48.13,3v-.02c-.09-.01-.09.03,0,.02Z" fill="#05185c"/>
    <path d="M48.49,3.55v-.02c-.09-.01-.09.03,0,.02Z" fill="#05185c"/>
    <path d="M48.37,3.02v.02s.01-.01,0-.02Z" fill="#05185c"/>
    <path d="M48.04,2.95v.02s.01-.01,0-.02Z" fill="#05185c"/>
    <path d="M48.12,2.65v.02s.01-.01,0-.02Z" fill="#05185c"/>
    <path d="M47.14,2.76c.09-.06.17-.09.15-.22-.04.05-.08.1-.13.15-.01.02-.09.04-.03.07Z" fill="#05185c"/>
    <path d="M47.17,2.51c-.07.01-.12.11-.18.15.09-.05.13-.07.18-.15Z" fill="#05185c"/>
    <path d="M48.71,15.65c.02.06.28-.01.36-.01.38,0,.79.15,1.18.07l-.04.11s-.02.06.03.04c.01,0,.07-.07.08-.09.13-.21,0-.16-.12-.15-.43.01-.95-.11-1.34-.07-.05,0-.17.02-.14.1Z" fill="#05185c"/>
    <path d="M48.97,15.09c.31.09.6.26.92.31.09.01.47.05.51-.02.1-.16-.27-.07-.31-.07-.14,0-.28-.05-.41-.09-.17-.04-.39-.13-.55-.15-.02,0-.15-.02-.15.02Z" fill="#05185c"/>
    <path d="M49.19,14.62c.01.06.56.16.65.16.08,0,.55.02.56-.08l-1.17-.14-.04.05Z" fill="#05185c"/>
    <path d="M50.17,14.89c-.26-.04-.32-.04-.57-.04-.1,0-.2-.04-.3-.02.08.11.27.08.37.15.21-.03.49.1.7.03.04-.01.07-.03.06-.08-.12-.08-.15-.03-.27-.05Z" fill="#05185c"/>
    <path d="M50.09,15.93s-.01.03-.03.04c-.06.04-.07,0-.08.07.13,0,.39.04.4-.13-.01-.01-.26,0-.29.02Z" fill="#05185c"/>
    <path d="M49.98,16.13v-.04h-.04l-.02.07s.06-.02.07-.02Z" fill="#05185c"/>
    <path d="M47.32,15.34l-.04-.04-.09-.06s.07.03.09.03c.03,0,.06,0,.1.02.01,0,.15.09.12.02-.03-.08-.22-.14-.29-.2l.07-.03-.13-.02.11-.04s-.04-.06-.04-.07c0,0-.07-.02-.09-.02-.28-.07-.61,0-.88.1-.13.05-.68.32-.72.45,0,.02,0,.11.01.11h.32c.25,0,.63-.26.97-.26.09,0,.45.08.5.02Z" fill="#05185c"/>
    <path d="M45.73,15.18c.33-.25.77-.4,1.18-.48l-.17-.04h-.12s.17-.08.17-.08l.05-.08c-.15-.04-.2.1-.33.14l.07.03c-.28.05-.55.2-.78.36-.1.07-.49.38-.52.47-.02.08.04.1.1.14,0-.03-.02-.06-.01-.1,0-.06.3-.31.36-.36ZM46.69,14.54s.01.01,0,.02v-.02Z" fill="#05185c"/>
    <path d="M44.28,15.63s-.06-.03-.07-.05c0-.05.06-.09.05-.14-.12.02-.29.2-.41.11-.02-.01-.02-.06-.04-.07-.05-.01-.09.04-.12.04-.14,0-.46-.11-.61-.15-.06-.01-.25-.07-.28-.04,0,0,0,.04,0,.04.05.2.36.06.4.22-.03.03-.33-.09-.27.09.06-.02.15.02.19.02.12,0,.25-.07.37-.02,0,.03-.08.03-.11.04-.08.01-.17.01-.25.03-.07.01-.2.03-.2.11.09,0,.18,0,.27,0,.08,0,.21-.04.29-.04.08,0,.07.08.18-.05,0,.16-.1.28.13.22-.01.05-.04.1,0,.15.12.03.04-.13.07-.15.02-.02.4-.03.46-.09-.02-.05-.06-.13-.06-.17,0-.04.02-.08.02-.1ZM43.85,15.86s-.08.01-.07-.03c.02-.07.09.01.07.03Z" fill="#05185c"/>
    <path d="M43.17,14.9c.13.05.26.1.39.15-.02.13-.03.06-.09.07-.02,0-.04.03-.08.04l-.02.04c.07,0,.16.08.2.09.12.04.3.04.42.07.12.03.11.1.27.02.02-.01.04.01.03-.05-.14-.08-.29-.15-.43-.22-.19-.1-.35-.17-.56-.24-.06-.02-.12-.03-.18-.04,0,.07,0,.05.05.07ZM43.65,15.18h.09s0,.04,0,.04c-.01.01-.11-.03-.09-.04Z" fill="#05185c"/>
    <path d="M43.43,14.54l-.21-.05s-.12-.03-.1.05h.31Z" fill="#05185c"/>
    <path d="M43.91,15.51s.11-.09.09-.11c-.03-.03-.12.08-.09.11Z" fill="#05185c"/>
    <path d="M46.15,12.96h-.02c0,.1,0,.19,0,.29,0,.01,0,.03,0,.04,0,.07,0,.13,0,.2,0,.01,0,.03,0,.04,0,.07,0,.13,0,.2,0,.01,0,.03,0,.04,0,0,0,.01,0,.02h.04s0-.03,0-.04c0,0,0-.01,0-.02,0,0-.02-.02-.02-.05,0-.13,0-.27,0-.41,0-.09,0-.18,0-.26,0-.01,0-.03,0-.04Z" fill="#05185c"/>
    <path d="M47.1,16.41s.07-.02.04-.04-.07.02-.04.04Z" fill="#05185c"/>
    <path d="M48.2,13.91s0-.05-.04-.04c0,.01,0,.04,0,.04,0,0,.03,0,.04,0Z" fill="#05185c"/>
    <path d="M48.12,14.21v.02s.01-.01,0-.02Z" fill="#05185c"/>
    <path d="M45.78,11.17c.01.13.05.31.07.43.1.47.16.72.15,1.23,0,.05.01.14,0,.18h.02c-.01-.07.02-.13.02-.2,0-.01,0-.03,0-.04,0-.07,0-.15,0-.22,0-.1,0-.21,0-.31,0-.06-.01-.17-.02-.22-.04-.18-.09-.38-.13-.57,0-.04-.03-.1-.04-.15-.02-.07-.04-.14-.04-.22-.04,0-.02.07-.02.1Z" fill="#05185c"/>
    <path d="M45.89,12.78l.09.02s-.05-.03-.09-.02Z" fill="#05185c"/>
    <path d="M47.8,8.77l-.74-.65c.05.11.14.19.23.27.15.14.33.27.51.37Z" fill="#05185c"/>
    <path d="M48.52,9.16v.02s.01-.01,0-.02Z" fill="#05185c"/>
    <path d="M48.26,8.94v.02s.01-.01,0-.02Z" fill="#05185c"/>
    <path d="M48.21,8.91v.02s.01-.01,0-.02Z" fill="#05185c"/>
    <path d="M48.38,16.33s.07-.02.1-.02c.44-.02,1.3.21,1.64.1.04-.01.09-.04.11-.08-.38.04-.73-.02-1.1-.07-.24-.03-.55-.14-.75.02,0,0,0,.04,0,.04Z" fill="#05185c"/>
    <path d="M46.53,9.84s-.06.01-.04.02c.03.02.06-.01.04-.02Z" fill="#05185c"/>
    <path d="M46.45,9.77s.01.03.02.04c.02-.01-.01-.03-.02-.04Z" fill="#05185c"/>
    <path d="M45.8,10.98s-.01-.06-.02-.04c-.02.03.01.06.02.04Z" fill="#05185c"/>
    <path d="M41.8,5.26s.17-.05.13-.09c-.01,0-.17.05-.13.09Z" fill="#05185c"/>
    <path d="M41.72,5.28v.02s.01-.01,0-.02Z" fill="#05185c"/>
    <path d="M41.77,5.26v.02s.01-.01,0-.02Z" fill="#05185c"/>
    <path d="M45.89,10.1c.38.58.58,1.41.7,2.09.03.17.06.31.07.48,0,.19-.03.36-.04.55,0,.01.03.07.02.13l.04-.18c0-.05,0-.1,0-.15,0-.02,0-.04,0-.07,0-.08.02-.15.02-.24,0-.09,0-.2,0-.29,0-.06-.02-.1-.02-.15-.04-.33-.14-.6-.21-.92-.05-.19-.06-.43-.12-.62.16.44.23.89.35,1.34,0-.18-.05-.42-.04-.58,0-.05-.01-.06.04-.06.08.31.15.63.22.95.02.09.05.19.07.29,0,.04.01.09.02.13h.02c-.02-.13-.03-.26-.04-.4-.05-.35-.08-.73-.2-1.06-.09-.24-.5-1.01-.65-1.18.04.1.07.21.11.31.01.03.02.05.02.07,0,.02.01.03.02.04,0,.01.01.02.02.04.01.03.03.06.04.1,0-.02-.03-.08-.04-.1,0-.01-.01-.03-.02-.04,0-.01-.01-.03-.02-.04,0-.01-.03-.04-.04-.07-.08-.13-.19-.31-.33-.37ZM46.66,11.29c.03.14,0,.17-.04.02-.02-.06-.03-.13-.04-.2l.09.18Z" fill="#05185c"/>
    <path d="M47.1,13.42s0,.23,0,.24c.04.05.04-.04.04-.04,0-.07,0-.14,0-.21,0-.03.02-.05.02-.05,0-.07-.02-.15.02-.22,0,0-.03-.02-.04-.02,0,0,0,.01,0,.02-.02.09-.04.19-.04.29Z" fill="#05185c"/>
    <path d="M46.97,13.71s-.01.07.04.03l-.02-.14s-.02.04-.02.07c0,.01,0,.03,0,.04Z" fill="#05185c"/>
    <path d="M35.38,7.38s.04.01.04.01c.02-.03,0-.07-.04-.01Z" fill="#05185c"/>
    <path d="M47.28,13.11s0,.01,0,.02c0,.13,0,.25.02.37.08-.06.04-.21.04-.31.02-.21.08-.45.02-.66-.02.1-.05.23-.07.33,0,.01,0,.03,0,.04,0,.07-.02.12-.02.2Z" fill="#05185c"/>
    <path d="M47.19,13.36l-.02.26s.03,0,.04,0c.05-.04.01-.21.02-.28l-.04.02Z" fill="#05185c"/>
    <path d="M47.97,3.72c.2.03.4.02.6.04,0-.04-.04-.04-.08-.04-.22-.03-.45-.03-.67-.04.01.03.11.04.14.04Z" fill="#05185c"/>
    <path d="M50.95,1.17s-.06.01-.04.02c.03.02.06-.01.04-.02Z" fill="#05185c"/>
  </g>
  <g>
    <path d="M77.99,8.11c-2.39,0-4.15,1.77-4.21,4.04-.06,2.41,1.73,4.24,4.08,4.3,2.54.06,4.34-1.86,4.32-4.16,0-2.38-1.8-4.18-4.2-4.18M79.65,14.34c-.47.42-1.04.61-1.6.61-1.36,0-2.44-.97-2.6-2.27-.1-.85.08-1.61.66-2.26,1.21-1.35,3.4-1.02,4.18.62.53,1.12.28,2.48-.64,3.29" fill="#05185c"/>
    <path d="M104.94,8.11c-2.39,0-4.15,1.77-4.21,4.04-.06,2.41,1.73,4.24,4.08,4.3,2.54.06,4.34-1.86,4.32-4.16,0-2.38-1.8-4.18-4.2-4.18M106.6,14.34c-.47.42-1.04.61-1.6.61-1.36,0-2.44-.97-2.6-2.27-.1-.85.08-1.61.66-2.26,1.21-1.35,3.4-1.02,4.18.62.53,1.12.28,2.48-.64,3.29" fill="#05185c"/>
    <path d="M61.9,12.54c-.24-.19-.51-.32-.84-.42.07-.03.1-.04.13-.05,1.07-.41,1.5-1.55.98-2.57-.26-.5-.7-.79-1.21-.98-.64-.23-1.31-.27-1.98-.28-.7,0-1.41,0-2.11,0-.1,0-.13.02-.13.12,0,2.62,0,5.24,0,7.85,0,.12.04.13.14.13.81,0,1.62,0,2.43-.01.52,0,1.04-.07,1.54-.22.99-.31,1.74-1.01,1.69-2.22-.02-.54-.21-.99-.64-1.34M58.36,10.63c0-.3,0-.59,0-.89,0-.05,0-.1.07-.1.53,0,1.07-.03,1.59.1.62.16.91.77.62,1.33-.16.31-.44.44-.76.5-.48.09-.97.05-1.46.05-.08,0-.07-.05-.07-.1v-.9M60.84,14.27c-.08.22-.24.36-.45.45-.39.16-.8.17-1.21.19-.24,0-.48,0-.71,0-.09,0-.11-.03-.11-.11,0-.31,0-.62,0-.93s0-.63,0-.94c0-.05,0-.1.07-.1.51.02,1.03-.04,1.54.05.09.01.17.04.26.07.71.24.76.88.61,1.32" fill="#05185c"/>
    <path d="M99.44,8.24c-.45,0-.91,0-1.36,0-.1,0-.11.04-.11.12,0,1.42,0,2.83,0,4.25v.47c-1.89-1.72-3.76-3.42-5.65-5.14,0,.05,0,.06,0,.08,0,2.73,0,5.46,0,8.19,0,.1.03.11.12.11.44,0,.89,0,1.33,0,.1,0,.13-.02.13-.12,0-1.42,0-2.83,0-4.25v-.47c1.89,1.72,3.76,3.42,5.65,5.14,0-.04.01-.05.01-.06,0-2.74,0-5.48,0-8.22,0-.09-.04-.1-.11-.1" fill="#05185c"/>
    <path d="M73.22,14.19s-.02.01-.03.02c-.78.58-1.66.85-2.63.73-.63-.08-1.19-.33-1.63-.8-.54-.58-.75-1.28-.7-2.06.05-.75.34-1.39.93-1.88.72-.59,1.56-.71,2.45-.54.54.1,1.04.32,1.52.65,0-.54,0-1.05,0-1.56,0-.1-.04-.15-.12-.19-.98-.45-1.99-.56-3.04-.36-1,.19-1.84.66-2.47,1.47-.77.98-1.03,2.1-.84,3.32.24,1.48,1.07,2.51,2.44,3.1.72.31,1.49.4,2.28.34.63-.05,1.23-.19,1.79-.48.06-.03.1-.06.1-.15,0-.51,0-1.02,0-1.53,0-.03.02-.06-.03-.08" fill="#05185c"/>
    <path d="M91.12,14.75c0-1.02,0-2.03,0-3.05,0-1.11,0-2.22,0-3.34h0c0-.1-.03-.13-.14-.13h-1.27s-.08,0-.13,0c-.07,0-.09.04-.1.11v.48c0,.31,0,.62,0,.93,0,.02,0,.03,0,.06,0,.94,0,1.88,0,2.81,0,1.19,0,2.38,0,3.57h0c0,.1.03.13.14.13h1.4c.08,0,.1-.05.1-.14,0-.46,0-.63,0-1.08,0-.02,0-.32,0-.35" fill="#05185c"/>
    <path d="M65.4,14.75c0-1.02,0-2.03,0-3.05,0-1.11,0-2.22,0-3.34h0c0-.1-.03-.13-.14-.13h-1.27s-.08,0-.13,0c-.07,0-.09.04-.1.11v.48c0,.31,0,.62,0,.93,0,.02,0,.03,0,.06,0,.94,0,1.88,0,2.81,0,1.19,0,2.38,0,3.57h0c0,.1.03.13.14.13h1.4c.08,0,.1-.05.1-.14,0-.46,0-.63,0-1.08,0-.02,0-.32,0-.35" fill="#05185c"/>
    <path d="M88.16,8.23c-1.55,0-3.09,0-4.64,0-.12,0-.15.02-.15.14,0,1.3,0,2.6,0,3.9s0,2.62,0,3.93c0,.1.02.13.12.12.47,0,.94,0,1.41,0,.04,0,.08-.04.08-.08v-3.04h0c0-.08,0-.16,0-.24,0-.12.03-.15.15-.15.86,0,1.72,0,2.58,0,.1,0,.15-.02.15-.14v-1.1c0-.11-.02-.14-.13-.13-.87,0-1.74,0-2.61,0-.11,0-.13-.03-.13-.13,0-.5,0-1,0-1.51,0-.13.02-.17.16-.16,1.01,0,2.03,0,3.04,0,.12,0,.11-.03.11-.21,0-.01,0-.97,0-.97,0-.23,0-.25-.14-.25" fill="#05185c"/>
    <path d="M123.92,12.28c-5,0-6.66-1.67-6.66-6.66,0,5-1.67,6.66-6.66,6.66,5,0,6.66,1.67,6.66,6.66,0-5,1.67-6.66,6.66-6.66" fill="#05185c"/>
  </g>
  <path d="M10.98,10.65c.65.27,1.39.4,2.2.43-.02-.03-.03-.07-.05-.1-.28-.39-.71-.7-1.29-.94-.58-.24-1.33-.36-2.23-.36-.03,0-.05,0-.08,0,.38.4.86.72,1.45.97Z" fill="none"/>
  <path d="M2.89,8.99c-.78.62-1.38,1.36-1.81,2.21-.43.85-.64,1.79-.64,2.82s.21,1.96.64,2.82c.43.86,1.03,1.59,1.81,2.21.77.62,1.7,1.1,2.76,1.44,1.07.34,2.24.51,3.53.51s2.42-.17,3.34-.5c.92-.33,1.68-.76,2.27-1.29.59-.53,1.02-1.09,1.3-1.68.28-.6.41-1.17.41-1.71,0-.27-.04-.54-.11-.79-.27.31-.54.6-.84.88-.84.81-1.82,1.41-2.94,1.81-1.12.4-2.29.6-3.52.6s-2.29-.19-3.13-.56c-.84-.37-1.47-.88-1.89-1.51s-.63-1.36-.63-2.16c0-.57.15-1.13.44-1.67.29-.54.7-1.03,1.24-1.47.54-.44,1.18-.79,1.94-1.05.65-.22,1.37-.33,2.15-.36-.07-.09-.14-.17-.2-.27-.37-.59-.55-1.22-.55-1.89,0-.11.03-.23.04-.34-1.02.05-1.97.21-2.85.49-1.07.34-1.99.82-2.77,1.45Z" fill="none"/>
  <path d="M29.34,6.93s0,0,0,0c.03,0,.05,0,.08,0-.02,0-.05,0-.07,0Z" fill="none"/>
  <path d="M32.49,5.09l.17.02c-.04.12-.09.24-.14.35.11-.15.18-.29.18-.42,0-.16-.11-.25-.32-.25-.25,0-.55.11-.92.32-.36.22-.74.49-1.13.83-.29.25-.55.53-.81.81.7-.04,1.32-.16,1.84-.43.6-.31.98-.72,1.13-1.24Z" fill="none"/>
  <path d="M10.67,11.86c-.97,0-1.77.12-2.41.35s-1.11.52-1.42.85c-.31.33-.47.65-.47.96,0,.24.08.48.24.72.16.23.43.43.8.57.37.15.87.22,1.49.22.73,0,1.39-.1,1.96-.3.57-.2,1.06-.46,1.45-.79.4-.33.7-.69.91-1.08.19-.35.28-.69.3-1.03-.17-.06-.34-.14-.53-.19-.71-.19-1.49-.29-2.33-.29Z" fill="none"/>
  <path d="M5.23,11.08c-.53.43-.93.91-1.21,1.43s-.42,1.05-.42,1.58c0,.82.23,1.48.7,1.99.47.51,1.1.88,1.9,1.12s1.68.36,2.66.36c.8,0,1.54-.1,2.24-.31.7-.21,1.36-.51,2-.89.63-.39,1.25-.85,1.86-1.4.32-.29.64-.59.96-.91-.28-.4-.62-.77-1.07-1.07-.34-.24-.74-.42-1.17-.59-.03.34-.12.68-.3,1.03-.21.41-.53.78-.93,1.12-.41.34-.91.62-1.5.83-.59.21-1.27.31-2.03.31-.65,0-1.18-.08-1.58-.24-.4-.16-.68-.37-.86-.63-.17-.25-.26-.51-.26-.78,0-.34.16-.69.49-1.05s.82-.67,1.48-.92c.66-.25,1.49-.37,2.49-.37.86,0,1.65.1,2.37.31.17.05.32.12.48.18,0-.33-.11-.63-.27-.93-1.02-.02-1.89-.19-2.59-.54-.56-.27-1.01-.61-1.36-1.01-.8.02-1.54.13-2.2.36-.73.26-1.36.6-1.89,1.03Z" fill="none"/>
  <path d="M32.88,13.98c.34-.19.61-.4.83-.61.21-.21.32-.41.32-.6,0-.16-.11-.24-.32-.24-.24,0-.55.11-.91.32s-.74.49-1.12.83c-.35.3-.67.64-.98.99.35-.02.72-.09,1.1-.21.39-.12.76-.28,1.09-.47Z" fill="none"/>
  <path d="M13.27,11.24c.06,0,.11,0,.17,0,0,0,0,0,0,0-.03-.05-.05-.11-.08-.16-.07,0-.12-.01-.19-.02.04.06.06.11.09.17Z" fill="#05185c"/>
  <path d="M26.85,6.46c-.77-.21-1.54-.49-2.31-.82-.77-.33-1.54-.69-2.3-1.06s-1.53-.73-2.3-1.06c-.77-.33-1.54-.6-2.32-.82-.78-.21-1.55-.32-2.33-.32-1.16,0-2.17.15-3.03.45-.86.3-1.57.7-2.13,1.19-.56.49-.98,1.04-1.25,1.62-.2.42-.3.84-.35,1.25.07,0,.13,0,.2,0,.08-.39.21-.77.42-1.12.33-.56.8-1.04,1.39-1.45.6-.41,1.3-.72,2.11-.95.81-.22,1.69-.34,2.64-.34.85,0,1.67.09,2.47.28.8.19,1.58.43,2.35.73.77.3,1.52.61,2.27.94.75.33,1.5.65,2.24.94.74.3,1.49.54,2.24.73.51.13,1.03.2,1.56.24.04-.05.08-.1.13-.15-.57-.04-1.13-.12-1.7-.28Z" fill="#05185c"/>
  <path d="M14.85,12.98c.45.31.79.67,1.07,1.07.04-.04.07-.08.11-.12-.28-.4-.62-.76-1.07-1.07-.37-.26-.8-.46-1.26-.63,0,.05-.02.11-.02.16.43.16.83.35,1.17.59Z" fill="#05185c"/>
  <path d="M8.51,7.05c.06,0,.12,0,.18,0,0-.05.02-.1.03-.15-.07,0-.13,0-.2,0,0,.05-.01.1-.02.15Z" fill="#05185c"/>
  <path d="M9.32,9.7c.07,0,.13-.01.2-.01-.04-.05-.09-.1-.13-.14-.06,0-.12.01-.18.01.04.05.07.1.11.14Z" fill="#05185c"/>
  <path d="M13.27,11.24c.16.3.27.61.27.93.05.02.11.04.16.06,0,0,0-.01,0-.02,0-.34-.1-.66-.25-.96,0,0,0,0,0,0-.06,0-.11,0-.17,0Z" fill="#05185c"/>
  <path d="M9.6,9.68c.91,0,1.65.12,2.23.36.58.24,1.01.55,1.29.94.02.03.03.07.05.1.07,0,.12.02.19.02-.04-.06-.05-.13-.1-.19-.29-.41-.73-.74-1.33-.99s-1.38-.38-2.34-.38c-.07,0-.13.01-.2.02.04.05.08.1.13.14.03,0,.05,0,.08,0Z" fill="#05185c"/>
  <path d="M8.47,7.4c0,.67.18,1.3.55,1.89.06.09.13.18.2.27.06,0,.12-.01.18-.01-.04-.05-.09-.09-.12-.14-.41-.53-.62-1.14-.62-1.82,0-.18.02-.36.04-.53-.06,0-.12,0-.18,0-.01.11-.04.23-.04.34Z" fill="#05185c"/>
  <path d="M13.55,12.22s-.01.08-.02.13c.05.02.1.03.15.05,0-.05.02-.11.02-.16-.05-.02-.1-.04-.16-.06,0,.01,0,.03,0,.04Z" fill="#05185c"/>
  <path d="M10.69,11.7c-1,0-1.83.12-2.49.37-.66.25-1.16.56-1.48.92s-.49.71-.49,1.05c0,.27.09.53.26.78.17.26.46.46.86.63.4.16.92.24,1.58.24.77,0,1.44-.1,2.03-.31.59-.21,1.09-.48,1.5-.83.41-.34.72-.72.93-1.12.18-.35.27-.69.3-1.03-.05-.02-.1-.03-.15-.05-.02.34-.11.68-.3,1.03-.21.39-.51.75-.91,1.08-.4.33-.88.59-1.45.79-.57.2-1.22.3-1.96.3-.62,0-1.12-.07-1.49-.22-.37-.15-.64-.34-.8-.57-.16-.23-.24-.47-.24-.72,0-.31.16-.62.47-.96.31-.33.78-.61,1.42-.85s1.44-.35,2.41-.35c.85,0,1.62.1,2.33.29.19.05.35.12.53.19,0-.04.02-.08.02-.13,0-.01,0-.03,0-.04-.16-.06-.31-.13-.48-.18-.72-.2-1.51-.31-2.37-.31Z" fill="#05185c"/>
  <path d="M5.13,10.96c-.54.44-.95.93-1.24,1.47-.29.54-.44,1.1-.44,1.67,0,.81.21,1.53.63,2.16s1.05,1.14,1.89,1.51c.84.37,1.88.56,3.13.56s2.4-.2,3.52-.6c1.12-.4,2.1-1.01,2.94-1.81.3-.28.58-.58.84-.88-.07-.27-.18-.54-.33-.79-.04-.07-.1-.12-.15-.19-.32.32-.64.62-.96.91-.61.55-1.23,1.01-1.86,1.4-.63.39-1.3.69-2,.89-.7.21-1.45.31-2.24.31-.98,0-1.87-.12-2.66-.36s-1.43-.61-1.9-1.12c-.47-.51-.7-1.17-.7-1.99,0-.53.14-1.06.42-1.58s.68-1,1.21-1.43c.52-.43,1.16-.77,1.89-1.03.66-.23,1.4-.34,2.2-.36-.04-.05-.07-.1-.11-.14-.77.03-1.5.14-2.15.36-.76.26-1.41.61-1.94,1.05Z" fill="#05185c"/>
  <path d="M10.68,10.71c.7.34,1.57.52,2.59.54-.03-.06-.05-.11-.09-.17-.81-.03-1.55-.16-2.2-.43-.59-.24-1.07-.57-1.45-.97-.07,0-.13.01-.2.01.35.4.8.74,1.36,1.01Z" fill="#05185c"/>
  <path d="M9.17,7.03c.55,0,1.11.05,1.68.14.57.09,1.11.23,1.63.42.52.19.98.43,1.38.73.4.3.7.65.9,1.07l.15-.05c-.21-.43-.53-.8-.93-1.11s-.88-.57-1.41-.77c-.54-.2-1.1-.35-1.68-.44-.59-.1-1.15-.15-1.71-.15-.15,0-.3.01-.45.02,0,.05-.02.1-.03.15.16,0,.32-.02.48-.02Z" fill="#05185c"/>
  <path d="M15.28,10.96c.53-.19.97-.45,1.33-.76.36-.32.63-.66.81-1.04s.28-.75.28-1.13c0-.4-.1-.76-.3-1.1-.2-.34-.5-.61-.92-.82-.41-.21-.94-.31-1.57-.31-.38,0-.74.05-1.09.15-.35.1-.65.23-.9.41l.08.14c.23-.17.52-.31.85-.41.33-.1.69-.15,1.06-.15.8,0,1.43.19,1.91.57.48.38.72.89.72,1.52,0,.57-.18,1.09-.55,1.55-.37.46-.86.83-1.48,1.11-.62.28-1.3.41-2.06.41-.03,0-.06,0-.09,0,.03.05.05.11.08.16.69,0,1.3-.1,1.83-.29Z" fill="#05185c"/>
  <path d="M16.06,14.24c.15.25.26.52.33.79.04-.05.08-.1.12-.14-.07-.25-.17-.49-.3-.71-.05-.08-.12-.16-.18-.24-.04.04-.07.08-.11.12.04.06.11.12.15.19Z" fill="#05185c"/>
  <path d="M16.5,15.83c0,.54-.14,1.11-.41,1.71-.28.6-.71,1.16-1.3,1.68-.59.53-1.35.95-2.27,1.29-.92.33-2.04.5-3.34.5s-2.46-.17-3.53-.51c-1.07-.34-1.99-.82-2.76-1.44-.78-.62-1.38-1.35-1.81-2.21-.43-.86-.64-1.79-.64-2.82s.21-1.97.64-2.82c.43-.85,1.03-1.59,1.81-2.21.78-.62,1.7-1.1,2.77-1.45.88-.28,1.83-.44,2.85-.49,0-.05.01-.1.02-.15-1.05.05-2.03.21-2.93.51-1.09.35-2.03.85-2.82,1.48s-1.41,1.39-1.84,2.26c-.43.87-.65,1.83-.65,2.87s.22,2.01.65,2.88c.43.87,1.05,1.62,1.84,2.26.79.64,1.73,1.13,2.81,1.48,1.09.35,2.28.52,3.59.52s2.46-.17,3.4-.5c.94-.34,1.72-.78,2.32-1.32.6-.54,1.05-1.12,1.33-1.74.29-.62.43-1.21.43-1.77,0-.33-.05-.64-.14-.94-.04.05-.08.1-.12.14.07.25.11.52.11.79Z" fill="#05185c"/>
  <path d="M16.51,14.89c.19-.22.38-.45.55-.68.44-.61.87-1.24,1.27-1.88s.81-1.27,1.23-1.9c.42-.62.87-1.21,1.36-1.76.23-.24.52-.49.85-.73.33-.24.67-.46,1.02-.66.35-.19.66-.33.93-.41h-.8c-.31.17-.65.39-1.03.66s-.74.61-1.1,1.03c-.73.85-1.43,1.66-2.09,2.43-.66.78-1.3,1.5-1.91,2.16-.26.28-.51.54-.77.8.06.08.13.15.18.24.13.23.23.47.3.71Z" fill="#05185c"/>
  <path d="M21.75,14.6c-.4.47-.83.94-1.3,1.4-.47.46-.92.86-1.35,1.2h1.04l1.33-1.5h-.17c.16-.18.35-.36.52-.54h-.15l3.06-3.34-.29-.32-2.69,3.09Z" fill="#05185c"/>
  <path d="M21.47,15.7c.34-.37.7-.74,1.09-1.12s.77-.72,1.16-1.04c.39-.32.74-.57,1.06-.77.32-.19.57-.29.75-.29s.28.08.28.23c0,.16-.1.36-.31.58-.21.22-.47.47-.79.75-.32.28-.63.56-.94.86-.31.3-.57.59-.78.9-.21.3-.31.59-.31.88,0,.18.06.34.17.47.11.13.24.19.38.19.23,0,.55-.11.94-.34.39-.23.82-.54,1.27-.93.45-.39.89-.82,1.31-1.3l.14-.15h-.15l-.18.2c-.38.43-.78.83-1.22,1.19s-.84.67-1.21.9c-.37.23-.66.34-.86.34-.21,0-.32-.1-.32-.29,0-.18.11-.39.32-.63.21-.23.48-.49.8-.76.32-.27.64-.55.96-.83.32-.29.59-.57.8-.86s.32-.58.32-.86c0-.21-.06-.37-.18-.47s-.26-.15-.41-.15c-.2,0-.47.1-.81.31-.34.2-.71.47-1.11.8-.4.33-.81.68-1.21,1.07-.21.21-.4.41-.59.61h.05l-.4.54Z" fill="#05185c"/>
  <path d="M21.47,15.7l.4-.54h-.05c-.17.18-.36.36-.52.54h.17Z" fill="#05185c"/>
  <path d="M28.13,7.31l-3.69,4.2.29.32,2.96-3.3c0-.32.1-.65.29-.99.04-.08.1-.15.15-.23Z" fill="#05185c"/>
  <path d="M31.1,4.89s.01,0,.02,0c.16-.15.32-.3.46-.43.35-.31.63-.51.84-.61l-1.72.63-1.41,1.5c.17-.15.36-.29.55-.42.41-.28.82-.5,1.25-.66Z" fill="#05185c"/>
  <path d="M33.83,14.82c-.41.46-.85.87-1.33,1.24s-.94.66-1.39.87c-.45.21-.84.32-1.18.32-.32,0-.47-.14-.47-.43,0-.25.1-.56.31-.93.2-.35.47-.72.79-1.1-.02,0-.03,0-.05,0l.14-.14s.03,0,.04,0c.31-.35.63-.68.98-.99.39-.34.76-.61,1.12-.83s.67-.32.91-.32c.21,0,.32.08.32.24,0,.18-.11.38-.32.6-.21.21-.49.42-.83.61-.34.19-.7.35-1.09.47-.38.12-.74.19-1.1.21-.03.04-.07.07-.1.1,0,.01-.02.02-.03.03.37,0,.76-.07,1.17-.19.43-.13.83-.3,1.21-.5.38-.2.69-.42.93-.66.24-.23.36-.46.36-.67,0-.11-.05-.2-.15-.28-.1-.07-.24-.11-.41-.11-.39,0-.79.08-1.22.24-.42.16-.84.38-1.24.66-.4.28-.77.58-1.09.93-.32.34-.58.69-.77,1.05s-.29.7-.29,1.02.08.58.24.77.37.28.63.28c.35,0,.76-.11,1.23-.34.47-.22.96-.53,1.47-.93.51-.39.97-.83,1.4-1.31l.14-.15h-.15l-.18.2Z" fill="#05185c"/>
  <path d="M30.69,14.66s-.03,0-.04,0l-.14.14s.03,0,.05,0c0-.01.02-.02.03-.03.03-.04.07-.07.1-.1Z" fill="#05185c"/>
  <path d="M29.23,6.78s.02,0,.01,0c-.05.06-.07.09-.12.15,0,0,.01,0,.02,0,.07,0-.1,0-.03,0,.06-.06.72,0,2.56-.27-.36.06-2.36.11-2.45.11Z" fill="#05185c"/>
  <path d="M28.62,6.75s-.05,0-.08,0c-.04.05-.09.1-.13.15.02,0,.05,0,.07,0l.13-.15Z" fill="#05185c"/>
  <path d="M29.17,6.78s.07,0,.11-.01c.39-.42.78-.84,1.18-1.24.23-.23.45-.44.66-.64,0,0-.01,0-.02,0-.43.16-.84.39-1.25.66-.19.13-.38.27-.55.42l-.68.77c.18.01.36.04.54.04Z" fill="#05185c"/>
  <path d="M29.13,6.94c-.21,0-.42-.02-.64-.04l-.36.41c-.05.08-.11.15-.15.23-.19.34-.28.67-.29.99l.55-.62c.26-.29.55-.62.88-.98Z" fill="#05185c"/>
  <path d="M29.28,6.77s-.07.01-.11.01c-.18,0-.36-.03-.54-.04l-.13.15c.21.02.42.04.64.04.05-.05.09-.1.14-.16h0Z" fill="#05185c"/>
</svg>