<?xml version="1.0" encoding="UTF-8"?>
<svg id="Layer_1" xmlns="http://www.w3.org/2000/svg" version="1.1" viewBox="0 0 20 20">
  <!-- Generator: Adobe Illustrator 30.3.0, SVG Export Plug-In . SVG Version: 2.1.3 Build 182)  -->
  <path d="M18.33,14.38h-2.5c-.35,0-.62.28-.62.62s.28.62.62.62h2.5c.35,0,.62-.28.62-.62s-.28-.62-.62-.62Z" fill="#6d7886"/>
  <path d="M15,17.71h-5.63l8.92-9.42c.43-.43.67-1.01.67-1.62,0-.61-.24-1.19-.67-1.62-.08-.08-.16-.15-.25-.21l-4.68-3.51c-.31-.23-.7-.32-1.08-.26-.39.06-.72.27-.95.58-.18.25-.28.55-.28.86v1.67c0,.46-.29.85-.71.99l-3.3.96c-.59.2-.99.76-.99,1.37-.11,4.76-1.44,6.89-2.71,6.89s-2.29,1.03-2.29,2.29,1.03,2.29,2.29,2.29h11.67c.35,0,.62-.28.62-.62s-.28-.62-.62-.62ZM7.65,17.71H3.33c-.57,0-1.04-.47-1.04-1.04s.47-1.04,1.04-1.04c.88,0,3.78-.58,3.96-8.12,0-.09.06-.17.11-.19l3.29-.96c.96-.3,1.6-1.18,1.6-2.18v-1.67s.01-.09.04-.12c.04-.06.11-.09.17-.09.04,0,.08.01.11.04l2.95,2.21-3.52,3.72c-.24.25-.23.65.02.88.12.11.28.17.43.17.17,0,.33-.07.45-.2l3.62-3.82.72.54s.08.06.11.1c.2.2.3.46.3.74s-.11.54-.32.75l-9.74,10.29Z" fill="#6d7886"/>
</svg>