<?xml version="1.0" encoding="UTF-8"?>
<svg id="Layer_1" xmlns="http://www.w3.org/2000/svg" version="1.1" viewBox="0 0 20 20">
  <!-- Generator: Adobe Illustrator 30.3.0, SVG Export Plug-In . SVG Version: 2.1.3 Build 182)  -->
  <path d="M17.5,3.54H2.5c-.84,0-1.46.61-1.46,1.46v10c0,.84.61,1.46,1.46,1.46h15c.85,0,1.46-.61,1.46-1.46V5c0-.84-.61-1.46-1.46-1.46ZM17.71,11.88h-2.08v-3.75h2.08v3.75ZM10,11.04c-.57,0-1.04-.47-1.04-1.04s.47-1.04,1.04-1.04,1.04.47,1.04,1.04-.47,1.04-1.04,1.04ZM2.29,8.12h2.08v3.75h-2.08v-3.75ZM2.29,15v-1.88h2.71c.35,0,.62-.28.62-.62v-5c0-.35-.28-.62-.62-.62h-2.71v-1.88c0-.16.05-.21.21-.21h6.88v3.01c-.96.27-1.67,1.15-1.67,2.19s.71,1.92,1.67,2.19v3.01H2.5c-.16,0-.21-.05-.21-.21ZM17.5,15.21h-6.88v-3.01c.96-.27,1.67-1.15,1.67-2.19s-.71-1.92-1.67-2.19v-3.01h6.88c.16,0,.21.05.21.21v1.88h-2.71c-.35,0-.62.28-.62.62v5c0,.35.28.62.62.62h2.71v1.88c0,.16-.05.21-.21.21Z" fill="#6d7886"/>
</svg>