<?xml version="1.0" encoding="UTF-8"?>
<svg id="Layer_1" xmlns="http://www.w3.org/2000/svg" version="1.1" viewBox="0 0 20 20">
  <!-- Generator: Adobe Illustrator 30.3.0, SVG Export Plug-In . SVG Version: 2.1.3 Build 182)  -->
  <path d="M10,.92s-.04,0-.07,0c0,0-.01,0-.02,0-.01,0-.02,0-.03,0C4.93.98.92,5.03.92,10c0,2.93,1.4,5.53,3.56,7.19,0,0,.01.02.02.03.03.03.06.04.1.06,1.51,1.12,3.38,1.8,5.4,1.8,5.01,0,9.08-4.08,9.08-9.08S15.01.92,10,.92ZM16.86,6.79c-.91.26-1.95.69-2.57.96-.56-.55-1.87-1.77-3.62-2.64v-2.66c2.75.24,5.07,1.95,6.19,4.34ZM7.75,12.82c-.95-1.3-1.18-3.09-1.23-3.86.02-.05.02-.09.03-.14,1.19-1.25,2.73-2.09,3.37-2.41,1.67.8,2.93,2.02,3.4,2.49-.08,1.99-.92,3.42-1.26,3.92-1.84.36-3.66.11-4.31,0ZM9.17,2.46v2.65c-.76.38-2.34,1.27-3.63,2.6-.61-.27-1.56-.67-2.38-.95,1.1-2.32,3.35-4,6.01-4.29ZM2.42,10c0-.63.09-1.24.23-1.83.75.25,1.72.66,2.38.95.07.93.35,2.87,1.41,4.43-.36.51-1,1.39-1.53,2.05-1.53-1.39-2.49-3.38-2.49-5.6ZM6.11,16.5c.58-.74,1.26-1.68,1.61-2.17.51.08,1.32.18,2.29.18.65,0,1.37-.07,2.1-.19.35.49,1.07,1.47,1.7,2.23-1.12.65-2.42,1.04-3.81,1.04s-2.75-.4-3.89-1.09ZM15.02,15.67c-.56-.66-1.25-1.6-1.63-2.13.46-.71,1.27-2.27,1.41-4.37.67-.3,1.75-.74,2.56-.96.14.58.22,1.18.22,1.79,0,2.25-.99,4.27-2.56,5.67Z" fill="#6d7886"/>
</svg>