<?xml version="1.0" encoding="UTF-8"?>
<svg id="Layer_1" xmlns="http://www.w3.org/2000/svg" version="1.1" viewBox="0 0 20 20">
  <!-- Generator: Adobe Illustrator 30.3.0, SVG Export Plug-In . SVG Version: 2.1.3 Build 182)  -->
  <path d="M8.15,13.96s-.04,0-.07,0c-.34-.04-.59-.34-.55-.69.13-1.24.21-2.46.21-3.27,0-1.26,1.03-2.29,2.29-2.29.35,0,.62.28.62.62s-.28.62-.62.62c-.57,0-1.04.47-1.04,1.04,0,.86-.08,2.1-.22,3.4-.03.32-.31.56-.62.56Z" fill="#6d7886"/>
  <path d="M10.86,18.96c-.08,0-.16-.01-.23-.04-.32-.13-.48-.49-.35-.81.79-1.97.79-5.22.79-7.17,0-.35.28-.62.62-.62s.62.28.62.62c0,2.03,0,5.44-.88,7.63-.1.24-.33.39-.58.39Z" fill="#6d7886"/>
  <path d="M14.44,18.14s-.08,0-.12-.01c-.34-.07-.56-.4-.49-.74.11-.57.36-1.92.41-2.45.03-.34.34-.59.68-.56.34.03.6.34.56.68-.06.66-.34,2.14-.43,2.58-.06.3-.32.5-.61.5Z" fill="#6d7886"/>
  <path d="M1.7,10.62c-.35,0-.62-.28-.62-.62C1.07,5.06,5.09,1.04,10.03,1.04c2.8,0,5.48,1.34,7.17,3.58.21.28.15.67-.12.88-.28.21-.67.15-.88-.12-1.45-1.93-3.75-3.08-6.17-3.08-4.25,0-7.71,3.46-7.71,7.71,0,.35-.28.62-.62.62Z" fill="#6d7886"/>
  <path d="M1.71,13.96c-.35,0-.63-.28-.63-.62s.28-.62.62-.62h0c.35,0,.62.28.62.62s-.28.62-.62.62Z" fill="#6d7886"/>
  <path d="M18.2,13.96s-.04,0-.06,0c-.34-.03-.59-.34-.56-.68.17-1.67.1-4.39,0-4.81-.07-.34.15-.67.49-.74.34-.07.67.15.74.49.13.62.18,3.48,0,5.19-.03.32-.3.56-.62.56Z" fill="#6d7886"/>
  <path d="M4.2,16.88c-.07,0-.13-.01-.2-.03-.33-.11-.5-.46-.4-.79.4-1.2.8-3.66.8-6.05,0-.64.11-1.27.32-1.87.11-.33.47-.5.8-.38.33.11.5.47.38.8-.17.47-.25.96-.25,1.46,0,2.65-.45,5.2-.87,6.45-.09.26-.33.43-.59.43Z" fill="#6d7886"/>
  <path d="M7.24,18.96c-.06,0-.13,0-.19-.03-.33-.1-.51-.46-.41-.79l.1-.31c.14-.44.28-.85.35-1.27.06-.34.38-.57.72-.51.34.06.57.38.51.72-.09.5-.24.98-.4,1.44l-.1.31c-.08.27-.33.44-.6.44Z" fill="#6d7886"/>
  <path d="M15.03,12.29c-.35,0-.62-.28-.62-.62v-1.67c0-.77-.2-1.53-.59-2.19-.58-1.01-1.53-1.74-2.66-2.04-1.13-.3-2.31-.15-3.32.44-.3.17-.68.07-.85-.23s-.07-.68.23-.85c1.3-.75,2.82-.95,4.27-.56,1.45.39,2.66,1.32,3.42,2.62.49.85.75,1.83.75,2.82v1.67c0,.35-.28.62-.62.62Z" fill="#6d7886"/>
</svg>