<?xml version="1.0" encoding="UTF-8"?>
<svg id="Layer_1" xmlns="http://www.w3.org/2000/svg" version="1.1" viewBox="0 0 20 20">
  <!-- Generator: Adobe Illustrator 30.3.0, SVG Export Plug-In . SVG Version: 2.1.3 Build 182)  -->
  <path d="M18.17,3.74l-1.33-1.78c-.2-.27-.46-.48-.75-.63-.01,0-.02-.02-.03-.03,0,0-.02,0-.03,0-.32-.16-.67-.25-1.03-.25H5c-.36,0-.71.09-1.03.25,0,0-.02,0-.03,0-.01,0-.02.02-.03.03-.29.16-.55.37-.75.63l-1.34,1.78c-.55.74-.61,1.72-.15,2.52l3.77,6.5c-.14.45-.23.91-.23,1.4,0,2.64,2.15,4.79,4.79,4.79s4.79-2.15,4.79-4.79c0-.49-.1-.95-.23-1.4l3.77-6.51c.46-.8.39-1.79-.16-2.52ZM10,9.38c-.15,0-.3.03-.45.05l-1.78-2.96h4.46l-1.78,2.96c-.15-.01-.3-.05-.45-.05ZM12.98,5.21h-5.96l-1.75-2.92h9.46l-1.75,2.92ZM2.76,5.64c-.21-.36-.18-.81.07-1.15l1.28-1.71,4.16,6.93c-.88.34-1.63.93-2.17,1.69l-3.34-5.77ZM10,17.71c-1.95,0-3.54-1.59-3.54-3.54s1.59-3.54,3.54-3.54,3.54,1.59,3.54,3.54-1.59,3.54-3.54,3.54ZM17.24,5.64l-3.34,5.77c-.54-.76-1.29-1.35-2.17-1.69l4.16-6.93,1.28,1.71c.25.33.28.78.07,1.14Z" fill="#6d7886"/>
  <path d="M10,12.71h-.42c-.35,0-.62.28-.62.62,0,.27.17.5.42.59v1.08c0,.35.28.62.62.62s.62-.28.62-.62v-1.67c0-.34-.28-.62-.62-.62Z" fill="#6d7886"/>
</svg>