<?xml version="1.0" encoding="UTF-8"?>
<svg id="Layer_1" xmlns="http://www.w3.org/2000/svg" version="1.1" viewBox="0 0 20 20">
  <!-- Generator: Adobe Illustrator 30.3.0, SVG Export Plug-In . SVG Version: 2.1.3 Build 182)  -->
  <path d="M16.69,8.64c-.41,0-1-.08-1.48-.48l-5.14-3.48c-.53-.4-1.23-.37-1.83.08-.05.04-.09.08-.12.12-.16.21-.51.6-.78.73-.04.02-.07.04-.11.07-.79.63-1.93.65-2.72.09-.31-.24-.72-.65-.88-.8-.16-.28-.41-.49-.72-.61-.35-.13-.73-.11-1.06.04-.61.28-.93.98-.76,1.62v7.41c0,1.26,1.03,2.29,2.29,2.29h10.83c2.69,0,4.79-2.1,4.79-4.79,0-1.26-1.03-2.29-2.29-2.29ZM14.19,14.47H3.36c-.57,0-1.04-.47-1.04-1.04v-1.66c.52.39,1.16.62,1.88.62h5.83c.35,0,.62-.28.62-.62s-.28-.62-.62-.62h-5.83c-1.07,0-1.88-.81-1.88-1.88v-3.33c0-.07-.01-.15-.04-.21-.03-.07,0-.15.07-.18.01,0,.03,0,.05,0,.06,0,.12.03.14.08.03.07.07.13.13.18.02.02.61.61,1.08.98,1.26.9,2.98.87,4.2-.06.49-.27.92-.77,1.09-.98.08-.04.2-.1.3-.03l1.58,1.07-.98,1.28c-.21.27-.16.67.12.88.11.09.25.13.38.13.19,0,.37-.08.5-.25l1.02-1.34,1.71,1.16-.81,1.1c-.21.28-.15.67.13.87.11.08.24.12.37.12.19,0,.38-.09.5-.25l.84-1.14c.54.36,1.22.56,1.99.56.57,0,1.04.47,1.04,1.04,0,1.99-1.56,3.54-3.54,3.54Z" fill="#6d7886"/>
</svg>