<?xml version="1.0" encoding="UTF-8"?>
<svg id="Layer_1" xmlns="http://www.w3.org/2000/svg" version="1.1" viewBox="0 0 180 80">
  <!-- Generator: Adobe Illustrator 30.3.0, SVG Export Plug-In . SVG Version: 2.1.3 Build 182)  -->
  <path d="M93.36,19.57v-5.37h-2.73v5.45c0,1.36-.71,1.99-1.79,1.99s-1.79-.66-1.79-2.06v-5.38h-2.73v5.44c0,3.03,1.73,4.43,4.48,4.43s4.54-1.37,4.54-4.5Z" fill="#2a2c2b"/>
  <rect x="95.68" y="14.2" width="2.7" height="9.69" fill="#2a2c2b"/>
  <polygon points="108.21 21.54 103.52 21.54 103.52 14.2 100.83 14.2 100.83 23.89 108.21 23.89 108.21 21.54" fill="#2a2c2b"/>
  <polygon points="112.72 20.21 116.17 20.21 116.17 23.89 118.86 23.89 118.86 14.2 116.17 14.2 116.17 17.83 112.72 17.83 112.72 14.2 110.04 14.2 110.04 23.89 112.72 23.89 112.72 20.21" fill="#2a2c2b"/>
  <polygon points="129.11 21.61 123.91 21.61 123.91 20.07 128.56 20.07 128.56 17.95 123.91 17.95 123.91 16.48 129.04 16.48 129.04 14.2 121.25 14.2 121.25 23.89 129.11 23.89 129.11 21.61" fill="#2a2c2b"/>
  <path d="M133.85,20.96h1.18l1.95,2.93h3.1l-2.31-3.38c1.2-.51,1.99-1.49,1.99-2.98v-.03c0-.96-.29-1.7-.86-2.26-.65-.66-1.67-1.05-3.16-1.05h-4.58v9.69h2.69v-2.93ZM133.85,16.53h1.76c.9,0,1.45.39,1.45,1.15v.03c0,.71-.53,1.15-1.44,1.15h-1.77v-2.33Z" fill="#2a2c2b"/>
  <polygon points="146.94 22.12 149.42 18.33 149.42 23.89 152.09 23.89 152.09 14.2 149.25 14.2 146.94 17.95 144.63 14.2 141.79 14.2 141.79 23.89 144.42 23.89 144.42 18.35 146.89 22.12 146.94 22.12" fill="#2a2c2b"/>
  <polygon points="162.35 21.61 157.14 21.61 157.14 20.07 161.79 20.07 161.79 17.95 157.14 17.95 157.14 16.48 162.28 16.48 162.28 14.2 154.49 14.2 154.49 23.89 162.35 23.89 162.35 21.61" fill="#2a2c2b"/>
  <path d="M74.66,15.02s.07.02.11.03c-1.22.91-1.97,2.35-1.97,3.99v.03c0,2.93,2.26,5.01,5.27,5.01,1.76,0,3.18-.65,4.21-1.49v-4.36h-4.46v1.97h1.91v1.18c-.4.26-.9.4-1.55.4-1.54,0-2.63-1.12-2.63-2.69v-.03c0-1.48,1.08-2.66,2.48-2.66.96,0,1.65.33,2.34.91l1.58-1.9c-1.02-.89-2.23-1.41-3.93-1.41-1.07,0-2.04.29-2.85.78-.35-.14-.77-.21-1.24-.21-1.11,0-2.18.28-3.23.85-1.05.57-2.04,1.28-2.99,2.16-.95.87-1.82,1.78-2.62,2.71-.8.93-1.49,1.78-2.08,2.54-.96,1.2-1.94,2.39-2.93,3.56-1,1.17-2.05,2.22-3.17,3.15-1.12.93-2.32,1.68-3.61,2.25-1.29.57-2.7.85-4.22.85-.51,0-.96-.04-1.38-.11-.04-.91-.16-1.66-.37-2.25.83-1.48,1.67-2.94,2.54-4.35,1.02-1.67,2.13-3.18,3.34-4.53.59-.64,1.27-1.25,2.03-1.82.76-.58,1.52-1.09,2.29-1.53.76-.44,1.44-.75,2.03-.92h-1.81c-.64.02-1.49-.25-2.54-.83-1.06-.58-2.28-1.3-3.67-2.16-1.39-.86-2.91-1.72-4.57-2.58-1.66-.86-3.42-1.59-5.27-2.18-1.86-.59-3.77-.88-5.73-.88-2.56,0-4.79.33-6.71,1-1.92.66-3.52,1.54-4.79,2.64-1.28,1.09-2.24,2.3-2.88,3.63-.53,1.09-.83,2.18-.93,3.26-1.56.21-3.06.54-4.48,1-2.62.85-4.89,2.04-6.8,3.58-1.92,1.54-3.4,3.35-4.44,5.46-1.04,2.1-1.57,4.41-1.57,6.91s.52,4.84,1.57,6.93c1.04,2.09,2.52,3.9,4.42,5.44,1.9,1.54,4.17,2.72,6.78,3.56,2.62.84,5.5,1.25,8.65,1.25s5.93-.41,8.2-1.22c2.27-.81,4.13-1.87,5.59-3.17,1.45-1.3,2.52-2.7,3.21-4.18.69-1.49,1.03-2.91,1.03-4.26,0-.82-.12-1.6-.35-2.34.47-.59.92-1.19,1.34-1.83.8-1.2,1.55-2.44,2.29-3.71.06.03.11.07.18.1.24.11.51.2.79.28-.04,1.05-.18,2.15-.4,3.3-.28,1.43-.57,2.85-.87,4.26-.3,1.41-.44,2.75-.44,4,0,1.89.37,3.35,1.12,4.39.75,1.03,1.84,1.55,3.26,1.55.64,0,1.17-.09,1.59-.28.42-.18.82-.42,1.22-.72l-.15-.29c-.71.64-1.57.96-2.58.96-1.28,0-2.16-.48-2.65-1.44-.49-.96-.74-2.19-.74-3.69,0-1.11.11-2.31.33-3.61.22-1.3.44-2.65.65-4.04.21-1.39.31-2.73.31-4.04,0-.07,0-.14,0-.21.42.06.87.1,1.37.1,1.6,0,3.07-.29,4.41-.87,1.34-.58,2.58-1.35,3.72-2.3,1.14-.96,2.22-2.03,3.23-3.23,1.01-1.19,1.98-2.39,2.91-3.59.64-.84,1.36-1.72,2.16-2.65.8-.93,1.65-1.81,2.56-2.64.91-.82,1.86-1.5,2.84-2.03.98-.53,1.98-.79,2.99-.79.27,0,.53.02.77.07ZM41.45,44.43c-.66,1.44-1.71,2.79-3.13,4.06-1.43,1.27-3.25,2.3-5.47,3.1-2.22.8-4.91,1.2-8.06,1.2s-5.93-.41-8.5-1.24c-2.57-.82-4.79-1.98-6.65-3.47-1.87-1.49-3.32-3.26-4.35-5.33-1.03-2.06-1.55-4.33-1.55-6.78s.52-4.75,1.55-6.8c1.03-2.05,2.49-3.83,4.37-5.33,1.88-1.5,4.1-2.66,6.67-3.48,1.36-.44,2.8-.75,4.3-.96,0,.1,0,.21,0,.31,0,1.65.34,3.05,1.01,4.22.3.52.66.99,1.05,1.42-1.04.16-2.03.39-2.97.71-1.83.63-3.39,1.47-4.68,2.53-1.29,1.06-2.29,2.24-2.99,3.54-.7,1.3-1.05,2.64-1.05,4.02,0,1.94.5,3.68,1.51,5.22,1.01,1.54,2.53,2.75,4.55,3.65,2.03.9,4.54,1.35,7.54,1.35,3.15,0,6.03-.49,8.65-1.46,2.62-.97,4.92-2.43,6.91-4.37.71-.69,1.39-1.42,2.03-2.2.17.63.26,1.29.26,1.98,0,1.3-.33,2.67-1,4.11ZM24.36,26.78c1.14.74,2.43,1.28,3.85,1.64,1.43.36,2.9.53,4.42.53.63,0,1.24-.04,1.82-.11.55.83.84,1.71.86,2.63-.38-.14-.77-.26-1.17-.38-1.75-.49-3.65-.74-5.71-.74-2.41,0-4.41.3-6.01.9-1.6.6-2.79,1.34-3.58,2.21-.79.87-1.18,1.71-1.18,2.53,0,.64.21,1.27.63,1.88.42.61,1.11,1.12,2.06,1.51.96.39,2.22.59,3.8.59,1.84,0,3.48-.25,4.9-.76,1.43-.5,2.63-1.17,3.61-1.99.98-.82,1.73-1.73,2.25-2.71.44-.84.68-1.68.75-2.51,1.03.4,1.96.87,2.79,1.44.93.64,1.71,1.36,2.33,2.17-1.43,1.53-2.95,2.94-4.56,4.22-1.78,1.41-3.68,2.54-5.7,3.39-2.02.85-4.18,1.27-6.49,1.27s-4.5-.29-6.41-.87c-1.92-.58-3.44-1.48-4.57-2.71-1.13-1.23-1.7-2.83-1.7-4.79,0-1.28.34-2.55,1.01-3.82.68-1.27,1.65-2.41,2.91-3.45,1.27-1.03,2.78-1.86,4.55-2.47.98-.34,2.04-.58,3.16-.73.41.4.86.78,1.36,1.1ZM23.53,25.63c.74-.08,1.49-.13,2.28-.13,2.19,0,3.98.29,5.38.87,1.34.55,2.34,1.26,3.01,2.14-.51.06-1.04.09-1.58.09-2.34,0-4.38-.37-6.14-1.11-1.17-.49-2.15-1.11-2.96-1.86ZM35.31,31.87c-.04.83-.28,1.67-.74,2.52-.5.95-1.24,1.81-2.19,2.6-.96.79-2.13,1.42-3.5,1.9-1.38.48-2.95.72-4.72.72-1.5,0-2.7-.18-3.59-.53-.9-.36-1.54-.82-1.94-1.38-.39-.57-.59-1.14-.59-1.73,0-.74.37-1.51,1.12-2.3.75-.8,1.89-1.48,3.43-2.05,1.54-.57,3.47-.85,5.81-.85,2.04,0,3.91.23,5.62.7.45.12.88.26,1.29.41ZM45.63,29.94c-.23.29-.46.59-.7.88-.18-.32-.28-.61-.28-.86,0-.27.07-.49.2-.65.13-.16.3-.24.5-.24.3,0,.56.07.79.21-.17.22-.34.43-.51.66ZM45.36,28.7c-.32,0-.59.12-.81.37-.22.25-.33.54-.33.88,0,.38.15.8.43,1.23-1.08,1.33-2.21,2.65-3.4,3.97-.06.07-.12.13-.19.2-.63-.8-1.41-1.53-2.34-2.17-.9-.62-1.91-1.14-3.02-1.56,0,0,0,0,0,0,0-1-.27-1.94-.81-2.83,1.04-.17,2.02-.45,2.93-.86,1.54-.69,2.76-1.62,3.67-2.8.91-1.18,1.36-2.49,1.36-3.94,0-1.65-.61-2.96-1.83-3.94-1.22-.98-2.85-1.47-4.88-1.47-.93,0-1.82.12-2.65.35-.84.23-1.55.58-2.14,1.05l.26.26c1.11-.86,2.62-1.29,4.53-1.29s3.45.46,4.61,1.38c1.15.92,1.73,2.14,1.73,3.67,0,1.38-.44,2.62-1.33,3.74-.88,1.12-2.07,2.01-3.56,2.67-.91.41-1.89.69-2.93.85-.69-.98-1.76-1.78-3.21-2.4-1.45-.61-3.33-.92-5.64-.92-.91,0-1.79.06-2.64.16-.27-.28-.53-.58-.75-.9-.96-1.33-1.44-2.89-1.44-4.68,0-.12,0-.24.01-.36,1.22-.15,2.48-.23,3.79-.23s2.67.11,4.04.33c1.36.22,2.67.56,3.93,1.01,1.25.46,2.36,1.04,3.32,1.75.96.71,1.68,1.57,2.18,2.58l.37-.11c-.52-1.03-1.27-1.92-2.25-2.67-.98-.75-2.12-1.36-3.41-1.84-1.29-.48-2.64-.84-4.06-1.07-1.41-.23-2.78-.35-4.11-.35s-2.55.08-3.76.22c.11-1.22.47-2.37,1.11-3.43.76-1.28,1.83-2.39,3.21-3.34,1.38-.95,2.99-1.68,4.83-2.21,1.84-.53,3.85-.79,6.01-.79,1.97,0,3.85.28,5.66.85,1.81.57,3.51,1.27,5.11,2.1,1.6.84,3.07,1.67,4.42,2.49,1.35.82,2.56,1.52,3.63,2.08.78.41,1.47.66,2.07.76-.59.39-1.17.85-1.74,1.36-.75.68-1.55,1.43-2.41,2.27-1.06,1.03-2.19,2.32-3.41,3.87-.99,1.26-2.03,2.6-3.12,4-.29-.18-.63-.27-1.02-.27ZM47.08,32.4c-.2-.06-.39-.13-.56-.21-.07-.04-.14-.07-.21-.11.19-.33.39-.66.58-1,.04-.07.08-.13.11-.2.06.34.09.73.09,1.18,0,.11,0,.23,0,.34Z" fill="#2a2c2b"/>
  <path d="M60.6,37.63h7.66v-3.49h-7.66v-2.41h8.45v-3.76h-8.54c-1.41,1.88-3.2,3.12-4.29,3.76v12.18h12.94v-3.76h-8.57v-2.53Z" fill="#2a2c2b"/>
  <path d="M86.69,33.46v-.05c0-1.57-.48-2.8-1.41-3.71-1.07-1.09-2.76-1.73-5.19-1.73h-7.54v15.95h4.42v-4.83h1.94l3.21,4.83h5.1l-3.8-5.56c1.98-.84,3.28-2.46,3.28-4.9ZM82.25,33.74c0,1.16-.87,1.89-2.37,1.89h-2.92v-3.83h2.89c1.48,0,2.39.64,2.39,1.89v.05Z" fill="#2a2c2b"/>
  <path d="M97.86,40.21c-2.23,0-3.8-1.87-3.8-4.26v-.05c0-2.32,1.57-4.21,3.8-4.21,1.53,0,2.57.73,3.49,1.87l3.33-2.57c-1.41-1.96-3.51-3.33-6.77-3.33-4.83,0-8.41,3.65-8.41,8.29v.05c0,4.76,3.67,8.25,8.22,8.25,3.53,0,5.56-1.53,7.06-3.6l-3.33-2.37c-.96,1.16-1.94,1.94-3.6,1.94Z" fill="#2a2c2b"/>
  <polygon points="117.89 33.94 112.21 33.94 112.21 27.97 107.79 27.97 107.79 43.92 112.21 43.92 112.21 37.86 117.89 37.86 117.89 43.92 122.31 43.92 122.31 27.97 117.89 27.97 117.89 33.94" fill="#2a2c2b"/>
  <polygon points="136.93 36.4 130.37 27.97 126.25 27.97 126.25 43.92 130.62 43.92 130.62 35.17 137.44 43.92 141.31 43.92 141.31 27.97 136.93 27.97 136.93 36.4" fill="#2a2c2b"/>
  <polygon points="149.63 37.63 157.28 37.63 157.28 34.15 149.63 34.15 149.63 31.73 158.08 31.73 158.08 27.97 145.25 27.97 145.25 43.92 158.19 43.92 158.19 40.16 149.63 40.16 149.63 37.63" fill="#2a2c2b"/>
  <path d="M172.43,38.36c1.98-.84,3.28-2.46,3.28-4.9v-.05c0-1.57-.48-2.8-1.41-3.71-1.07-1.09-2.76-1.73-5.19-1.73h-7.54v15.95h4.42v-4.83h1.94l3.21,4.83h5.1l-3.8-5.56ZM171.27,33.74c0,1.16-.87,1.89-2.37,1.89h-2.92v-3.83h2.89c1.48,0,2.39.64,2.39,1.89v.05Z" fill="#2a2c2b"/>
  <path d="M53.07,55.12c-.17.04-37.12,10.06-37.12,10.06-.71.2-1.44.3-2.15.31-2.84.02-5.37-1.56-5.35-4.88,0-1.3.41-2.87,1.33-4.71-3.26,3.83-6.38,8.57-6.41,12.12-.01,1.33.41,2.5,1.44,3.38,1.47,1.27,3.09,1.72,4.7,1.72,2.35,0,4.69-.94,6.53-1.68,3.08-1.23,37.19-16.04,37.19-16.04.33-.16.27-.37-.15-.27Z" fill="#2a2c2b"/>
  <path d="M169.23,23.63c.04-1.13.15-2.43.9-3.34.89-1.09,2.49-1.25,3.81-1.28-1.37-.03-2.99-.19-3.87-1.36-.67-.88-.82-2.2-.83-3.27h0c-.01,1.08-.17,2.43-.85,3.3-.89,1.14-2.5,1.3-3.85,1.33,1.09.02,2.38.14,3.29.8,1.2.87,1.37,2.45,1.41,3.82Z" fill="#2a2c2b"/>
</svg>