<?xml version="1.0" encoding="UTF-8"?>
<svg id="Layer_1" xmlns="http://www.w3.org/2000/svg" version="1.1" viewBox="0 0 20 20">
  <!-- Generator: Adobe Illustrator 30.3.0, SVG Export Plug-In . SVG Version: 2.1.3 Build 182)  -->
  <path d="M10,5.62c-.8,0-1.46-.65-1.46-1.46s.65-1.46,1.46-1.46,1.46.65,1.46,1.46-.65,1.46-1.46,1.46ZM10,3.96c-.11,0-.21.09-.21.21,0,.23.42.23.42,0,0-.11-.09-.21-.21-.21Z" fill="#6d7886"/>
  <path d="M12.5,17.29c-.23,0-.45-.13-.56-.35l-1.94-3.88-1.94,3.88c-.15.31-.53.43-.84.28-.31-.15-.43-.53-.28-.84l2.5-5c.21-.42.91-.42,1.12,0l2.5,5c.15.31.03.68-.28.84-.09.04-.19.07-.28.07Z" fill="#6d7886"/>
  <path d="M10,8.96c-.07,0-.13-.01-.2-.03l-5-1.67c-.33-.11-.5-.46-.4-.79.11-.33.46-.51.79-.4l4.8,1.6,4.8-1.6c.33-.11.68.07.79.4.11.33-.07.68-.4.79l-5,1.67c-.06.02-.13.03-.2.03Z" fill="#6d7886"/>
  <path d="M10,12.29c-.35,0-.62-.28-.62-.62v-3.33c0-.34.28-.62.62-.62s.62.28.62.62v3.33c0,.34-.28.62-.62.62Z" fill="#6d7886"/>
</svg>