<?xml version="1.0" encoding="UTF-8"?>
<svg id="Layer_1" xmlns="http://www.w3.org/2000/svg" version="1.1" viewBox="0 0 20 20">
  <!-- Generator: Adobe Illustrator 30.3.0, SVG Export Plug-In . SVG Version: 2.1.3 Build 182)  -->
  <path d="M15.83,3.54c-.39,0-.75.11-1.08.28-.17-1.1-1.11-1.95-2.26-1.95-.49,0-.93.15-1.31.41-.38-.74-1.14-1.25-2.03-1.25s-1.65.51-2.03,1.25c-.37-.26-.82-.41-1.31-.41-1.26,0-2.29,1.03-2.29,2.29v3.91l-.31.31c-.88.88-1.36,2.04-1.36,3.29,0,4.02,3.27,7.29,7.29,7.29h1.67c4.02,0,7.29-3.27,7.29-7.29v-5.83c0-1.26-1.03-2.29-2.29-2.29ZM12.5,3.13c.57,0,1.04.47,1.04,1.04v2.5c0,.21-.06.41-.18.58-.15.23-.39.39-.66.44-.14.03-.29.02-.43,0,0-.06.02-.12.02-.18,0-.71-.33-1.33-.83-1.75v-1.58c0-.57.47-1.04,1.04-1.04ZM8.12,3.33c0-.57.47-1.04,1.04-1.04s1.04.47,1.04,1.04v1.9c-.07,0-.14-.02-.21-.02h-1.88v-1.88ZM4.79,4.17c0-.57.47-1.04,1.04-1.04s1.04.47,1.04,1.04v1.17c-.52.14-.99.4-1.38.79l-.7.7v-2.66ZM16.88,11.67c0,3.33-2.71,6.04-6.04,6.04h-1.67c-3.33,0-6.04-2.71-6.04-6.04,0-.91.35-1.76,1-2.4l.49-.49h0s1.77-1.77,1.77-1.77c.35-.35.83-.55,1.33-.55h2.3c.57,0,1.04.47,1.04,1.04s-.47,1.04-1.04,1.04h-.98c-.61,0-1.19.24-1.62.67l-1,1c-.23.23-.36.53-.36.86,0,.33.12.64.35.87.23.23.54.36.86.36h.26c1.03,0,1.88.84,1.88,1.88,0,.34.28.62.62.62s.62-.28.62-.62c0-1.72-1.4-3.12-3.12-3.12l-.24.04,1-1c.2-.2.46-.31.74-.31h.98c.75,0,1.42-.37,1.84-.93.22.07.44.1.66.1.46,0,.92-.16,1.3-.42.38.74,1.14,1.26,2.03,1.26.38,0,.73-.09,1.04-.25v2.13ZM16.88,7.5c0,.57-.47,1.04-1.04,1.04s-1.04-.47-1.04-1.04v-1.67c0-.57.47-1.04,1.04-1.04s1.04.47,1.04,1.04v1.67Z" fill="#6d7886"/>
</svg>